<?xml version="1.0" encoding="UTF-8"?>
<svg version="1.1" xmlns="http://www.w3.org/2000/svg" width="100" height="100">
<path d="M0 0 C7.23803969 6.39791008 12.64689953 17.43550412 13.30078125 27.05078125 C13.67428749 40.68375902 10.52355329 51.48835455 1.0625 61.70703125 C-8.80820227 71.13707716 -19.63131527 74.08647127 -33.0078125 73.82421875 C-41.60803462 73.21724482 -48.69011999 70.25583724 -55.609375 65.20703125 C-57.41564225 62.94919719 -57.18482813 61.35785433 -56.9375 58.546875 C-54.9375 57.734375 -54.9375 57.734375 -51.9375 57.546875 C-50.17578125 58.48828125 -50.17578125 58.48828125 -48.25 59.796875 C-40.06658837 65.3087789 -31.09530708 66.78830717 -21.4375 65.11328125 C-11.94748156 62.72594849 -4.16411011 57.35852505 0.87890625 48.9296875 C5.29570721 40.03777797 6.42796791 31.19842444 4 21.546875 C0.81191093 12.11606268 -5.01192291 4.98039936 -13.9375 0.546875 C-24.00937723 -3.68460058 -32.88854095 -3.42000698 -43.08984375 0.265625 C-47.60382604 2.29660743 -52.65255601 4.97698702 -54.9375 9.546875 C-52.6275 9.876875 -50.3175 10.206875 -47.9375 10.546875 C-47.3125 12.921875 -47.3125 12.921875 -46.9375 15.546875 C-49.30318222 17.91255722 -49.78982226 17.80259204 -53 17.8125 C-54.19496094 17.81636719 -54.19496094 17.81636719 -55.4140625 17.8203125 C-56.24679688 17.81257813 -57.07953125 17.80484375 -57.9375 17.796875 C-58.77023438 17.80460937 -59.60296875 17.81234375 -60.4609375 17.8203125 C-61.25757813 17.81773438 -62.05421875 17.81515625 -62.875 17.8125 C-63.60589844 17.81024414 -64.33679688 17.80798828 -65.08984375 17.80566406 C-66.9375 17.546875 -66.9375 17.546875 -68.9375 15.546875 C-69.19628906 13.69921875 -69.19628906 13.69921875 -69.203125 11.484375 C-69.20570312 10.68773438 -69.20828125 9.89109375 -69.2109375 9.0703125 C-69.20320313 8.23757812 -69.19546875 7.40484375 -69.1875 6.546875 C-69.19523437 5.71414062 -69.20296875 4.88140625 -69.2109375 4.0234375 C-69.20835938 3.22679687 -69.20578125 2.43015625 -69.203125 1.609375 C-69.20086914 0.87847656 -69.19861328 0.14757812 -69.19628906 -0.60546875 C-68.9375 -2.453125 -68.9375 -2.453125 -66.9375 -4.453125 C-64.3125 -4.078125 -64.3125 -4.078125 -61.9375 -3.453125 C-61.6075 -1.143125 -61.2775 1.166875 -60.9375 3.546875 C-60.380625 3.01578125 -59.82375 2.4846875 -59.25 1.9375 C-41.56322122 -14.4347209 -19.10175284 -14.32631463 0 0 Z " fill="#000000" transform="translate(78.9375,18.453125)"/>
<path d="M0 0 C1.98 0 3.96 0 6 0 C7.27861615 2.55723229 7.11336609 4.36737102 7.09765625 7.2265625 C7.09443359 8.2578125 7.09121094 9.2890625 7.08789062 10.3515625 C7.07951172 11.43179688 7.07113281 12.51203125 7.0625 13.625 C7.05798828 14.71296875 7.05347656 15.8009375 7.04882812 16.921875 C7.03701776 19.61463789 7.02054778 22.30729188 7 25 C8.60681641 24.98259766 8.60681641 24.98259766 10.24609375 24.96484375 C11.64322743 24.95546701 13.04036299 24.94636669 14.4375 24.9375 C15.14455078 24.92912109 15.85160156 24.92074219 16.58007812 24.91210938 C18.38693559 24.90346412 20.19387603 24.94779989 22 25 C23 26 23 26 23.0625 28.5625 C23.041875 29.366875 23.02125 30.17125 23 31 C19.34169572 32.82915214 15.02743635 32.22762535 11 32.25 C10.071875 32.270625 9.14375 32.29125 8.1875 32.3125 C6.8571875 32.32023437 6.8571875 32.32023437 5.5 32.328125 C4.6853125 32.3374707 3.870625 32.34681641 3.03125 32.35644531 C2.3609375 32.23881836 1.690625 32.12119141 1 32 C-1.34479915 28.48280128 -1.24596434 27.02968535 -1.23046875 22.87109375 C-1.22853516 21.67162109 -1.22660156 20.47214844 -1.22460938 19.23632812 C-1.21236328 17.98271484 -1.20011719 16.72910156 -1.1875 15.4375 C-1.18685547 14.18001953 -1.18621094 12.92253906 -1.18554688 11.62695312 C-1.14029824 2.28059648 -1.14029824 2.28059648 0 0 Z " fill="#000000" transform="translate(46,27)"/>
<path d="M0 0 C3.53571429 0.53571429 3.53571429 0.53571429 5 2 C5.32438165 3.86961787 5.60925703 5.74615059 5.875 7.625 C6.45054455 11.30063682 7.03971321 14.56502669 8.625 17.9375 C9.98380077 20.9639199 10.38391074 22.73675874 10 26 C9 27 9 27 6.4375 27.0625 C5.633125 27.041875 4.82875 27.02125 4 27 C-0.31480414 18.9359243 -3.15654119 11.30335336 -2 2 C-1.34 1.34 -0.68 0.68 0 0 Z " fill="#000000" transform="translate(10,46)"/>
</svg>
