<?xml version="1.0" encoding="UTF-8"?>
<svg version="1.1" xmlns="http://www.w3.org/2000/svg" width="100" height="100">
<path d="M0 0 C6.42345284 2.99022805 10.36134617 6.42475527 13.375 13 C14.10877278 16.52210936 13.9408001 18.52248086 13 22 C11.35025354 24.13406291 9.79348932 25.90154497 7.88867188 27.77416992 C7.35678253 28.31642715 6.82489319 28.85868439 6.27688599 29.41737366 C4.52000386 31.20129397 2.74540999 32.96626059 0.96875 34.73046875 C-0.26445355 35.96958416 -1.49698763 37.20936619 -2.72888184 38.44978333 C-5.31331835 41.04609647 -7.90682601 43.63290882 -10.50683594 46.21362305 C-13.82643602 49.51039162 -17.12064297 52.83126428 -20.40814972 56.15999889 C-22.94894304 58.72646303 -25.50376917 61.27859009 -28.06285095 63.82680702 C-29.28252951 65.04500527 -30.4976753 66.26776036 -31.70802307 67.49522972 C-43.3283058 79.25300175 -43.3283058 79.25300175 -52 81 C-53.30517578 81.36158203 -53.30517578 81.36158203 -54.63671875 81.73046875 C-65.11821472 84.06634499 -65.11821472 84.06634499 -68.875 81.9375 C-71.8972102 76.73258244 -69.62094863 68.86939288 -68.29509926 63.33103085 C-65.773715 54.56418644 -59.65215612 49.12740339 -53.2109375 43.00390625 C-51.94093735 41.75380525 -50.67353431 40.50106091 -49.40859985 39.24583435 C-46.10482731 35.981808 -42.76624339 32.75584923 -39.41888428 29.53662109 C-36.0033039 26.23762352 -32.6251381 22.90074668 -29.2421875 19.56835938 C-24.31132884 14.72444041 -19.37066734 9.89098984 -14.39599609 5.09204102 C-13.87647873 4.58778091 -13.35696136 4.08352081 -12.82170105 3.5639801 C-8.16934065 -0.90566781 -6.42677445 -1.36964046 0 0 Z M-4 12 C-5.485 13.98 -5.485 13.98 -7 16 C-4.525 17.98 -4.525 17.98 -2 20 C-1.01 19.01 -0.02 18.02 1 17 C0.20882096 15.00016466 0.20882096 15.00016466 -1 13 C-1.99 12.67 -2.98 12.34 -4 12 Z M-16 24 C-21.21284741 29.09683566 -26.41199994 34.20722473 -31.59424496 39.3351841 C-34.00119308 41.71607346 -36.4125529 44.09210353 -38.8347168 46.45751953 C-41.61912491 49.18128847 -44.38708377 51.92087258 -47.15234375 54.6640625 C-48.45702858 55.93003769 -48.45702858 55.93003769 -49.78807068 57.22158813 C-50.58882523 58.02196503 -51.38957977 58.82234192 -52.21459961 59.64697266 C-53.27716225 60.69288071 -53.27716225 60.69288071 -54.3611908 61.75991821 C-56.35876646 64.49039645 -56.67831044 66.66853866 -57 70 C-49.60859008 68.85089711 -45.85198831 64.50032475 -40.78515625 59.2734375 C-39.92941513 58.41062164 -39.07367401 57.54780579 -38.19200134 56.65884399 C-35.47017732 53.90910422 -32.7662847 51.14246819 -30.0625 48.375 C-28.21665199 46.50406594 -26.36965922 44.63426056 -24.52148438 42.765625 C-20.00097342 38.19008156 -15.49504869 33.60055278 -11 29 C-13.475 26.525 -13.475 26.525 -16 24 Z " fill="#000000" transform="translate(78,9)"/>
</svg>
