<?xml version="1.0" encoding="UTF-8"?>
<svg version="1.1" xmlns="http://www.w3.org/2000/svg" width="50" height="50">
<path d="M0 0 C1.98 0 3.96 0 6 0 C6.061875 0.78375 6.12375 1.5675 6.1875 2.375 C6.455625 3.24125 6.72375 4.1075 7 5 C8.6476038 5.71247732 10.31763529 6.37400383 12 7 C15.77298208 10.81498188 16.54159699 13.66013534 17 18.9375 C17.81248546 25.86538943 19.09442529 29.09442529 24 34 C24.125 36.625 24.125 36.625 24 39 C18.63560356 41.68219822 14.98993047 42.3152595 9 42 C9.04125 42.94875 9.0825 43.8975 9.125 44.875 C9 48 9 48 7 50 C5.125 50.265625 5.125 50.265625 3 50.25 C2.29875 50.25515625 1.5975 50.2603125 0.875 50.265625 C-1 50 -1 50 -3 48 C-3.125 44.875 -3.125 44.875 -3 42 C-4.175625 42.061875 -5.35125 42.12375 -6.5625 42.1875 C-11.03960301 42.21144173 -14.0241888 40.9879056 -18 39 C-18.3125 36.875 -18.3125 36.875 -18 34 C-16.75428487 32.59037498 -15.50636637 31.18250428 -14.23828125 29.79296875 C-11.84178259 26.32295965 -11.61378413 22.0940034 -11 18 C-10.302906 13.49630283 -9.54289365 10.06993454 -6 7 C-3 5 -3 5 -1 5 C-0.67 3.35 -0.34 1.7 0 0 Z M2 3 C2 3.66 2 4.32 2 5 C2.66 5 3.32 5 4 5 C4 4.34 4 3.68 4 3 C3.34 3 2.68 3 2 3 Z M-7 13 C-7.98621453 15.75088863 -8.28623142 18.47544725 -8.5625 21.375 C-9.23921955 28.03627417 -10.73242192 31.75717313 -15 37 C-6.85758657 41.97479125 7.97001615 40.49848217 17 39 C19.28071824 38.04676526 19.28071824 38.04676526 21 37 C20.2059375 36.02289063 19.411875 35.04578125 18.59375 34.0390625 C15.22752094 29.32871239 14.8615674 24.76543528 14.26171875 19.140625 C13.7260803 15.15547495 13.2230277 13.28734091 10.68359375 10.015625 C7.97328393 7.97993378 6.88345726 7.3158029 3.5625 7.375 C2.48162109 7.35566406 2.48162109 7.35566406 1.37890625 7.3359375 C-2.19089643 8.33243414 -4.73112759 10.12531212 -7 13 Z M0 42 C0.33 43.65 0.66 45.3 1 47 C2.65 46.67 4.3 46.34 6 46 C6 44.68 6 43.36 6 42 C4.02 42 2.04 42 0 42 Z " fill="#000000" transform="translate(22,0)"/>
</svg>
