<?xml version="1.0" encoding="UTF-8"?>
<svg version="1.1" xmlns="http://www.w3.org/2000/svg" width="100" height="100">
<path d="M0 0 C2.29932398 1.70017695 4.36811271 3.48064939 6.43359375 5.45703125 C7.38878906 6.3696875 7.38878906 6.3696875 8.36328125 7.30078125 C17.39688656 16.76086578 19.94232444 27.68069259 19.7109375 40.33984375 C19.1958182 51.51870142 13.1739575 61.13308998 5.24609375 68.70703125 C-5.14971761 77.51972413 -16.32624777 79.24012934 -29.56640625 78.45703125 C-39.84518181 76.75591552 -50.33846618 70.90194296 -56.56640625 62.45703125 C-63.53739893 50.23334668 -66.60220761 39.13885648 -63.91796875 25.0546875 C-60.5902526 14.00496335 -52.98016907 4.48194327 -42.7890625 -1.05078125 C-29.14749151 -7.45957299 -13.25851753 -7.97125483 0 0 Z M-49.64453125 13.78515625 C-55.91503535 22.16339282 -58.71134637 31.00536354 -57.56640625 41.45703125 C-56.09093327 50.58471213 -51.29847377 58.26966215 -44.39453125 64.37890625 C-35.56083768 70.70658746 -25.76543218 72.78238885 -15.1015625 71.05859375 C-6.21472359 68.89655079 1.6082561 63.51641352 6.93359375 56.08203125 C12.05734668 47.44865565 13.94423644 38.31786679 11.77734375 28.4765625 C8.84186004 18.49338731 3.75480144 11.1297173 -5.18359375 5.67578125 C-20.62698757 -2.22313493 -37.99566432 0.73492187 -49.64453125 13.78515625 Z " fill="#000000" transform="translate(72.56640625,13.54296875)"/>
<path d="M0 0 C1.18154663 -0.00430527 1.18154663 -0.00430527 2.38696289 -0.00869751 C4.05127685 -0.01073772 5.71561481 -0.00521082 7.37988281 0.00732422 C9.92827947 0.02337941 12.47509021 0.00747506 15.0234375 -0.01171875 C16.6406285 -0.00973631 18.25781852 -0.00589261 19.875 0 C20.63756104 -0.00607269 21.40012207 -0.01214539 22.18579102 -0.0184021 C27.44164718 0.05151812 27.44164718 0.05151812 29.91430664 1.78149414 C32.11893488 5.26544853 31.47143771 9.46448262 30.9375 13.3984375 C28.77811818 18.2570466 25.94032349 20.55003211 21.19921875 22.64453125 C13.54253416 25.19675945 5.59449708 24.79856656 -2.0625 22.3984375 C-5.93366837 20.36572723 -8.61320529 18.07237957 -11.0625 14.3984375 C-11.36328125 11.8046875 -11.36328125 11.8046875 -11.375 8.8984375 C-11.39175781 7.939375 -11.40851562 6.9803125 -11.42578125 5.9921875 C-11.0625 3.3984375 -11.0625 3.3984375 -10.04370117 1.76123047 C-6.93662497 -0.37600913 -3.64079295 -0.02899364 0 0 Z M-4.0625 7.3984375 C-3.59994487 12.23774168 -3.59994487 12.23774168 -1.1875 14.1484375 C4.13489197 17.27925631 9.94626526 16.8574753 15.9375 16.3984375 C19.44186082 15.06919719 21.3209084 14.0150291 23.9375 11.3984375 C23.9375 10.0784375 23.9375 8.7584375 23.9375 7.3984375 C14.6975 7.3984375 5.4575 7.3984375 -4.0625 7.3984375 Z " fill="#000000" transform="translate(40.0625,53.6015625)"/>
<path d="M0 0 C3.55073734 1.71196265 5.36617723 2.93402533 7.375 6.3125 C8.47155592 11.02769045 8.48235296 14.67987611 6.8125 19.25 C4.6911324 22.4686267 3.60597575 23.61898801 0 25 C-5.06896501 25.68659894 -8.8556295 25.55175006 -13.5 23.3125 C-17.20907488 19.88160574 -17.86054045 17.53405501 -18.3125 12.5625 C-17.87998306 7.63180692 -16.625898 4.47808909 -12.9375 1.125 C-8.58387466 -0.54234588 -4.60064976 -0.66249357 0 0 Z M-9.9375 8.6875 C-11.28233625 11.61449654 -11.03115662 12.98584989 -10 16 C-8.11861241 18.28930236 -8.11861241 18.28930236 -5.0625 18.375 C-1.96272019 18.28568869 -1.96272019 18.28568869 -0.0625 16.3125 C1.28233625 13.38550346 1.03115662 12.01415011 0 9 C-1.88138759 6.71069764 -1.88138759 6.71069764 -4.9375 6.625 C-8.03727981 6.71431131 -8.03727981 6.71431131 -9.9375 8.6875 Z " fill="#000000" transform="translate(55,25)"/>
</svg>
