<?xml version="1.0" encoding="UTF-8"?>
<svg version="1.1" xmlns="http://www.w3.org/2000/svg" width="100" height="100">
<path d="M0 0 C10.06866931 7.25087772 17.72756886 16.79280068 20.3125 29.25 C21.70668558 45.91292143 19.18676434 58.15716957 8.640625 71.33984375 C2.22382219 78.48333577 -8.09918475 84.61508614 -17.80297852 85.42700195 C-34.86566428 85.88895149 -46.79126814 83.44661518 -59.8125 71.75 C-70.07212814 61.14084545 -72.17133125 48.37416494 -71.96484375 34.2578125 C-71.50503107 21.94581333 -64.87448062 11.59167312 -56.171875 3.17578125 C-39.79726859 -9.51711334 -17.57628553 -10.86641977 0 0 Z M-57.9375 12.625 C-66.04211824 22.60160886 -67.65022919 33.57627254 -66.93017578 46.046875 C-65.7680343 56.59734256 -58.8074412 66.27301795 -50.75390625 72.8671875 C-40.19325554 79.9342392 -29.09466164 81.49851941 -16.6875 80.25 C-6.29832204 77.61580406 3.31461082 71.21294739 9.3125 62.25 C15.20083676 50.90301592 17.60234696 39.28107745 14.40625 26.67578125 C9.43954763 14.2431064 1.58090855 6.03887912 -10.35546875 0.23046875 C-27.13909113 -6.8259621 -46.16532181 -0.25997115 -57.9375 12.625 Z " fill="#000000" transform="translate(75.6875,10.75)"/>
<path d="M0 0 C3.27459047 1.60857076 5.14391724 2.91044012 7.375 5.75 C8.96936209 11.48970354 8.54473237 15.52799409 5.75 20.6875 C4.21683159 23.23552136 2.69360423 25.35746174 0.75 27.625 C-1.5061938 30.6869773 -1.70665001 33.25978762 -2 37 C-4.31 37 -6.62 37 -9 37 C-10.09271413 29.95806452 -8.37620329 26.39030036 -4.4375 20.75 C-3.78213257 19.86513916 -3.78213257 19.86513916 -3.11352539 18.96240234 C-0.56641779 15.42986662 -0.56641779 15.42986662 -0.09765625 11.203125 C-0.89809551 8.84434135 -0.89809551 8.84434135 -3 7 C-6.59679066 7.32326553 -6.59679066 7.32326553 -10 8 C-10.66 9.65 -11.32 11.3 -12 13 C-14.31 13 -16.62 13 -19 13 C-18.74385063 8.64546078 -18.42722153 6.50390232 -15.5625 3.125 C-10.73027407 -0.88221175 -6.10368196 -0.6284468 0 0 Z " fill="#000000" transform="translate(56,25)"/>
<path d="M0 0 C2.64 0 5.28 0 8 0 C8 2.64 8 5.28 8 8 C5.36 8 2.72 8 0 8 C0 5.36 0 2.72 0 0 Z " fill="#000000" transform="translate(46,67)"/>
</svg>
