<?xml version="1.0" encoding="UTF-8"?>
<svg version="1.1" xmlns="http://www.w3.org/2000/svg" width="100" height="100">
<path d="M0 0 C10.06866931 7.25087772 17.72756886 16.79280068 20.3125 29.25 C21.70668558 45.91292143 19.18676434 58.15716957 8.640625 71.33984375 C2.22382219 78.48333577 -8.09918475 84.61508614 -17.80297852 85.42700195 C-34.86566428 85.88895149 -46.79126814 83.44661518 -59.8125 71.75 C-70.07212814 61.14084545 -72.17133125 48.37416494 -71.96484375 34.2578125 C-71.50503107 21.94581333 -64.87448062 11.59167312 -56.171875 3.17578125 C-39.79726859 -9.51711334 -17.57628553 -10.86641977 0 0 Z M-35.6875 19.25 C-37.39555274 21.93408288 -37.6875 23.01169533 -37.6875 26.25 C-35.31444422 26.66780879 -35.31444422 26.66780879 -32.6875 26.25 C-32.006875 25.0434375 -32.006875 25.0434375 -31.3125 23.8125 C-29.6875 21.25 -29.6875 21.25 -26.25 20.1875 C-22.6875 20.25 -22.6875 20.25 -20.1875 21.75 C-18.05529429 25.30367619 -18.77853075 27.26226392 -19.6875 31.25 C-21.59322443 34.40874831 -23.74802909 37.24739521 -25.97265625 40.1875 C-28.00086856 43.8096377 -28.0094114 46.16223615 -27.6875 50.25 C-26.0375 50.25 -24.3875 50.25 -22.6875 50.25 C-22.6875 49.321875 -22.6875 48.39375 -22.6875 47.4375 C-22.16384709 43.38737202 -20.18000776 41.03959468 -17.6875 37.875 C-14.48936373 33.68176018 -12.52772692 30.5841639 -12.375 25.2578125 C-12.90278801 21.86677452 -14.46333867 19.78307263 -16.6875 17.25 C-22.61718055 13.29687963 -30.91772915 13.71091127 -35.6875 19.25 Z M-28.6875 57.25 C-28.72830783 59.24958364 -28.73004356 61.25045254 -28.6875 63.25 C-26.7075 63.25 -24.7275 63.25 -22.6875 63.25 C-22.6875 60.94 -22.6875 58.63 -22.6875 56.25 C-25.97680404 55.88314303 -25.97680404 55.88314303 -28.6875 57.25 Z " fill="#000000" transform="translate(75.6875,10.75)"/>
</svg>
