<?xml version="1.0" encoding="UTF-8"?>
<svg version="1.1" xmlns="http://www.w3.org/2000/svg" width="100" height="100">
<path d="M0 0 C0.65418915 -0.00671722 1.3083783 -0.01343445 1.98239136 -0.02035522 C4.13954315 -0.03931309 6.29638343 -0.04325826 8.45361328 -0.04541016 C9.95810065 -0.05183978 11.46258677 -0.05856826 12.96707153 -0.06558228 C16.11935321 -0.07754958 19.27152534 -0.08126368 22.42382812 -0.08007812 C26.45453932 -0.07987499 30.48454496 -0.10717257 34.51508904 -0.14162254 C37.62243854 -0.16390846 40.72961872 -0.16791516 43.83703995 -0.16685867 C45.32254594 -0.16921227 46.80805676 -0.17802225 48.29348373 -0.19352341 C50.37583946 -0.21321881 52.45668006 -0.20733354 54.5390625 -0.1953125 C55.72168671 -0.19816254 56.90431091 -0.20101257 58.12277222 -0.20394897 C62.09213385 0.3951546 64.26604591 1.83060515 67.39892578 4.29052734 C71.01221556 9.22944891 69.72608715 16.40746332 69.71142578 22.22802734 C69.72753906 23.50355469 69.74365234 24.77908203 69.76025391 26.09326172 C69.76089844 27.32238281 69.76154297 28.55150391 69.76220703 29.81787109 C69.76518799 30.9392749 69.76816895 32.06067871 69.77124023 33.21606445 C69.20790863 37.86789064 66.98064577 41.30576069 63.39892578 44.29052734 C58.35135146 45.97305212 54.6160604 45.85712449 49.77392578 43.60302734 C48.66017578 43.16990234 47.54642578 42.73677734 46.39892578 42.29052734 C43.8965256 43.59170287 43.8965256 43.59170287 41.39892578 45.29052734 C36.00338804 46.18426672 33.01308429 45.11029088 28.39892578 42.29052734 C26.23225911 42.95719401 26.23225911 42.95719401 24.39892578 44.29052734 C19.35135146 45.97305212 15.6160604 45.85712449 10.77392578 43.60302734 C9.66017578 43.16990234 8.54642578 42.73677734 7.39892578 42.29052734 C4.8965256 43.59170287 4.8965256 43.59170287 2.39892578 45.29052734 C-2.38950464 45.82257517 -4.58624913 45.78836606 -8.91357422 43.66552734 C-12.63385502 40.37783733 -14.35316433 37.17074785 -15.00512695 32.22607422 C-15.03707854 28.74678393 -15.05895433 25.26996828 -15.03857422 21.79052734 C-15.05855469 20.58009766 -15.07853516 19.36966797 -15.09912109 18.12255859 C-15.09294852 6.90081661 -15.09294852 6.90081661 -10.60107422 2.29052734 C-7.11522133 0.02009213 -4.10402303 0.02649157 0 0 Z M-7.42944336 7.43725586 C-10.07781034 11.62641063 -9.06695984 17.43601777 -9.03857422 22.22802734 C-9.05855469 23.42105469 -9.07853516 24.61408203 -9.09912109 25.84326172 C-9.09847656 26.98988281 -9.09783203 28.13650391 -9.09716797 29.31787109 C-9.099021 30.3670874 -9.10087402 31.41630371 -9.1027832 32.49731445 C-8.47714669 35.98048103 -7.37353935 37.15397463 -4.60107422 39.29052734 C-1.60107422 40.04052734 -1.60107422 40.04052734 1.39892578 39.29052734 C4.13197222 36.60961238 5.30023213 34.97252167 5.85302734 31.15258789 C5.83208008 30.0057251 5.81113281 28.8588623 5.78955078 27.67724609 C5.77666016 26.43007813 5.76376953 25.18291016 5.75048828 23.89794922 C5.71697266 22.604375 5.68345703 21.31080078 5.64892578 19.97802734 C5.63087891 18.66511719 5.61283203 17.35220703 5.59423828 15.99951172 C5.54715364 12.76244246 5.4813962 9.52685682 5.39892578 6.29052734 C3.62884864 6.20938629 1.8577048 6.1512723 0.08642578 6.10302734 C-0.89970703 6.06822266 -1.88583984 6.03341797 -2.90185547 5.99755859 C-5.57532546 6.08890773 -5.57532546 6.08890773 -7.42944336 7.43725586 Z M30.39892578 6.29052734 C30.30694146 10.34805818 30.22735983 14.40292399 30.17919922 18.4609375 C30.15911936 19.84029415 30.13184913 21.21956604 30.09716797 22.59863281 C30.04849761 24.58409713 30.0280616 26.57018989 30.00830078 28.55615234 C29.98735352 29.75014648 29.96640625 30.94414062 29.94482422 32.17431641 C30.48937567 35.91122755 31.40724188 37.05790726 34.39892578 39.29052734 C37.39892578 40.04052734 37.39892578 40.04052734 40.39892578 39.29052734 C43.13197222 36.60961238 44.30023213 34.97252167 44.85302734 31.15258789 C44.83208008 30.0057251 44.81113281 28.8588623 44.78955078 27.67724609 C44.77666016 26.43007813 44.76376953 25.18291016 44.75048828 23.89794922 C44.71697266 22.604375 44.68345703 21.31080078 44.64892578 19.97802734 C44.63087891 18.66511719 44.61283203 17.35220703 44.59423828 15.99951172 C44.54715987 12.76287119 44.47541878 9.52660631 44.39892578 6.29052734 C39.77892578 6.29052734 35.15892578 6.29052734 30.39892578 6.29052734 Z " fill="#000000" transform="translate(18.60107421875,-0.29052734375)"/>
<path d="M0 0 C1.67542976 0.28604898 3.34385343 0.61781233 5 1 C5.04628524 9.44039195 5.08184969 17.88073111 5.10362434 26.32121849 C5.11407365 30.24023284 5.12825362 34.15916053 5.15087891 38.078125 C5.17256661 41.85823039 5.18455998 45.63825228 5.18975449 49.41841507 C5.19345759 50.86255839 5.2006886 52.306697 5.21146011 53.7508049 C5.22592017 55.76920894 5.22681645 57.78769652 5.22705078 59.80615234 C5.231492 60.95642914 5.23593323 62.10670593 5.24050903 63.2918396 C5 66 5 66 3 68 C-0.03264375 68.19893477 -2.97400566 68.27263074 -6.0078125 68.25878906 C-7.40794586 68.26404602 -7.40794586 68.26404602 -8.83636475 68.26940918 C-11.93265137 68.27823702 -15.02871091 68.27237361 -18.125 68.265625 C-20.26969446 68.26697135 -22.41438862 68.26891162 -24.55908203 68.27142334 C-29.05829773 68.27437603 -33.55743413 68.27007228 -38.05664062 68.26074219 C-43.83409945 68.24934761 -49.61137247 68.2559063 -55.38882446 68.26788712 C-59.81878061 68.27510179 -64.24869245 68.27281959 -68.6786499 68.26763153 C-70.80938743 68.26629395 -72.94012893 68.26794653 -75.07086182 68.27259064 C-78.04474601 68.2776494 -81.01832605 68.26995476 -83.9921875 68.25878906 C-84.87952576 68.26283752 -85.76686401 68.26688599 -86.68109131 68.27105713 C-92.7714724 68.2285276 -92.7714724 68.2285276 -95 66 C-94.625 63.875 -94.625 63.875 -94 62 C-91.69 62 -89.38 62 -87 62 C-87.01047363 60.82904785 -87.02094727 59.6580957 -87.03173828 58.45166016 C-87.06787497 54.11689295 -87.09087733 49.78213911 -87.10986328 45.44726562 C-87.11993534 43.56931318 -87.13359362 41.69137647 -87.15087891 39.81347656 C-87.17507453 37.1177991 -87.18647083 34.42232854 -87.1953125 31.7265625 C-87.20563507 30.88380768 -87.21595764 30.04105286 -87.22659302 29.17276001 C-87.22699144 27.11378753 -87.12257588 25.05532065 -87 23 C-85 21 -85 21 -82.87695312 20.75708008 C-81.59208008 20.76324341 -81.59208008 20.76324341 -80.28125 20.76953125 C-79.34925781 20.77146484 -78.41726562 20.77339844 -77.45703125 20.77539062 C-76.48121094 20.78763672 -75.50539063 20.79988281 -74.5 20.8125 C-73.52417969 20.81314453 -72.54835938 20.81378906 -71.54296875 20.81445312 C-64.28069196 20.85965402 -64.28069196 20.85965402 -62 22 C-62 35.2 -62 48.4 -62 62 C-41.87 62 -21.74 62 -1 62 C-1.0396122 41.96983527 -1.0396122 41.96983527 -1.09008789 21.93969727 C-1.09300677 19.44026736 -1.09555539 16.94083698 -1.09765625 14.44140625 C-1.10277222 13.12942261 -1.10788818 11.81743896 -1.11315918 10.46569824 C-1.11334045 8.60817932 -1.11334045 8.60817932 -1.11352539 6.71313477 C-1.115746 5.63169693 -1.11796661 4.55025909 -1.12025452 3.43605042 C-1 1 -1 1 0 0 Z " fill="#000000" transform="translate(95,32)"/>
<path d="M0 0 C0.75341675 0.00142502 1.5068335 0.00285004 2.28308105 0.00431824 C3.13736694 0.00124161 3.99165283 -0.00183502 4.87182617 -0.00500488 C5.795802 0.00218063 6.71977783 0.00936615 7.67175293 0.01676941 C8.61860962 0.01722763 9.56546631 0.01768585 10.54101562 0.01815796 C12.54505667 0.02118206 14.54909534 0.02907306 16.55310059 0.04142761 C19.62789194 0.05966337 22.70238195 0.06193747 25.77722168 0.06169128 C27.72123471 0.06660718 29.66524569 0.07243582 31.60925293 0.07926941 C32.99521667 0.08093864 32.99521667 0.08093864 34.40917969 0.0826416 C35.69060852 0.09221138 35.69060852 0.09221138 36.9979248 0.10197449 C38.12804993 0.10769218 38.12804993 0.10769218 39.28100586 0.11352539 C41.14050293 0.24723816 41.14050293 0.24723816 43.14050293 1.24723816 C43.14050293 12.13723816 43.14050293 23.02723816 43.14050293 34.24723816 C36.60766333 34.27014254 30.07496196 34.29007104 23.54211426 34.3021698 C21.31782561 34.30721133 19.0935403 34.31404439 16.8692627 34.32267761 C13.67971984 34.33475114 10.49022064 34.34046812 7.30065918 34.34489441 C5.79911034 34.35263634 5.79911034 34.35263634 4.26722717 34.36053467 C3.34634811 34.3606102 2.42546906 34.36068573 1.47668457 34.36076355 C0.66172012 34.36298416 -0.15324432 34.36520477 -0.99290466 34.36749268 C-2.85949707 34.24723816 -2.85949707 34.24723816 -3.85949707 33.24723816 C-4.07782696 28.84724871 -4.04528853 24.44189004 -4.0447998 20.03703308 C-4.04698458 17.82240034 -4.06513238 15.60826692 -4.08410645 13.39372253 C-4.08704063 11.99203154 -4.08902526 10.59033816 -4.08996582 9.18864441 C-4.09407471 7.90675232 -4.09818359 6.62486023 -4.10241699 5.30412292 C-3.84029673 2.00562266 -3.50140102 0.4655452 0 0 Z " fill="#000000" transform="translate(43.8594970703125,52.75276184082031)"/>
<path d="M0 0 C1.32 0 2.64 0 4 0 C5.26237731 2.52475462 5.09856404 4.31200466 5.0625 7.125 C5.05347656 8.03507812 5.04445313 8.94515625 5.03515625 9.8828125 C5.02355469 10.58148438 5.01195313 11.28015625 5 12 C3.125 13.0625 3.125 13.0625 1 14 C0.34 13.67 -0.32 13.34 -1 13 C-1.02686553 11.02090602 -1.04633375 9.04171029 -1.0625 7.0625 C-1.07410156 5.96035156 -1.08570312 4.85820312 -1.09765625 3.72265625 C-1 1 -1 1 0 0 Z " fill="#000000" transform="translate(95,8)"/>
</svg>
