<?xml version="1.0" encoding="UTF-8"?>
<svg version="1.1" xmlns="http://www.w3.org/2000/svg" width="50" height="50">
<path d="M0 0 C1.8125 0.8125 1.8125 0.8125 2.8125 1.8125 C5.77067107 2.06255386 5.77067107 2.06255386 8.8125 1.8125 C9.4725 1.1525 10.1325 0.4925 10.8125 -0.1875 C13.81392056 -0.08745265 14.77924824 0.7783699 16.8828125 2.9375 C19.17952574 6.35932378 19.45814852 8.67052861 19.8125 12.75 C20.62498546 19.67788943 21.90692529 22.90692529 26.8125 27.8125 C26.9375 30.4375 26.9375 30.4375 26.8125 32.8125 C20.04789937 36.61758786 13.42628492 36.25843588 5.8125 36.1875 C4.56726563 36.19910156 3.32203125 36.21070313 2.0390625 36.22265625 C-4.44262618 36.2019259 -9.4874778 36.01876249 -15.1875 32.8125 C-15.5 30.6875 -15.5 30.6875 -15.1875 27.8125 C-13.94178487 26.40287498 -12.69386637 24.99500428 -11.42578125 23.60546875 C-9.02622052 20.13102593 -8.81328619 15.90855503 -8.1875 11.8125 C-7.46135419 7.8492369 -6.73738947 4.56401562 -4.3125 1.25 C-2.1875 -0.1875 -2.1875 -0.1875 0 0 Z " fill="#000000" transform="translate(19.1875,6.1875)"/>
<path d="M0 0 C3.96 0 7.92 0 12 0 C12 1.65 12 3.3 12 5 C10 7 10 7 8.125 7.265625 C7.42375 7.26046875 6.7225 7.2553125 6 7.25 C5.29875 7.25515625 4.5975 7.2603125 3.875 7.265625 C2 7 2 7 0 5 C0 3.35 0 1.7 0 0 Z " fill="#000000" transform="translate(19,43)"/>
<path d="M0 0 C3 0.125 3 0.125 4 1.125 C4.125 4.125 4.125 4.125 4 7.125 C3 8.125 3 8.125 0 8.25 C-3 8.125 -3 8.125 -4 7.125 C-4.125 4.125 -4.125 4.125 -4 1.125 C-3 0.125 -3 0.125 0 0 Z " fill="#000000" transform="translate(25,-0.125)"/>
</svg>
