<?xml version="1.0" encoding="UTF-8"?>
<svg version="1.1" xmlns="http://www.w3.org/2000/svg" width="100" height="100">
<path d="M0 0 C5.28 0 10.56 0 16 0 C16.99 4.29 17.98 8.58 19 13 C22.86156579 14.15025364 24.81011881 14.6118851 28.46875 12.73046875 C30.70571465 11.21910181 32.87394816 9.66323784 35 8 C36.1055189 8.93590504 37.20935453 9.87379858 38.3125 10.8125 C39.23482422 11.59560547 39.23482422 11.59560547 40.17578125 12.39453125 C40.77777344 12.92433594 41.37976563 13.45414063 42 14 C42.57234375 14.50144531 43.1446875 15.00289062 43.734375 15.51953125 C45 17 45 17 44.9375 19.875 C44 23 44 23 41.875 25.4375 C39.58934676 27.98583237 39.58934676 27.98583237 40.25 31.8125 C40.62125 33.3903125 40.62125 33.3903125 41 35 C47.435 36.485 47.435 36.485 54 38 C54 43.28 54 48.56 54 54 C49.71 54.99 45.42 55.98 41 57 C40.22625381 59.65284409 39.77234371 61.29341963 40 64 C41.67425097 66.96213633 43.73356535 69.47079032 46 72 C43.93580476 76.56349046 41.04743878 80.0363942 37 83 C32.98567998 83.2408592 31.5781543 82.50403195 28.5625 79.875 C26.01416763 77.58934676 26.01416763 77.58934676 22.1875 78.25 C20.6096875 78.62125 20.6096875 78.62125 19 79 C17.515 85.435 17.515 85.435 16 92 C10.72 92 5.44 92 0 92 C-0.99 87.71 -1.98 83.42 -3 79 C-6.17004783 78.04414199 -6.17004783 78.04414199 -10 78 C-11.9660452 79.15136262 -13.549033 80.4303327 -15.2265625 81.96875 C-17 83 -17 83 -19.44140625 82.91015625 C-22.5600876 81.80076273 -24.05933618 80.34342069 -26.3125 77.9375 C-27.35857422 76.83728516 -27.35857422 76.83728516 -28.42578125 75.71484375 C-28.94527344 75.14894531 -29.46476562 74.58304687 -30 74 C-28.87621553 70.93883145 -28.05232885 69.05681418 -25.8125 66.625 C-23.60339864 64.00651359 -23.60339864 64.00651359 -24.25 60.1875 C-24.4975 59.135625 -24.745 58.08375 -25 57 C-31.435 55.515 -31.435 55.515 -38 54 C-38 48.72 -38 43.44 -38 38 C-33.71 37.01 -29.42 36.02 -25 35 C-23.73151145 30.4779152 -23.73151145 30.4779152 -25.046875 26.15234375 C-25.97003837 24.97245798 -26.89839784 23.7966184 -27.83203125 22.625 C-29 21 -29 21 -29.625 18.375 C-28.70552056 14.88097813 -26.72656575 13.27213813 -24 11 C-23.34 11 -22.68 11 -22 11 C-22 10.34 -22 9.68 -22 9 C-21.01 8.67 -20.02 8.34 -19 8 C-16.984375 9.25 -16.984375 9.25 -14.75 11 C-11.62937512 13.21661407 -9.79495426 14.48779314 -5.9375 13.875 C-4.968125 13.58625 -3.99875 13.2975 -3 13 C-2.01 8.71 -1.02 4.42 0 0 Z M5 4 C4.566875 5.546875 4.566875 5.546875 4.125 7.125 C3.84076172 8.08019531 3.84076172 8.08019531 3.55078125 9.0546875 C3.06579041 10.76763387 2.6809445 12.50826235 2.3125 14.25 C1 17 1 17 -2.25 18.9375 C-6.21572422 20.06112186 -8.11280316 20.26756419 -12 19 C-12.86625 18.29875 -13.7325 17.5975 -14.625 16.875 C-16.78183357 14.77408802 -16.78183357 14.77408802 -19.1875 15 C-21.58589576 16.32325283 -22.13290284 17.42176961 -23 20 C-22.10879175 22.04993231 -22.10879175 22.04993231 -20.5625 23.9375 C-18 27.72190054 -18 27.72190054 -18 30.5625 C-18.33 31.366875 -18.66 32.17125 -19 33 C-19.28875 34.216875 -19.5775 35.43375 -19.875 36.6875 C-22 40 -22 40 -24.64453125 40.890625 C-27.43220302 41.39161864 -30.17818126 41.76524768 -33 42 C-33 44.31 -33 46.62 -33 49 C-31.700625 49.433125 -31.700625 49.433125 -30.375 49.875 C-29.26125 50.24625 -28.1475 50.6175 -27 51 C-25.948125 51.20625 -24.89625 51.4125 -23.8125 51.625 C-20.65869602 53.16685972 -20.34664151 53.70137534 -19.0625 56.8125 C-18.02516878 60.23322319 -17.62129562 62.59919585 -19 66 C-20.051875 67.2684375 -20.051875 67.2684375 -21.125 68.5625 C-23.22229038 70.77643939 -23.22229038 70.77643939 -23 73.1875 C-21.67674717 75.58589576 -20.57823039 76.13290284 -18 77 C-15.95006769 76.10879175 -15.95006769 76.10879175 -14.0625 74.5625 C-10.27809946 72 -10.27809946 72 -7.4375 72 C-6.633125 72.33 -5.82875 72.66 -5 73 C-3.783125 73.28875 -2.56625 73.5775 -1.3125 73.875 C2 76 2 76 2.85546875 78.609375 C3.19802238 80.59773141 3.48466048 82.59664282 3.7109375 84.6015625 C3.74349899 86.94930483 3.74349899 86.94930483 5 88 C6.99958364 88.04080783 9.00045254 88.04254356 11 88 C11.12375 87.18015625 11.2475 86.3603125 11.375 85.515625 C13.01211106 76.96171969 13.01211106 76.96171969 15.76953125 74.27734375 C19.01123765 72.54802045 21.44433938 72 25.125 72 C28.51901474 73.18052686 31.11742491 74.87238505 34 77 C36.0162233 76.28436734 36.0162233 76.28436734 38 75 C38.88980717 73.13936924 38.88980717 73.13936924 39 71 C37.99811377 69.22186396 37.99811377 69.22186396 36.5 67.625 C33.99249213 64.36037757 33.99249213 64.36037757 34.0625 61 C34.5265625 59.515 34.5265625 59.515 35 58 C35.35549971 56.70869958 35.70965679 55.41702882 36.0625 54.125 C36.5265625 52.578125 36.5265625 52.578125 37 51 C38.17369141 50.90912109 38.17369141 50.90912109 39.37109375 50.81640625 C40.38300781 50.73261719 41.39492187 50.64882813 42.4375 50.5625 C43.44683594 50.48128906 44.45617187 50.40007813 45.49609375 50.31640625 C47.93640779 50.26788532 47.93640779 50.26788532 49 49 C49.04092937 46.66702567 49.04241723 44.33294775 49 42 C48.25234375 41.9484375 47.5046875 41.896875 46.734375 41.84375 C38.91740142 40.94336561 38.91740142 40.94336561 36.34375 38.296875 C34.60212492 35.03754806 34 32.57950555 34 28.875 C35.18052686 25.48098526 36.87238505 22.88257509 39 20 C38.28436734 17.9837767 38.28436734 17.9837767 37 16 C35.13936924 15.11019283 35.13936924 15.11019283 33 15 C31.22186396 16.00188623 31.22186396 16.00188623 29.625 17.5 C26.36805556 20 26.36805556 20 22.9375 20 C21.968125 19.67 20.99875 19.34 20 19 C18.948125 18.731875 17.89625 18.46375 16.8125 18.1875 C12.25743168 14.64466909 11.97039976 9.4904197 11 4 C9.02 4 7.04 4 5 4 Z " fill="#000000" transform="translate(42,4)"/>
<path d="M0 0 C4.8846525 2.26787438 7.73212562 5.1153475 10 10 C10.75381535 15.5997712 10.77303575 20.33499991 8.375 25.5 C3.80134327 30.3143755 0.6912538 32.25156236 -6 32.5 C-12.6912538 32.25156236 -15.80134327 30.3143755 -20.375 25.5 C-22.77303575 20.33499991 -22.75381535 15.5997712 -22 10 C-17.52212837 0.3553534 -9.85292056 -1.32635469 0 0 Z M-16 10 C-17.61429923 13.22859847 -17.59570657 16.50993653 -17 20 C-15.26397895 23.02508145 -13.16419863 25.41790069 -10 27 C-4.87629602 27.60728845 -4.87629602 27.60728845 -0.17578125 25.953125 C3.62752744 22.82207185 4.88663367 21.13366332 5.375 16.25 C5.35058775 12.89941932 4.75601354 11.15105468 2.625 8.5625 C-0.9048586 5.11668565 -2.9283652 4.60444164 -7.89453125 4.640625 C-11.61593453 5.27581814 -13.40312849 7.33979016 -16 10 Z " fill="#000000" transform="translate(56,34)"/>
</svg>
