<?xml version="1.0" encoding="UTF-8"?>
<svg version="1.1" xmlns="http://www.w3.org/2000/svg" width="100" height="100">
<path d="M0 0 C5.28 0 10.56 0 16 0 C16.99 4.29 17.98 8.58 19 13 C22.86156579 14.15025364 24.81011881 14.6118851 28.46875 12.73046875 C30.70571465 11.21910181 32.87394816 9.66323784 35 8 C36.1055189 8.93590504 37.20935453 9.87379858 38.3125 10.8125 C39.23482422 11.59560547 39.23482422 11.59560547 40.17578125 12.39453125 C40.77777344 12.92433594 41.37976563 13.45414063 42 14 C42.57234375 14.50144531 43.1446875 15.00289062 43.734375 15.51953125 C45 17 45 17 44.9375 19.875 C44 23 44 23 41.875 25.4375 C39.58934676 27.98583237 39.58934676 27.98583237 40.25 31.8125 C40.62125 33.3903125 40.62125 33.3903125 41 35 C47.435 36.485 47.435 36.485 54 38 C54 43.28 54 48.56 54 54 C49.71 54.99 45.42 55.98 41 57 C40.22625381 59.65284409 39.77234371 61.29341963 40 64 C41.67425097 66.96213633 43.73356535 69.47079032 46 72 C43.93580476 76.56349046 41.04743878 80.0363942 37 83 C32.98567998 83.2408592 31.5781543 82.50403195 28.5625 79.875 C26.01416763 77.58934676 26.01416763 77.58934676 22.1875 78.25 C20.6096875 78.62125 20.6096875 78.62125 19 79 C17.515 85.435 17.515 85.435 16 92 C10.72 92 5.44 92 0 92 C-0.66 87.71 -1.32 83.42 -2 79 C-7.1014817 77.65645674 -7.1014817 77.65645674 -11.9140625 79.08203125 C-13.69105764 80.46592035 -13.69105764 80.46592035 -15.26171875 81.96875 C-17 83 -17 83 -19.4375 82.91015625 C-22.55932496 81.80133732 -24.05750605 80.34537489 -26.3125 77.9375 C-27.35857422 76.83728516 -27.35857422 76.83728516 -28.42578125 75.71484375 C-28.94527344 75.14894531 -29.46476562 74.58304687 -30 74 C-28.87873726 70.940627 -28.08303204 69.08777673 -25.8125 66.6875 C-23.79423102 63.69489427 -23.81147368 63.09959522 -24.25 59.6875 C-24.4975 58.470625 -24.745 57.25375 -25 56 C-29.29 55.34 -33.58 54.68 -38 54 C-38 48.72 -38 43.44 -38 38 C-33.71 37.34 -29.42 36.68 -25 36 C-23.65645674 30.8985183 -23.65645674 30.8985183 -25.08203125 26.0859375 C-26.46592035 24.30894236 -26.46592035 24.30894236 -27.96875 22.73828125 C-29 21 -29 21 -28.91015625 18.5625 C-27.80133732 15.44067504 -26.34537489 13.94249395 -23.9375 11.6875 C-23.20402344 10.99011719 -22.47054688 10.29273438 -21.71484375 9.57421875 C-20.86599609 8.79498047 -20.86599609 8.79498047 -20 8 C-18.70590711 8.61996078 -17.41480327 9.24616353 -16.125 9.875 C-15.40570312 10.22304687 -14.68640625 10.57109375 -13.9453125 10.9296875 C-12 12 -12 12 -10 14 C-8.0068433 14.02375926 -8.0068433 14.02375926 -5.875 13.625 C-4.59625 13.41875 -3.3175 13.2125 -2 13 C-1.34 8.71 -0.68 4.42 0 0 Z M-4 39 C-5.87855086 42.75710172 -5.66379578 46.91978738 -5 51 C-2.99988833 54.43403788 -0.57648506 57.21175747 3 59 C7.30212445 59.62133059 11.33395487 59.97036679 15.1796875 57.73046875 C18.25924341 55.10454037 20.70922689 53.01332773 21.30859375 48.86328125 C21.55928861 43.90256166 21.42919359 40.81249103 18.125 36.9375 C14.98123549 33.71020551 12.81630798 32.79010439 8.3125 32.5625 C2.60897053 32.58729795 -0.38333025 34.73078127 -4 39 Z " fill="#000000" transform="translate(42,4)"/>
</svg>
