<?xml version="1.0" encoding="UTF-8"?>
<svg version="1.1" xmlns="http://www.w3.org/2000/svg" width="100" height="100">
<path d="M0 0 C5.98219433 1.68233614 9.83205304 4.83899447 13.3092804 9.9306488 C14.70171606 12.58290722 15.35012808 14.22426847 15.17701721 17.21788025 C14.0025231 20.88965104 11.75200288 23.14083057 9.11299133 25.83494568 C8.57111679 26.40310501 8.02924225 26.97126434 7.47094727 27.55664062 C5.67366526 29.43272147 3.86070432 31.29246584 2.0436554 33.1493988 C1.41986244 33.78949387 0.79606949 34.42958893 0.15337372 35.08908081 C-3.15907702 38.48497466 -6.48449998 41.86757051 -9.82011414 45.2407074 C-12.55568397 48.01152379 -15.26533141 50.80415945 -17.9539032 53.62059021 C-45.41567253 82.36164858 -45.41567253 82.36164858 -61.88505554 83.87400818 C-64.15343757 83.90776906 -66.42208635 83.9306488 -68.6907196 83.9306488 C-66.58814707 66.39995625 -63.07476824 57.47096984 -50.42118835 45.20799255 C-49.096413 43.88529685 -47.77371989 42.56051269 -46.45300293 41.23376465 C-43.69999144 38.4811093 -40.92776161 35.75004931 -38.13871765 33.03392029 C-34.56643886 29.55302037 -31.0408525 26.02884219 -27.52747631 22.48860836 C-24.81026854 19.75804637 -22.07352644 17.0477978 -19.33002663 14.34367561 C-18.02140384 13.05042383 -16.71810067 11.75176579 -15.42032433 10.44762993 C-13.60902206 8.63484431 -11.77395862 6.85022895 -9.92973328 5.07102966 C-9.40014008 4.53152679 -8.87054688 3.99202393 -8.3249054 3.43617249 C-5.40114274 0.6752929 -4.08318397 -0.07672588 0 0 Z M-2.1985321 9.2431488 C-2.73220398 9.8000238 -3.26587585 10.3568988 -3.8157196 10.9306488 C-4.35454773 11.4875238 -4.89337585 12.0443988 -5.4485321 12.6181488 C-5.85845398 13.0512738 -6.26837585 13.4843988 -6.6907196 13.9306488 C-5.24818303 17.29656747 -3.35807233 19.44111959 -0.6907196 21.9306488 C2.67519906 20.48811223 4.81975118 18.59800153 7.3092804 15.9306488 C6.04810314 12.04201893 4.85663872 10.03689281 1.3092804 7.9306488 C-0.77246972 7.71179359 -0.77246972 7.71179359 -2.1985321 9.2431488 Z M-17.94096375 24.82688904 C-18.81849808 25.6787529 -19.69603241 26.53061676 -20.60015869 27.40829468 C-21.55943366 28.35122975 -22.5179884 29.294898 -23.47587585 30.23924255 C-24.19940152 30.95054164 -24.19940152 30.95054164 -24.93754387 31.6762104 C-27.49289137 34.18979845 -30.0415946 36.70992208 -32.585495 39.23509216 C-35.20720919 41.83474198 -37.85138491 44.41021006 -40.50154972 46.98080349 C-42.54048672 48.96726491 -44.56127272 50.97147339 -46.57771111 52.98074532 C-47.54420585 53.93753484 -48.51741641 54.88759211 -49.49749947 55.83045769 C-56.02305135 61.91101902 -56.02305135 61.91101902 -58.79399109 70.08714294 C-58.7599115 71.35549988 -58.72583191 72.62385681 -58.6907196 73.9306488 C-52.3677607 74.10777037 -49.30669089 73.10041018 -44.62992859 68.77806091 C-42.79174131 66.93861178 -40.98302511 65.08685508 -39.18681335 63.20799255 C-38.21495162 62.22118854 -37.24129249 61.23615179 -36.26593018 60.25280762 C-33.7177788 57.67427822 -31.1945803 55.07264248 -28.67601013 52.46525574 C-26.09608376 49.80312658 -23.49303015 47.16382288 -20.89189148 44.52244568 C-15.80206262 39.34711464 -10.73840493 34.14712776 -5.6907196 28.9306488 C-7.2544946 25.60762694 -8.90425111 23.36880873 -11.6907196 20.9306488 C-14.75502803 20.9306488 -15.77772117 22.7186593 -17.94096375 24.82688904 Z " fill="#000000" transform="translate(76.69071960449219,8.069351196289063)"/>
</svg>
