<?xml version="1.0" encoding="UTF-8"?>
<svg version="1.1" xmlns="http://www.w3.org/2000/svg" width="100" height="100">
<path d="M0 0 C3.02964396 1.98906943 5.43464398 4.45648406 7.9375 7.0625 C8.96327148 8.04766602 8.96327148 8.04766602 10.00976562 9.05273438 C13.23449709 12.32256698 14.85358026 14.12784761 15.62890625 18.74609375 C14.96842849 22.16334827 14.38384242 23.53102035 12 26 C11.04480469 26.99193359 11.04480469 26.99193359 10.0703125 28.00390625 C9.38710937 28.66261719 8.70390625 29.32132813 8 30 C7.31679687 30.66902344 6.63359375 31.33804688 5.9296875 32.02734375 C-0.25439343 37.77642279 -0.25439343 37.77642279 -5 38 C-9.4803075 36.01276683 -12.80594954 32.59356461 -16.25 29.1875 C-16.79140625 28.67896484 -17.3328125 28.17042969 -17.890625 27.64648438 C-21.27979506 24.30391541 -22.89539669 21.97214382 -23 17 C-18.85945038 8.3245627 -10.04990655 -1.30821185 0 0 Z " fill="#000000" transform="translate(72,13)"/>
<path d="M0 0 C0.93714844 -0.02384766 1.87429687 -0.04769531 2.83984375 -0.07226562 C7.20834595 -0.06297094 9.82797496 0.15793924 13.62109375 2.44140625 C16.35166132 6.97721392 16.19475194 10.86535608 16.0625 16.0625 C16.07345703 16.99964844 16.08441406 17.93679687 16.09570312 18.90234375 C16.05295856 22.92033333 15.75372901 25.96092884 14.18359375 29.68359375 C9.77852501 32.76778307 5.23616871 32.24444405 0 32.125 C-1.04542969 32.13595703 -2.09085938 32.14691406 -3.16796875 32.15820312 C-10.79700467 32.08494094 -10.79700467 32.08494094 -13.79467773 29.85717773 C-16.87436824 25.71315324 -16.11475208 21.0479634 -16.0625 16.0625 C-16.08634766 15.01707031 -16.11019531 13.97164062 -16.13476562 12.89453125 C-16.12046504 5.44869435 -16.12046504 5.44869435 -13.62109375 1.87890625 C-9.05521907 -0.04687569 -4.90880677 -0.0573932 0 0 Z " fill="#000000" transform="translate(28.5,55.4375)"/>
<path d="M0 0 C1.44246094 -0.00580078 1.44246094 -0.00580078 2.9140625 -0.01171875 C4.41066406 0.00568359 4.41066406 0.00568359 5.9375 0.0234375 C6.93523437 0.01183594 7.93296875 0.00023437 8.9609375 -0.01171875 C9.92257813 -0.00785156 10.88421875 -0.00398438 11.875 0 C13.18791016 0.00507568 13.18791016 0.00507568 14.52734375 0.01025391 C17.52529267 0.49310832 18.8577791 1.18042389 20.9375 3.3984375 C21.43920898 5.98632812 21.43920898 5.98632812 21.43359375 9.0546875 C21.43423828 10.15941406 21.43488281 11.26414062 21.43554688 12.40234375 C21.41556641 13.55605469 21.39558594 14.70976563 21.375 15.8984375 C21.38208984 17.05214844 21.38917969 18.20585938 21.39648438 19.39453125 C21.33281132 27.7895784 21.33281132 27.7895784 19.75024414 30.22705078 C17.25641544 31.83855113 15.45809202 31.78656293 12.5 31.796875 C11.44039062 31.80074219 10.38078125 31.80460937 9.2890625 31.80859375 C8.18304688 31.79699219 7.07703125 31.78539063 5.9375 31.7734375 C4.83148438 31.78503906 3.72546875 31.79664062 2.5859375 31.80859375 C1.52632812 31.80472656 0.46671875 31.80085938 -0.625 31.796875 C-1.59566406 31.79349121 -2.56632812 31.79010742 -3.56640625 31.78662109 C-6.0625 31.3984375 -6.0625 31.3984375 -7.87524414 30.22705078 C-10.50778107 26.1724134 -9.52869761 20.56832201 -9.5 15.8984375 C-9.51998047 14.74472656 -9.53996094 13.59101562 -9.56054688 12.40234375 C-9.55990234 11.29761719 -9.55925781 10.19289063 -9.55859375 9.0546875 C-9.56044678 8.04212891 -9.5622998 7.02957031 -9.56420898 5.98632812 C-9.0625 3.3984375 -9.0625 3.3984375 -7.34790039 1.56982422 C-4.69507462 0.21011286 -2.97165661 0.01148836 0 0 Z " fill="#000000" transform="translate(59.0625,55.6015625)"/>
<path d="M0 0 C1.15371094 -0.01998047 2.30742187 -0.03996094 3.49609375 -0.06054688 C5.15318359 -0.05958008 5.15318359 -0.05958008 6.84375 -0.05859375 C7.85630859 -0.06044678 8.86886719 -0.0622998 9.91210938 -0.06420898 C12.5 0.4375 12.5 0.4375 14.32861328 2.15209961 C15.68832464 4.80492538 15.88694914 6.52834339 15.8984375 9.5 C15.90423828 10.94246094 15.90423828 10.94246094 15.91015625 12.4140625 C15.89855469 13.41179688 15.88695313 14.40953125 15.875 15.4375 C15.88660156 16.43523438 15.89820312 17.43296875 15.91015625 18.4609375 C15.90628906 19.42257813 15.90242188 20.38421875 15.8984375 21.375 C15.89505371 22.25027344 15.89166992 23.12554687 15.88818359 24.02734375 C15.40532918 27.02529267 14.71801361 28.3577791 12.5 30.4375 C9.91210938 30.93920898 9.91210938 30.93920898 6.84375 30.93359375 C5.73902344 30.93423828 4.63429688 30.93488281 3.49609375 30.93554688 C1.76552734 30.90557617 1.76552734 30.90557617 0 30.875 C-1.15371094 30.88208984 -2.30742187 30.88917969 -3.49609375 30.89648438 C-11.8911409 30.83281132 -11.8911409 30.83281132 -14.32861328 29.25024414 C-15.94011363 26.75641544 -15.88812543 24.95809202 -15.8984375 22 C-15.90230469 20.94039062 -15.90617188 19.88078125 -15.91015625 18.7890625 C-15.89855469 17.68304688 -15.88695312 16.57703125 -15.875 15.4375 C-15.88660156 14.33148438 -15.89820313 13.22546875 -15.91015625 12.0859375 C-15.90628906 11.02632812 -15.90242187 9.96671875 -15.8984375 8.875 C-15.89505371 7.90433594 -15.89166992 6.93367188 -15.88818359 5.93359375 C-15.5 3.4375 -15.5 3.4375 -14.32861328 1.62475586 C-10.2739759 -1.00778107 -4.66988451 -0.02869761 0 0 Z " fill="#000000" transform="translate(28.5,19.5625)"/>
</svg>
