<?xml version="1.0" encoding="UTF-8"?>
<svg version="1.1" xmlns="http://www.w3.org/2000/svg" width="100" height="100">
<path d="M0 0 C2.90583684 2.09078504 5.43755714 4.50667891 8 7 C8.65871094 7.62003906 9.31742188 8.24007813 9.99609375 8.87890625 C16.93259481 15.55582931 16.93259481 15.55582931 17.08984375 21.2578125 C15.5569671 26.52123841 12.49852796 29.19701265 8.5625 32.875 C7.86833984 33.55046875 7.17417969 34.2259375 6.45898438 34.921875 C0.42878546 40.73608421 0.42878546 40.73608421 -4.06640625 41.56640625 C-10.03499063 40.70697752 -12.85914114 37.16263785 -16.9375 32.9375 C-17.71673828 32.18533203 -18.49597656 31.43316406 -19.29882812 30.65820312 C-24.80455952 25.08491674 -24.80455952 25.08491674 -25.6875 20.18359375 C-24.97320973 16.87594277 -24.3984491 15.50862153 -22.0625 13.125 C-21.42957031 12.46628906 -20.79664063 11.80757812 -20.14453125 11.12890625 C-19.08298828 10.07509766 -19.08298828 10.07509766 -18 9 C-17.22011719 8.18402344 -16.44023438 7.36804687 -15.63671875 6.52734375 C-7.20895468 -2.17628821 -7.20895468 -2.17628821 0 0 Z M-6.42041016 8.19335938 C-7.22164307 9.01030273 -7.22164307 9.01030273 -8.0390625 9.84375 C-8.61914062 10.43027344 -9.19921875 11.01679688 -9.796875 11.62109375 C-10.40015625 12.24113281 -11.0034375 12.86117188 -11.625 13.5 C-12.23601563 14.12003906 -12.84703125 14.74007813 -13.4765625 15.37890625 C-14.98887719 16.91485086 -16.49502114 18.45686675 -18 20 C-13.88380164 24.91935902 -9.59589638 29.52647956 -5 34 C-0.08064098 29.88380164 4.52647956 25.59589638 9 21 C7.41438362 17.14406926 4.93490046 14.66783709 2 11.75 C1.113125 10.85796875 0.22625 9.9659375 -0.6875 9.046875 C-3.48497882 6.47194094 -3.48497882 6.47194094 -6.42041016 8.19335938 Z " fill="#000000" transform="translate(75,11)"/>
<path d="M0 0 C1.0415625 -0.02900391 2.083125 -0.05800781 3.15625 -0.08789062 C4.16429688 -0.09626953 5.17234375 -0.10464844 6.2109375 -0.11328125 C7.1292334 -0.12786377 8.0475293 -0.14244629 8.99365234 -0.1574707 C12.55930465 0.47937108 14.16494522 1.67161508 16.625 4.3125 C17.24023438 7.19750977 17.24023438 7.19750977 17.21875 10.50390625 C17.21617188 11.69564453 17.21359375 12.88738281 17.2109375 14.11523438 C17.16839844 15.97631836 17.16839844 15.97631836 17.125 17.875 C17.12886719 19.74188477 17.12886719 19.74188477 17.1328125 21.64648438 C17.03443944 30.73123665 17.03443944 30.73123665 15.34570312 33.12866211 C10.79909966 36.25670981 5.04344982 35.53194618 -0.25 35.5625 C-1.13558594 35.583125 -2.02117188 35.60375 -2.93359375 35.625 C-8.16517456 35.65618677 -11.87205223 35.29515994 -16.375 32.3125 C-18.48168827 28.09912345 -17.6043798 22.56673467 -17.625 17.9375 C-17.645625 16.78765625 -17.66625 15.6378125 -17.6875 14.453125 C-17.69265625 13.34710938 -17.6978125 12.24109375 -17.703125 11.1015625 C-17.7124707 10.08787598 -17.72181641 9.07418945 -17.73144531 8.02978516 C-17.31989287 4.8924025 -16.57500719 3.55697131 -14.375 1.3125 C-9.67077569 -0.25557477 -4.92755019 0.04540126 0 0 Z M-10.375 8.3125 C-10.46151611 9.72820123 -10.48204904 11.148095 -10.47265625 12.56640625 C-10.47015869 13.3354126 -10.46766113 14.10441895 -10.46508789 14.89672852 C-10.45598389 15.87955811 -10.44687988 16.8623877 -10.4375 17.875 C-10.416875 20.989375 -10.39625 24.10375 -10.375 27.3125 C-3.775 27.3125 2.825 27.3125 9.625 27.3125 C9.645625 24.198125 9.66625 21.08375 9.6875 17.875 C9.696604 16.89217041 9.70570801 15.90934082 9.71508789 14.89672852 C9.71758545 14.12772217 9.72008301 13.35871582 9.72265625 12.56640625 C9.72789307 11.77564697 9.73312988 10.9848877 9.73852539 10.17016602 C9.82995909 8.29657311 9.82995909 8.29657311 8.625 7.3125 C7.29456375 7.2141279 5.95906656 7.18171408 4.625 7.1796875 C3.820625 7.17839844 3.01625 7.17710938 2.1875 7.17578125 C1.341875 7.17964844 0.49625 7.18351562 -0.375 7.1875 C-1.220625 7.18363281 -2.06625 7.17976563 -2.9375 7.17578125 C-3.741875 7.17707031 -4.54625 7.17835937 -5.375 7.1796875 C-6.48875 7.18137939 -6.48875 7.18137939 -7.625 7.18310547 C-9.40325811 7.12307784 -9.40325811 7.12307784 -10.375 8.3125 Z " fill="#000000" transform="translate(29.375,17.6875)"/>
<path d="M0 0 C1.18851563 -0.02835938 2.37703125 -0.05671875 3.6015625 -0.0859375 C4.74367188 -0.08851562 5.88578125 -0.09109375 7.0625 -0.09375 C8.10535156 -0.10083984 9.14820313 -0.10792969 10.22265625 -0.11523438 C13 0.5 13 0.5 15.33569336 2.68945312 C18.14785178 7.43839954 17.61719831 12.10739011 17.5625 17.5 C17.59827148 19.12035156 17.59827148 19.12035156 17.63476562 20.7734375 C17.62619283 25.40274509 17.4842817 28.61034857 15.25 32.71484375 C10.12068208 35.53226958 5.18917921 35.18362244 -0.5625 35.0625 C-1.69880859 35.07345703 -2.83511719 35.08441406 -4.00585938 35.09570312 C-12.26382182 35.02262381 -12.26382182 35.02262381 -15.32202148 32.8515625 C-17.47661037 29.8320659 -17.51599035 27.9989766 -17.53125 24.30859375 C-17.53640625 23.11685547 -17.5415625 21.92511719 -17.546875 20.69726562 C-17.53140625 19.45654297 -17.5159375 18.21582031 -17.5 16.9375 C-17.51546875 15.69291016 -17.5309375 14.44832031 -17.546875 13.16601562 C-17.54171875 11.97556641 -17.5365625 10.78511719 -17.53125 9.55859375 C-17.52448242 7.92361938 -17.52448242 7.92361938 -17.51757812 6.25561523 C-17 3.5 -17 3.5 -15.33789062 1.65063477 C-10.58906961 -0.6865826 -5.18799687 -0.01125379 0 0 Z M-10 7.5 C-10 14.1 -10 20.7 -10 27.5 C-5.3284375 27.5309375 -5.3284375 27.5309375 -0.5625 27.5625 C0.42032959 27.571604 1.40315918 27.58070801 2.41577148 27.59008789 C3.18477783 27.59258545 3.95378418 27.59508301 4.74609375 27.59765625 C5.53685303 27.60289307 6.3276123 27.60812988 7.14233398 27.61352539 C9.01592689 27.70495909 9.01592689 27.70495909 10 26.5 C10.0983721 25.16956375 10.13078592 23.83406656 10.1328125 22.5 C10.13410156 21.695625 10.13539062 20.89125 10.13671875 20.0625 C10.13091797 18.7940625 10.13091797 18.7940625 10.125 17.5 C10.12886719 16.654375 10.13273437 15.80875 10.13671875 14.9375 C10.13478516 13.7309375 10.13478516 13.7309375 10.1328125 12.5 C10.13168457 11.7575 10.13055664 11.015 10.12939453 10.25 C10.18942216 8.47174189 10.18942216 8.47174189 9 7.5 C7.58429877 7.41348389 6.164405 7.39295096 4.74609375 7.40234375 C3.9770874 7.40484131 3.20808105 7.40733887 2.41577148 7.40991211 C1.43294189 7.41901611 0.4501123 7.42812012 -0.5625 7.4375 C-3.676875 7.458125 -6.79125 7.47875 -10 7.5 Z " fill="#000000" transform="translate(67,55.5)"/>
<path d="M0 0 C1.71316406 -0.00290039 1.71316406 -0.00290039 3.4609375 -0.00585938 C5.24371094 0.02991211 5.24371094 0.02991211 7.0625 0.06640625 C8.84527344 0.0499707 8.84527344 0.0499707 10.6640625 0.03320312 C19.32873343 0.10654966 19.32873343 0.10654966 22.40039062 2.29321289 C24.4973838 5.24003041 24.57818657 6.96902993 24.59375 10.56640625 C24.60148437 12.27957031 24.60148437 12.27957031 24.609375 14.02734375 C24.59390625 15.21585938 24.5784375 16.404375 24.5625 17.62890625 C24.57796875 18.81742188 24.5934375 20.0059375 24.609375 21.23046875 C24.60421875 22.37257813 24.5990625 23.5146875 24.59375 24.69140625 C24.58923828 25.73425781 24.58472656 26.77710938 24.58007812 27.8515625 C23.92214068 31.38207964 22.96695619 32.5471401 20.0625 34.62890625 C15.95611524 35.44943215 11.80423603 35.23170518 7.625 35.19140625 C5.92633789 35.22717773 5.92633789 35.22717773 4.19335938 35.26367188 C-0.58431775 35.25522578 -3.95919443 35.16626881 -8.1875 32.84375 C-10.89691717 27.86640552 -10.62304874 23.20268155 -10.5 17.62890625 C-10.51095703 16.54867187 -10.52191406 15.4684375 -10.53320312 14.35546875 C-10.46057417 6.51154115 -10.46057417 6.51154115 -8.27319336 2.82055664 C-5.34433951 0.07232616 -3.96845509 -0.00275928 0 0 Z M-2.9375 7.62890625 C-2.9375 14.22890625 -2.9375 20.82890625 -2.9375 27.62890625 C3.6625 27.62890625 10.2625 27.62890625 17.0625 27.62890625 C17.0625 21.02890625 17.0625 14.42890625 17.0625 7.62890625 C10.4625 7.62890625 3.8625 7.62890625 -2.9375 7.62890625 Z " fill="#000000" transform="translate(21.9375,55.37109375)"/>
</svg>
