<?xml version="1.0" encoding="UTF-8"?>
<svg version="1.1" xmlns="http://www.w3.org/2000/svg" width="128" height="128">
<path d="M0 0 C14.66593153 10.19568513 25.60840641 23.74932626 29.74780273 41.46484375 C31.85368154 54.22278914 31.54749005 68.90444137 26.125 80.75 C25.650625 81.81992188 25.17625 82.88984375 24.6875 83.9921875 C16.66496296 100.38439059 3.29215507 111.57260053 -13.875 117.75 C-31.29324347 122.80634913 -50.46866026 120.79005104 -66.29272461 112.21020508 C-81.73264719 103.27172136 -91.74248581 89.11904589 -96.98828125 72.1484375 C-100.09059644 59.05712927 -99.35177869 43.05030624 -93.875 30.75 C-93.51277344 29.87730469 -93.15054688 29.00460938 -92.77734375 28.10546875 C-85.8549626 12.82929883 -73.23462165 1.78063924 -57.87109375 -4.47265625 C-38.93392049 -11.50790437 -17.48941603 -10.43527048 0 0 Z M-5.4921875 22.27734375 C-6.64710693 22.81625244 -7.80202637 23.35516113 -8.99194336 23.91040039 C-11.52718273 25.10480851 -14.05506611 26.31369975 -16.58032227 27.52905273 C-22.20723055 30.22062463 -27.73025054 32.83098135 -33.72265625 34.6328125 C-42.1182905 37.28621265 -47.24127999 39.93010781 -51.671875 47.828125 C-54.63201972 53.8234335 -57.1146322 59.96364099 -59.49511719 66.20849609 C-61.50559692 71.36844285 -63.84575256 76.35923961 -66.1875 81.375 C-68.79117689 86.37565715 -68.79117689 86.37565715 -69.875 91.75 C-63.77720763 89.85653669 -58.04386837 87.58254621 -52.296875 84.80859375 C-51.13517792 84.25607689 -51.13517792 84.25607689 -49.95001221 83.69239807 C-47.50597482 82.5289841 -45.06535741 81.35861051 -42.625 80.1875 C-40.16976087 79.01412521 -37.71381978 77.84224805 -35.25714111 76.67189026 C-33.73692125 75.94715253 -32.21762383 75.22047563 -30.69940186 74.49156189 C-30.00808167 74.16104324 -29.31676147 73.8305246 -28.60449219 73.48999023 C-27.63494598 73.02278564 -27.63494598 73.02278564 -26.64581299 72.54614258 C-24.875 71.75 -24.875 71.75 -22.06054688 70.86303711 C-18.91748115 69.26236278 -18.27974419 67.32144703 -16.859375 64.1328125 C-16.33432373 62.97700684 -15.80927246 61.82120117 -15.26831055 60.63037109 C-14.7201061 59.37877085 -14.17234442 58.12697659 -13.625 56.875 C-13.05594011 55.60561051 -12.48537335 54.3368955 -11.91333008 53.06884766 C-10.7654819 50.51787074 -9.62708851 47.96300474 -8.49658203 45.40429688 C-7.02911055 42.097294 -5.53647388 38.803776 -4.02734375 35.515625 C-3.20536206 33.7189179 -2.38372191 31.9220545 -1.5625 30.125 C-0.99450684 28.88387451 -0.99450684 28.88387451 -0.41503906 27.61767578 C1.45003849 23.83532866 1.45003849 23.83532866 2.125 19.75 C-0.80983141 19.75 -2.84083357 21.02924726 -5.4921875 22.27734375 Z " fill="#000000" transform="translate(97.875,8.25)"/>
<path d="M0 0 C3.41523575 1.78186213 4.5592033 2.88155907 5.875 6.5 C5.27150011 10.2718743 4.48480567 11.95795052 1.625 14.5 C-1.125 15.5 -1.125 15.5 -4.25 15 C-7.66523575 13.21813787 -8.8092033 12.11844093 -10.125 8.5 C-9.52150011 4.7281257 -8.73480567 3.04204948 -5.875 0.5 C-3.125 -0.5 -3.125 -0.5 0 0 Z " fill="#000000" transform="translate(66.125,56.5)"/>
</svg>
