<?xml version="1.0" encoding="UTF-8"?>
<svg version="1.1" xmlns="http://www.w3.org/2000/svg" width="128" height="128">
<path d="M0 0 C0.89162842 0.37125 0.89162842 0.37125 1.80126953 0.75 C19.98742322 8.48459847 30.65878444 20.14562913 38.95703125 38.1015625 C43.77060527 51.47861091 44.66432909 69.81512587 39 83 C38.62875 83.89162842 38.62875 83.89162842 38.25 84.80126953 C30.51540153 102.98742322 18.85437087 113.65878444 0.8984375 121.95703125 C-12.47861091 126.77060527 -30.81512587 127.66432909 -44 122 C-44.59441895 121.7525 -45.18883789 121.505 -45.80126953 121.25 C-63.98742322 113.51540153 -74.65878444 101.85437087 -82.95703125 83.8984375 C-87.77060527 70.52138909 -88.66432909 52.18487413 -83 39 C-82.7525 38.40558105 -82.505 37.81116211 -82.25 37.19873047 C-74.51540153 19.01257678 -62.85437087 8.34121556 -44.8984375 0.04296875 C-31.52138909 -4.77060527 -13.18487413 -5.66432909 0 0 Z M-62.65234375 26.87109375 C-71.72853443 38.34912624 -76.59043385 52.32869453 -75 67 C-72.13354544 82.49828823 -65.17711536 95.42516132 -52.15234375 104.625 C-39.92009298 112.43943243 -26.67654957 115.97465964 -12.26171875 113.30859375 C2.61248098 109.73579603 14.69412222 102.00153027 23 89 C30.83643659 75.84280106 32.94521735 62.23845719 29.375 47.375 C25.22357328 33.11448507 16.40062479 22.19461916 3.69140625 14.625 C-19.10373924 2.37032979 -45.57105349 7.52845065 -62.65234375 26.87109375 Z " fill="#000000" transform="translate(86,3)"/>
<path d="M0 0 C-0.55589907 5.66903019 -2.71427086 10.12155915 -5.19140625 15.16015625 C-5.61493881 16.02764999 -6.03847137 16.89514374 -6.47483826 17.78892517 C-7.37242525 19.61740864 -8.27454878 21.44367128 -9.1809082 23.26782227 C-10.55467267 26.0466669 -11.89561001 28.8398594 -13.23632812 31.63476562 C-14.11520346 33.41504334 -14.99600119 35.19437358 -15.87890625 36.97265625 C-16.2719545 37.80297867 -16.66500275 38.63330109 -17.06996155 39.48878479 C-20.03868642 45.33580714 -23.19150459 48.06918124 -29 51 C-29.67921005 51.36869705 -30.3584201 51.7373941 -31.05821228 52.11726379 C-33.1841653 53.26312354 -35.32727384 54.36718947 -37.48046875 55.4609375 C-38.25634842 55.85576324 -39.03222809 56.25058899 -39.83161926 56.65737915 C-41.45650793 57.48136518 -43.08255575 58.30306907 -44.7097168 59.12255859 C-47.19790531 60.38025956 -49.67585625 61.65681389 -52.15429688 62.93359375 C-53.74159026 63.73555819 -55.32946126 64.53638062 -56.91796875 65.3359375 C-57.65452194 65.71914154 -58.39107513 66.10234558 -59.14994812 66.49716187 C-64.32203365 69.06113759 -64.32203365 69.06113759 -68.00512695 68.72900391 C-68.99258911 68.36814697 -68.99258911 68.36814697 -70 68 C-69.44410093 62.33096981 -67.28572914 57.87844085 -64.80859375 52.83984375 C-64.38506119 51.97235001 -63.96152863 51.10485626 -63.52516174 50.21107483 C-62.62757475 48.38259136 -61.72545122 46.55632872 -60.8190918 44.73217773 C-59.44532733 41.9533331 -58.10438999 39.1601406 -56.76367188 36.36523438 C-55.88479654 34.58495666 -55.00399881 32.80562642 -54.12109375 31.02734375 C-53.53152138 29.78186012 -53.53152138 29.78186012 -52.93003845 28.51121521 C-49.96131358 22.66419286 -46.80849541 19.93081876 -41 17 C-40.32078995 16.63130295 -39.6415799 16.2626059 -38.94178772 15.88273621 C-36.8158347 14.73687646 -34.67272616 13.63281053 -32.51953125 12.5390625 C-31.74365158 12.14423676 -30.96777191 11.74941101 -30.16838074 11.34262085 C-28.54349207 10.51863482 -26.91744425 9.69693093 -25.2902832 8.87744141 C-22.80209469 7.61974044 -20.32414375 6.34318611 -17.84570312 5.06640625 C-16.25840974 4.26444181 -14.67053874 3.46361938 -13.08203125 2.6640625 C-12.34547806 2.28085846 -11.60892487 1.89765442 -10.85005188 1.50283813 C-6.87919736 -0.46564722 -4.40677585 -1.61040664 0 0 Z M-38.25 30.9375 C-39.11625 31.9584375 -39.11625 31.9584375 -40 33 C-38.94525335 36.69460876 -38.94525335 36.69460876 -36.125 39.0625 C-33.77383252 39.21665306 -33.77383252 39.21665306 -31.75 37.0625 C-31.1725 36.381875 -30.595 35.70125 -30 35 C-31.05474665 31.30539124 -31.05474665 31.30539124 -33.875 28.9375 C-36.22616748 28.78334694 -36.22616748 28.78334694 -38.25 30.9375 Z " fill="#000000" transform="translate(99,30)"/>
</svg>
