<?xml version="1.0" encoding="UTF-8"?>
<svg version="1.1" xmlns="http://www.w3.org/2000/svg" width="100" height="100">
<path d="M0 0 C3.74685428 1.06122084 5.56460061 2.54539056 8.45703125 5.140625 C12.04567601 8.30347861 15.67207148 11.32817302 19.52734375 14.1640625 C20.65789185 14.9988916 20.65789185 14.9988916 21.8112793 15.85058594 C23.28955853 16.93454082 24.7751046 18.00867662 26.26879883 19.07128906 C26.95868896 19.58143555 27.6485791 20.09158203 28.359375 20.6171875 C29.27384399 21.27581787 29.27384399 21.27581787 30.20678711 21.94775391 C35.61201479 27.36728293 37.71143997 32.23235033 37.78796387 39.88594055 C37.7715686 40.86330673 37.75517334 41.84067291 37.73828125 42.84765625 C37.73832153 43.87243576 37.73836182 44.89721527 37.73840332 45.95304871 C37.73306853 48.10539937 37.71557398 50.25775089 37.68652344 52.40991211 C37.64443435 55.71072446 37.64547936 59.00950969 37.65234375 62.31054688 C37.64185851 64.40626422 37.62892401 66.50197106 37.61328125 68.59765625 C37.61297913 70.07888725 37.61297913 70.07888725 37.6126709 71.59004211 C37.59675903 72.50496933 37.58084717 73.41989655 37.56445312 74.36254883 C37.55603394 75.16670731 37.54761475 75.97086578 37.53894043 76.7993927 C37.0476882 79.40410524 36.23277308 80.30018039 34.14453125 81.890625 C31.6484375 82.27880859 31.6484375 82.27880859 28.70703125 82.2890625 C27.64742188 82.29292969 26.5878125 82.29679687 25.49609375 82.30078125 C24.39007813 82.28917969 23.2840625 82.27757813 22.14453125 82.265625 C20.48550781 82.28302734 20.48550781 82.28302734 18.79296875 82.30078125 C17.73335937 82.29691406 16.67375 82.29304688 15.58203125 82.2890625 C14.61136719 82.28567871 13.64070313 82.28229492 12.640625 82.27880859 C10.14453125 81.890625 10.14453125 81.890625 8.33447266 80.69628906 C6.72748449 78.25778178 6.72922099 76.51129294 6.66796875 73.6015625 C6.63703125 72.57804687 6.60609375 71.55453125 6.57421875 70.5 C6.55617187 69.43265625 6.538125 68.3653125 6.51953125 67.265625 C6.46875703 65.14834004 6.41427645 63.03113956 6.35546875 60.9140625 C6.33790527 59.97481934 6.3203418 59.03557617 6.30224609 58.06787109 C6.38476535 55.91280194 6.38476535 55.91280194 5.14453125 54.890625 C3.14653553 54.79188684 1.14495967 54.76090701 -0.85546875 54.765625 C-1.94859375 54.76304688 -3.04171875 54.76046875 -4.16796875 54.7578125 C-6.77377229 54.58514745 -6.77377229 54.58514745 -7.85546875 55.890625 C-7.9765539 57.56219992 -8.03507204 59.23840069 -8.06640625 60.9140625 C-8.10894531 62.44546875 -8.10894531 62.44546875 -8.15234375 64.0078125 C-8.20423567 66.17170567 -8.2485634 68.33579405 -8.28515625 70.5 C-8.3315625 72.03527344 -8.3315625 72.03527344 -8.37890625 73.6015625 C-8.39872559 74.54306152 -8.41854492 75.48456055 -8.43896484 76.45458984 C-8.85546875 78.890625 -8.85546875 78.890625 -10.04541016 80.69628906 C-12.53612489 82.33974421 -14.32111397 82.27870245 -17.29296875 82.2890625 C-18.35257813 82.29292969 -19.4121875 82.29679687 -20.50390625 82.30078125 C-21.60992188 82.28917969 -22.7159375 82.27757813 -23.85546875 82.265625 C-24.96148437 82.27722656 -26.0675 82.28882812 -27.20703125 82.30078125 C-28.26664063 82.29691406 -29.32625 82.29304688 -30.41796875 82.2890625 C-31.38863281 82.28567871 -32.35929687 82.28229492 -33.359375 82.27880859 C-36.33784655 81.81560733 -37.02920995 81.23468308 -38.85546875 78.890625 C-39.24987793 76.7993927 -39.24987793 76.7993927 -39.27539062 74.36254883 C-39.29130249 73.44762161 -39.30721436 72.5326944 -39.3236084 71.59004211 C-39.32391052 70.10881111 -39.32391052 70.10881111 -39.32421875 68.59765625 C-39.33183228 67.57766037 -39.3394458 66.55766449 -39.34729004 65.50675964 C-39.35810272 63.34559578 -39.36093942 61.1843796 -39.35644531 59.02319336 C-39.35547744 55.73265934 -39.39699418 52.4444914 -39.44140625 49.15429688 C-39.44661676 47.05208818 -39.44930139 44.9498714 -39.44921875 42.84765625 C-39.46561401 41.87029007 -39.48200928 40.89292389 -39.49890137 39.88594055 C-39.43323931 33.31870484 -38.10286878 28.96404882 -33.85546875 23.890625 C-31.82447557 21.92606636 -29.70338507 20.23710822 -27.41796875 18.578125 C-26.18326741 17.64626557 -24.94890285 16.71395978 -23.71484375 15.78125 C-23.08255859 15.31009766 -22.45027344 14.83894531 -21.79882812 14.35351562 C-18.54318079 11.90278211 -15.36039933 9.36028473 -12.16796875 6.828125 C-3.3762517 -0.12932291 -3.3762517 -0.12932291 0 0 Z " fill="#000000" transform="translate(50.85546875,8.109375)"/>
</svg>
