<?xml version="1.0" encoding="UTF-8"?>
<svg version="1.1" xmlns="http://www.w3.org/2000/svg" width="100" height="100">
<path d="M0 0 C1.7325 0.1546875 1.7325 0.1546875 3.5 0.3125 C5.6519437 3.54041555 5.70086443 4.59650809 5.5 8.3125 C6.18102783 8.29678955 6.86205566 8.2810791 7.5637207 8.26489258 C10.64656281 8.20256778 13.72927244 8.16351742 16.8125 8.125 C17.88435547 8.09986328 18.95621094 8.07472656 20.06054688 8.04882812 C21.08857422 8.03916016 22.11660156 8.02949219 23.17578125 8.01953125 C24.5975769 7.99596558 24.5975769 7.99596558 26.0480957 7.97192383 C28.5 8.3125 28.5 8.3125 30.12898254 9.41386414 C32.17718388 12.25028937 31.88143742 14.56081561 31.88818359 18.03125 C31.89344055 18.70961914 31.89869751 19.38798828 31.90411377 20.08691406 C31.91731635 22.32901035 31.90857538 24.57039651 31.8984375 26.8125 C31.90045818 28.3704441 31.90336956 29.92838727 31.90713501 31.48632812 C31.91155869 34.75139369 31.90512609 38.01621305 31.89111328 41.28125 C31.87402113 45.46801349 31.88386211 49.65420007 31.90183067 53.84094238 C31.91266746 57.05798699 31.90922271 60.27489465 31.9014473 63.49194336 C31.89944499 65.0357266 31.90190566 66.57952225 31.90888596 68.12329102 C31.91649901 70.28044604 31.90489972 72.43666478 31.88818359 74.59375 C31.88579681 75.82158203 31.88341003 77.04941406 31.88095093 78.31445312 C31.5 81.3125 31.5 81.3125 30.44155884 83.2081604 C27.43415775 84.9187406 24.41360054 84.72932384 21.046875 84.70068359 C20.29047729 84.70594055 19.53407959 84.71119751 18.75476074 84.71661377 C16.25296414 84.72982414 13.75180314 84.72107232 11.25 84.7109375 C9.51269407 84.71295794 7.77538896 84.71586914 6.03808594 84.71963501 C2.39640226 84.72405976 -1.24506072 84.71762254 -4.88671875 84.70361328 C-9.55773484 84.68652122 -14.22823384 84.69636161 -18.89923096 84.71433067 C-22.48685613 84.72516449 -26.07435845 84.72172404 -29.6619873 84.7139473 C-31.38440003 84.71194417 -33.10682387 84.7144085 -34.82922363 84.72138596 C-37.23540855 84.72899395 -39.6407528 84.71740612 -42.046875 84.70068359 C-42.76073364 84.70675629 -43.47459229 84.71282898 -44.21008301 84.71908569 C-46.94389589 84.68383668 -49.03840457 84.57505094 -51.44155884 83.2081604 C-53.05040341 80.32673151 -52.88179816 77.87861269 -52.88818359 74.59375 C-52.89344055 73.91538086 -52.89869751 73.23701172 -52.90411377 72.53808594 C-52.91731635 70.29598965 -52.90857538 68.05460349 -52.8984375 65.8125 C-52.90045818 64.2545559 -52.90336956 62.69661273 -52.90713501 61.13867188 C-52.91155869 57.87360631 -52.90512609 54.60878695 -52.89111328 51.34375 C-52.87402113 47.15698651 -52.88386211 42.97079993 -52.90183067 38.78405762 C-52.91266746 35.56701301 -52.90922271 32.35010535 -52.9014473 29.13305664 C-52.89944499 27.5892734 -52.90190566 26.04547775 -52.90888596 24.50170898 C-52.91649901 22.34455396 -52.90489972 20.18833522 -52.88818359 18.03125 C-52.88579681 16.80341797 -52.88341003 15.57558594 -52.88095093 14.31054688 C-52.5 11.3125 -52.5 11.3125 -51.1920929 9.41386414 C-48.31348107 7.54020824 -45.08756442 7.94868158 -41.76953125 8.01953125 C-41.10417358 8.02255249 -40.43881592 8.02557373 -39.7532959 8.02868652 C-37.27287233 8.04435771 -34.79267025 8.08624198 -32.3125 8.125 C-26.764375 8.186875 -21.21625 8.24875 -15.5 8.3125 C-15.5 20.5225 -15.5 32.7325 -15.5 45.3125 C-18.97946266 43.57276867 -20.08960734 42.86312413 -22.4375 40.125 C-23.90383328 38.50647165 -23.90383328 38.50647165 -25.5 37.3125 C-28.31416116 37.27152218 -28.31416116 37.27152218 -30.5 38.3125 C-30.83478782 41.47542792 -30.78633868 42.90550176 -28.92700195 45.54833984 C-26.57020746 47.94430471 -24.2101899 50.33232889 -21.8125 52.6875 C-20.99587891 53.53183594 -20.17925781 54.37617187 -19.33789062 55.24609375 C-18.54189453 56.03886719 -17.74589844 56.83164062 -16.92578125 57.6484375 C-16.19786377 58.37595215 -15.46994629 59.1034668 -14.7199707 59.85302734 C-12.59260456 61.55033376 -12.59260456 61.55033376 -9.98632812 61.26904297 C-5.27097681 59.45494768 -2.17832036 55.60306382 1.3125 52.0625 C2.10076172 51.29808594 2.88902344 50.53367188 3.70117188 49.74609375 C4.44560547 48.99972656 5.19003906 48.25335938 5.95703125 47.484375 C6.9776062 46.4648877 6.9776062 46.4648877 8.01879883 45.42480469 C9.81624602 42.8615093 9.80313039 41.37789353 9.5 38.3125 C7.2147856 37.45623751 7.2147856 37.45623751 4.5 37.3125 C2.22863261 38.93252619 2.22863261 38.93252619 0.3125 41.25 C-0.92759933 42.63236694 -2.19262356 43.9935794 -3.5 45.3125 C-4.16 45.3125 -4.82 45.3125 -5.5 45.3125 C-5.54934154 39.22527254 -5.58569167 33.1381608 -5.60986328 27.05078125 C-5.61993712 24.97882053 -5.63359666 22.90687407 -5.65087891 20.83496094 C-5.67506664 17.86129236 -5.68646908 14.8878113 -5.6953125 11.9140625 C-5.70563507 10.98381256 -5.71595764 10.05356262 -5.72659302 9.09512329 C-5.72681961 7.80401138 -5.72681961 7.80401138 -5.72705078 6.48681641 C-5.731492 5.72736725 -5.73593323 4.96791809 -5.74050903 4.18545532 C-5.25853022 0.43206293 -3.49859907 0.31237492 0 0 Z " fill="#000000" transform="translate(60.5,3.6875)"/>
</svg>
