<?xml version="1.0" encoding="UTF-8"?>
<svg version="1.1" xmlns="http://www.w3.org/2000/svg" width="100" height="100">
<path d="M0 0 C0.72445313 -0.01998047 1.44890625 -0.03996094 2.1953125 -0.06054688 C5.56875588 -0.05743484 7.48341423 -0.04096877 10.01171875 2.30078125 C11.31205062 5.11217071 10.99053433 6.54209196 10 9.4375 C9.34 10.0975 8.68 10.7575 8 11.4375 C5.36 11.4375 2.72 11.4375 0 11.4375 C0 29.2575 0 47.0775 0 65.4375 C20.46 65.4375 40.92 65.4375 62 65.4375 C62 47.6175 62 29.7975 62 11.4375 C59.36 11.4375 56.72 11.4375 54 11.4375 C51.9375 10.3125 51.9375 10.3125 51 8.4375 C51.22330713 4.79015021 51.38372835 3.05377165 54 0.4375 C56.69162425 0.21197762 59.24669744 0.1131671 61.9375 0.125 C62.66646484 0.10888672 63.39542969 0.09277344 64.14648438 0.07617188 C69.43273312 0.07132655 69.43273312 0.07132655 71.70840454 1.5402832 C73.64703133 4.38792042 73.38153562 6.7363279 73.38818359 10.15625 C73.39344055 10.83461914 73.39869751 11.51298828 73.40411377 12.21191406 C73.41731635 14.45401035 73.40857538 16.69539651 73.3984375 18.9375 C73.40045818 20.4954441 73.40336956 22.05338727 73.40713501 23.61132812 C73.41155869 26.87639369 73.40512609 30.14121305 73.39111328 33.40625 C73.37402113 37.59301349 73.38386211 41.77920007 73.40183067 45.96594238 C73.41266746 49.18298699 73.40922271 52.39989465 73.4014473 55.61694336 C73.39944499 57.1607266 73.40190566 58.70452225 73.40888596 60.24829102 C73.41649901 62.40544604 73.40489972 64.56166478 73.38818359 66.71875 C73.38579681 67.94658203 73.38341003 69.17441406 73.38095093 70.43945312 C73 73.4375 73 73.4375 71.94155884 75.3331604 C68.93415775 77.0437406 65.91360054 76.85432384 62.546875 76.82568359 C61.79047729 76.83094055 61.03407959 76.83619751 60.25476074 76.84161377 C57.75296414 76.85482414 55.25180314 76.84607232 52.75 76.8359375 C51.01269407 76.83795794 49.27538896 76.84086914 47.53808594 76.84463501 C43.89640226 76.84905976 40.25493928 76.84262254 36.61328125 76.82861328 C31.94226516 76.81152122 27.27176616 76.82136161 22.60076904 76.83933067 C19.01314387 76.85016449 15.42564155 76.84672404 11.8380127 76.8389473 C10.11559997 76.83694417 8.39317613 76.8394085 6.67077637 76.84638596 C4.26459145 76.85399395 1.8592472 76.84240612 -0.546875 76.82568359 C-1.26073364 76.83175629 -1.97459229 76.83782898 -2.71008301 76.84408569 C-5.44389589 76.80883668 -7.53840457 76.70005094 -9.94155884 75.3331604 C-11.55040341 72.45173151 -11.38179816 70.00361269 -11.38818359 66.71875 C-11.39344055 66.04038086 -11.39869751 65.36201172 -11.40411377 64.66308594 C-11.41731635 62.42098965 -11.40857538 60.17960349 -11.3984375 57.9375 C-11.40045818 56.3795559 -11.40336956 54.82161273 -11.40713501 53.26367188 C-11.41155869 49.99860631 -11.40512609 46.73378695 -11.39111328 43.46875 C-11.37402113 39.28198651 -11.38386211 35.09579993 -11.40183067 30.90905762 C-11.41266746 27.69201301 -11.40922271 24.47510535 -11.4014473 21.25805664 C-11.39944499 19.7142734 -11.40190566 18.17047775 -11.40888596 16.62670898 C-11.41649901 14.46955396 -11.40489972 12.31333522 -11.38818359 10.15625 C-11.38579681 8.92841797 -11.38341003 7.70058594 -11.38095093 6.43554688 C-11 3.4375 -11 3.4375 -9.70620728 1.54467773 C-6.74838732 -0.37468602 -3.40845728 -0.03335679 0 0 Z " fill="#000000" transform="translate(19,11.5625)"/>
<path d="M0 0 C3 0.5 3 0.5 4.65551758 1.98730469 C6.60118806 5.62355685 6.47995763 9.17424341 6.51171875 13.203125 C6.53864555 14.45980988 6.53864555 14.45980988 6.56611633 15.74188232 C6.62019056 18.41120407 6.65410532 21.08034731 6.6875 23.75 C6.72067568 25.56252482 6.75516557 27.3750261 6.79101562 29.1875 C6.87591523 33.62487114 6.94273997 38.06218961 7 42.5 C7.46035645 41.9946875 7.92071289 41.489375 8.39501953 40.96875 C9.00974121 40.3190625 9.62446289 39.669375 10.2578125 39 C10.86254395 38.3503125 11.46727539 37.700625 12.09033203 37.03125 C14 35.5 14 35.5 17.875 35.5 C21 36.5 21 36.5 22 37.5 C22.62627969 40.41104079 22.78820392 41.69018716 22 44.5 C19.34297703 48.20584782 16.1508848 51.27929728 12.875 54.4375 C11.59109375 55.74944336 11.59109375 55.74944336 10.28125 57.08789062 C3.92736549 63.34891067 3.92736549 63.34891067 0 63.98876953 C-5.68860512 63.06196391 -8.98373651 58.41373837 -12.875 54.4375 C-14.19371094 53.16616211 -14.19371094 53.16616211 -15.5390625 51.86914062 C-22.56371926 44.80630638 -22.56371926 44.80630638 -22.7578125 40.50390625 C-22 37.5 -22 37.5 -19 35.5 C-16.75 34.9375 -16.75 34.9375 -14 35.5 C-12.20019531 37.08618164 -12.20019531 37.08618164 -10.328125 39.03515625 C-9.70325195 39.67976807 -9.07837891 40.32437988 -8.43457031 40.98852539 C-7.96116211 41.48731201 -7.48775391 41.98609863 -7 42.5 C-6.98541748 41.36981445 -6.97083496 40.23962891 -6.95581055 39.07519531 C-6.89779315 34.87793501 -6.82056063 30.68120927 -6.73754883 26.484375 C-6.70431564 24.66870811 -6.67627866 22.85293832 -6.65356445 21.03710938 C-6.61998859 18.42533558 -6.56767238 15.81450346 -6.51171875 13.203125 C-6.50213387 11.98728729 -6.50213387 11.98728729 -6.49235535 10.74688721 C-6.40620174 7.43688785 -6.23211194 4.93379265 -4.65551758 1.98730469 C-3 0.5 -3 0.5 0 0 Z " fill="#000000" transform="translate(50,3.5)"/>
</svg>
