<?xml version="1.0" encoding="UTF-8"?>
<svg version="1.1" xmlns="http://www.w3.org/2000/svg" width="100" height="100">
<path d="M0 0 C6.2835007 2.06527465 11.26301607 1.26837012 17.5 -0.625 C24.6592284 -2.54265047 30.31456495 -2.05776226 36.98046875 1.22265625 C39.89542869 2.97614279 41.8483043 4.79993753 44 7.4375 C44 8.0975 44 8.7575 44 9.4375 C42.92877548 10.33263282 41.81678975 11.17933602 40.6875 12 C36.49729704 15.51738582 34.66983097 19.00056028 34 24.4375 C34.35783145 30.10455158 35.53951909 33.95416976 39 38.4375 C39 39.0975 39 39.7575 39 40.4375 C39.5775 40.705625 40.155 40.97375 40.75 41.25 C43.03412048 42.45550803 44.95431531 43.86885523 47 45.4375 C36.78653842 66.08784263 36.78653842 66.08784263 28 69.4375 C25.81640625 69.703125 25.81640625 69.703125 23.5625 69.6875 C22.45068359 69.69523437 22.45068359 69.69523437 21.31640625 69.703125 C19 69.4375 19 69.4375 16.55859375 68.4375 C13.69942951 67.32002512 11.5586647 67.17031649 8.5 67.1875 C7.5821875 67.18234375 6.664375 67.1771875 5.71875 67.171875 C2.80498545 67.45655315 0.69597985 68.33518177 -2 69.4375 C-6.76889737 70.08746066 -10.77615067 69.98943205 -15.1875 68 C-25.3863841 58.70768338 -32.55941121 45.75217243 -33.37109375 31.8515625 C-33.62971125 21.70265807 -33.48502442 13.50880969 -26.35546875 5.6171875 C-18.51689626 -1.70825045 -9.99578988 -3.36292466 0 0 Z " fill="#000000" transform="translate(43,24.5625)"/>
<path d="M0 0 C1.34979597 4.04938792 0.36504709 7.09774582 -1 11 C-3.6476297 16.00107832 -6.98631231 19.42034326 -12 22 C-14.40371015 22.63600113 -16.500045 22.84694153 -19 23 C-19.64089294 16.8474278 -19.01986402 12.82395227 -15.4296875 7.72265625 C-11.16902963 2.58891275 -6.69783848 -0.37210214 0 0 Z " fill="#000000" transform="translate(67,2)"/>
</svg>
