<?xml version="1.0" encoding="UTF-8"?>
<svg version="1.1" xmlns="http://www.w3.org/2000/svg" width="100" height="100">
<path d="M0 0 C2.29932398 1.70017695 4.36811271 3.48064939 6.43359375 5.45703125 C7.38878906 6.3696875 7.38878906 6.3696875 8.36328125 7.30078125 C17.39688656 16.76086578 19.94232444 27.68069259 19.7109375 40.33984375 C19.1958182 51.51870142 13.1739575 61.13308998 5.24609375 68.70703125 C-5.14971761 77.51972413 -16.32624777 79.24012934 -29.56640625 78.45703125 C-39.84518181 76.75591552 -50.33846618 70.90194296 -56.56640625 62.45703125 C-63.53739893 50.23334668 -66.60220761 39.13885648 -63.91796875 25.0546875 C-60.5902526 14.00496335 -52.98016907 4.48194327 -42.7890625 -1.05078125 C-29.14749151 -7.45957299 -13.25851753 -7.97125483 0 0 Z M-49.64453125 13.78515625 C-55.91503535 22.16339282 -58.71134637 31.00536354 -57.56640625 41.45703125 C-56.09093327 50.58471213 -51.29847377 58.26966215 -44.39453125 64.37890625 C-35.56083768 70.70658746 -25.76543218 72.78238885 -15.1015625 71.05859375 C-6.21472359 68.89655079 1.6082561 63.51641352 6.93359375 56.08203125 C12.43883322 46.80586185 13.98389294 37.00225453 11.43359375 26.51953125 C8.48925845 17.78283539 2.71507579 10.31405147 -5.21875 5.60546875 C-20.80104631 -2.01715207 -37.90009374 0.62785408 -49.64453125 13.78515625 Z " fill="#000000" transform="translate(72.56640625,13.54296875)"/>
<path d="M0 0 C0.68578125 0.29132812 1.3715625 0.58265625 2.078125 0.8828125 C2.390625 3.0703125 2.390625 3.0703125 2.078125 5.8828125 C0.46231425 7.59882857 -1.20191704 9.27119835 -2.921875 10.8828125 C-2.26590332 10.90263184 -1.60993164 10.92245117 -0.93408203 10.94287109 C2.02873569 11.03793757 4.99083032 11.14769002 7.953125 11.2578125 C8.98566406 11.28875 10.01820312 11.3196875 11.08203125 11.3515625 C12.06816406 11.39023437 13.05429687 11.42890625 14.0703125 11.46875 C14.98151855 11.5001709 15.89272461 11.5315918 16.83154297 11.56396484 C19.078125 11.8828125 19.078125 11.8828125 21.078125 13.8828125 C20.52256944 18.43836806 20.52256944 18.43836806 19.078125 19.8828125 C17.44555742 20.03995904 15.80677162 20.13366664 14.16796875 20.19921875 C13.17861328 20.24111328 12.18925781 20.28300781 11.16992188 20.32617188 C10.12900391 20.36548828 9.08808594 20.40480469 8.015625 20.4453125 C6.97083984 20.48849609 5.92605469 20.53167969 4.84960938 20.57617188 C2.25925616 20.68262475 -0.33119686 20.7846401 -2.921875 20.8828125 C-0.941875 23.1928125 1.038125 25.5028125 3.078125 27.8828125 C2.418125 29.2028125 1.758125 30.5228125 1.078125 31.8828125 C-4.39949102 31.59342901 -7.14866493 28.32137887 -10.796875 24.6328125 C-11.40273438 24.05917969 -12.00859375 23.48554687 -12.6328125 22.89453125 C-16.8316392 18.70524733 -16.8316392 18.70524733 -17.1953125 15.390625 C-15.29209063 11.6425623 -12.64323424 8.94666234 -9.671875 6.0078125 C-8.81142578 5.09902344 -8.81142578 5.09902344 -7.93359375 4.171875 C-3.62609903 -0.14543178 -3.62609903 -0.14543178 0 0 Z " fill="#000000" transform="translate(47.921875,34.1171875)"/>
</svg>
