<?xml version="1.0" encoding="UTF-8"?>
<svg version="1.1" xmlns="http://www.w3.org/2000/svg" width="100" height="100">
<path d="M0 0 C2.29932398 1.70017695 4.36811271 3.48064939 6.43359375 5.45703125 C7.38878906 6.3696875 7.38878906 6.3696875 8.36328125 7.30078125 C17.39688656 16.76086578 19.94232444 27.68069259 19.7109375 40.33984375 C19.1958182 51.51870142 13.1739575 61.13308998 5.24609375 68.70703125 C-5.14971761 77.51972413 -16.32624777 79.24012934 -29.56640625 78.45703125 C-39.84518181 76.75591552 -50.33846618 70.90194296 -56.56640625 62.45703125 C-63.53739893 50.23334668 -66.60220761 39.13885648 -63.91796875 25.0546875 C-60.5902526 14.00496335 -52.98016907 4.48194327 -42.7890625 -1.05078125 C-29.14749151 -7.45957299 -13.25851753 -7.97125483 0 0 Z M-34.56640625 28.45703125 C-35.19160156 28.99328125 -35.81679688 29.52953125 -36.4609375 30.08203125 C-38.35423122 31.71692164 -38.35423122 31.71692164 -40.56640625 34.45703125 C-40.53806326 38.66596549 -38.670799 40.84674084 -35.76367188 43.7578125 C-35.26544922 44.23605469 -34.76722656 44.71429688 -34.25390625 45.20703125 C-33.76728516 45.70074219 -33.28066406 46.19445312 -32.77929688 46.703125 C-30.20692532 49.23048871 -28.23540605 51.07357284 -24.56640625 51.45703125 C-23.75086835 49.65834793 -23.75086835 49.65834793 -23.56640625 47.45703125 C-24.97508795 45.44210557 -24.97508795 45.44210557 -27.00390625 43.70703125 C-27.66261719 43.0934375 -28.32132813 42.47984375 -29 41.84765625 C-29.51691406 41.38875 -30.03382812 40.92984375 -30.56640625 40.45703125 C-29.84984863 40.4319751 -29.13329102 40.40691895 -28.39501953 40.38110352 C-25.16029111 40.26533374 -21.92586784 40.14252156 -18.69140625 40.01953125 C-17.56347656 39.98021484 -16.43554688 39.94089844 -15.2734375 39.90039062 C-14.19707031 39.85849609 -13.12070312 39.81660156 -12.01171875 39.7734375 C-11.01672363 39.73677979 -10.02172852 39.70012207 -8.99658203 39.66235352 C-6.55861124 39.60743593 -6.55861124 39.60743593 -4.56640625 38.45703125 C-4.56640625 37.13703125 -4.56640625 35.81703125 -4.56640625 34.45703125 C-7.13851947 33.17097464 -9.13547591 33.24659184 -12.01171875 33.140625 C-13.08808594 33.09873047 -14.16445313 33.05683594 -15.2734375 33.01367188 C-16.96533203 32.95469727 -16.96533203 32.95469727 -18.69140625 32.89453125 C-19.82707031 32.85134766 -20.96273437 32.80816406 -22.1328125 32.76367188 C-24.94388393 32.65737085 -27.7550457 32.5553372 -30.56640625 32.45703125 C-30.04949219 31.998125 -29.53257813 31.53921875 -29 31.06640625 C-28.01193359 30.14601563 -28.01193359 30.14601563 -27.00390625 29.20703125 C-26.34261719 28.60375 -25.68132813 28.00046875 -25 27.37890625 C-23.29135118 25.55250772 -23.29135118 25.55250772 -23.8515625 23.22265625 C-24.08746094 22.64 -24.32335937 22.05734375 -24.56640625 21.45703125 C-28.57654269 21.45703125 -31.73558403 25.86167483 -34.56640625 28.45703125 Z " fill="#000000" transform="translate(72.56640625,13.54296875)"/>
</svg>
