<?xml version="1.0" encoding="UTF-8"?>
<svg version="1.1" xmlns="http://www.w3.org/2000/svg" width="100" height="100">
<path d="M0 0 C7.70307882 6.80897145 12.57985002 17.7660384 13.30078125 27.89453125 C13.57411728 41.57571864 10.52113947 52.28118438 1.0625 62.546875 C-4.26796826 66.99693559 -9.83182157 71.546875 -16.9375 71.546875 C-16.97488281 70.37769531 -17.01226562 69.20851563 -17.05078125 68.00390625 C-17.1164628 66.45569825 -17.18290939 64.90752258 -17.25 63.359375 C-17.28383789 62.20598633 -17.28383789 62.20598633 -17.31835938 61.02929688 C-17.5393926 56.34741124 -18.17465644 53.48003835 -20.9375 49.546875 C-20.9375 48.886875 -20.9375 48.226875 -20.9375 47.546875 C-20.10605469 47.17175781 -19.27460937 46.79664063 -18.41796875 46.41015625 C-16.78794922 45.64251953 -16.78794922 45.64251953 -15.125 44.859375 C-14.04605469 44.36050781 -12.96710938 43.86164062 -11.85546875 43.34765625 C-8.62194498 41.35213489 -7.44713074 40.00190618 -5.9375 36.546875 C-5.19915571 31.97927452 -5.24665482 27.84220971 -7.4375 23.734375 C-9.86592693 18.57396776 -9.16235417 13.1599014 -8.9375 7.546875 C-10.7628125 8.2275 -10.7628125 8.2275 -12.625 8.921875 C-13.30949219 9.17710938 -13.99398437 9.43234375 -14.69921875 9.6953125 C-16.9688099 10.52496903 -16.9688099 10.52496903 -19.2109375 11.625 C-22.77178892 12.82895549 -26.15826518 12.91497299 -29.875 12.921875 C-30.56529297 12.94636719 -31.25558594 12.97085937 -31.96679688 12.99609375 C-37.19291006 13.02581572 -39.79188506 11.55662604 -43.9375 8.546875 C-46.6657504 7.76471912 -46.6657504 7.76471912 -48.9375 7.546875 C-48.88529297 8.85011719 -48.88529297 8.85011719 -48.83203125 10.1796875 C-48.67931938 16.68084978 -48.85209802 20.76174629 -51.9375 26.546875 C-52.63027027 31.3644154 -52.42171732 35.32480272 -50.625 39.859375 C-46.69640742 43.78796758 -42.06334602 45.54956258 -36.9375 47.546875 C-37.24429688 48.15015625 -37.55109375 48.7534375 -37.8671875 49.375 C-39.02362063 51.72163073 -39.989634 54.1095053 -40.9375 56.546875 C-44.125 56.859375 -44.125 56.859375 -47.9375 56.546875 C-50.875 54.046875 -50.875 54.046875 -52.9375 51.546875 C-52.9375 54.95849498 -51.86183235 56.74784613 -49.9375 59.546875 C-46.91267637 60.69459177 -44.17239245 61.07805001 -40.9375 61.546875 C-40.9375 64.846875 -40.9375 68.146875 -40.9375 71.546875 C-51.22179729 68.65441639 -58.74486368 63.34614412 -64.9375 54.546875 C-70.93262348 43.5170871 -73.14586999 31.66956009 -69.8125 19.296875 C-65.53526995 7.12475771 -58.11334189 -1.40887811 -46.6875 -7.23046875 C-30.41416725 -14.46562947 -13.74019962 -10.30514972 0 0 Z " fill="#000000" transform="translate(78.9375,18.453125)"/>
</svg>
