<?xml version="1.0" encoding="UTF-8"?>
<svg version="1.1" xmlns="http://www.w3.org/2000/svg" width="100" height="100">
<path d="M0 0 C3.1999552 2.13178185 6.14173831 4.43045161 9 7 C5.0580583 11.88049925 0.88049925 16.0580583 -4 20 C-4.48726562 19.6390625 -4.97453125 19.278125 -5.4765625 18.90625 C-12.3987009 14.37539577 -18.87905612 13.73715175 -27 15 C-33.88542248 17.3752397 -38.60017342 21.67532758 -41.99609375 28.08984375 C-44.46561859 35.24858308 -44.37462744 43.13254695 -41.0625 50 C-37.64912387 55.25738393 -32.5051933 58.24740335 -27 61 C-18.73946085 61.87712714 -12.29645684 61.53158486 -5.18359375 57.09375 C-2.13231799 54.33934926 -2.13231799 54.33934926 2 47 C-5.26 47 -12.52 47 -20 47 C-20 41.06 -20 35.12 -20 29 C-14.17923189 28.97709361 -8.358619 28.95716574 -2.5378418 28.94506836 C-0.55606559 28.94002733 1.42570689 28.93319462 3.4074707 28.92456055 C6.24952109 28.91248485 9.09152247 28.90676955 11.93359375 28.90234375 C12.82525742 28.89718246 13.71692108 28.89202118 14.63560486 28.88670349 C16.75740601 28.88650823 18.8791078 28.9378997 21 29 C23.20086195 31.20086195 22.31078196 36.4572991 22.31689453 39.5 C22.10863332 51.12148957 17.99413994 59.9502558 9.89453125 68.125 C-0.07951642 77.46386735 -10.2409932 80.66196287 -23.921875 80.30859375 C-36.073622 79.62498707 -44.74698796 73.76026616 -52.8125 65.0625 C-60.91576213 55.34608847 -62.89076176 44.42670483 -62.19091797 31.98632812 C-61.0318786 19.92757579 -54.06556883 11.02789717 -45.0390625 3.5 C-32.21572163 -5.93326225 -14.17277597 -7.09661365 0 0 Z " fill="#53AF4D" transform="translate(70,12)"/>
<path d="M0 0 C3.1999552 2.13178185 6.14173831 4.43045161 9 7 C5.0580583 11.88049925 0.88049925 16.0580583 -4 20 C-4.48726562 19.6390625 -4.97453125 19.278125 -5.4765625 18.90625 C-12.3987009 14.37539577 -18.87905612 13.73715175 -27 15 C-33.84795651 17.3623152 -38.55742211 21.66122558 -42.0625 27.95703125 C-43.23564137 31.76485263 -42.93154516 35.15631654 -42.625 39.0625 C-42.27506743 43.7083439 -42.41914482 46.3179352 -45.578125 50.02734375 C-52.97327132 56 -52.97327132 56 -57 56 C-57.33 56.66 -57.66 57.32 -58 58 C-63.16905716 45.81579383 -64.14555836 33.16441955 -59.32421875 20.6796875 C-54.34364442 10.60100316 -45.55187769 2.04073719 -35 -2 C-23.60325569 -5.77619399 -10.81062753 -5.41311364 0 0 Z " fill="#FF4200" transform="translate(70,12)"/>
<path d="M0 0 C5.82076811 -0.02290639 11.641381 -0.04283426 17.4621582 -0.05493164 C19.44393441 -0.05997267 21.42570689 -0.06680538 23.4074707 -0.07543945 C26.24952109 -0.08751515 29.09152247 -0.09323045 31.93359375 -0.09765625 C32.82525742 -0.10281754 33.71692108 -0.10797882 34.63560486 -0.11329651 C36.75740601 -0.11349177 38.8791078 -0.0621003 41 0 C43.20086195 2.20086195 42.31078196 7.4572991 42.31689453 10.5 C42.11175753 21.94715114 38.05935011 30.94064989 30 39 C25.55762647 38.76854861 23.35479514 36.91570289 20.1875 33.9375 C19.00220703 32.83728516 19.00220703 32.83728516 17.79296875 31.71484375 C17.20128906 31.14894531 16.60960938 30.58304688 16 30 C17 26 17 26 22 18 C14.74 18 7.48 18 0 18 C0 12.06 0 6.12 0 0 Z " fill="#2178CA" transform="translate(50,41)"/>
<path d="M0 0 C1.7541123 1.07666203 3.50312587 2.16163339 5.25 3.25 C6.71179688 4.15492187 6.71179688 4.15492187 8.203125 5.078125 C14.58582584 9.46400323 14.58582584 9.46400323 15.50097656 12.85791016 C16.31411188 18.47975951 17.1577608 25.81227529 13.83691406 30.71826172 C10.68815213 33.89134249 7.0365463 36.08795175 3 38 C2.34 38 1.68 38 1 38 C0.67 38.66 0.34 39.32 0 40 C-5.42955476 27.20176379 -5.85278699 15.06005492 -0.875 2.0625 C-0.58625 1.381875 -0.2975 0.70125 0 0 Z " fill="#FEC107" transform="translate(12,30)"/>
</svg>
