<?xml version="1.0" encoding="UTF-8"?>
<svg version="1.1" xmlns="http://www.w3.org/2000/svg" width="100" height="100">
<path d="M0 0 C8.80288754 6.34043826 15.4186507 14.72648904 17.58203125 25.4921875 C18.92007691 37.90936834 17.85729499 48.88109459 10.39453125 59.2421875 C3.58210875 67.3274193 -4.72289951 73.55522767 -15.48876953 74.71533203 C-28.40007937 75.61089799 -39.16843729 74.04490094 -49.3515625 65.46484375 C-57.86959925 57.33325857 -62.42046403 48.68416257 -62.88867188 36.85693359 C-63.04371176 24.34263074 -60.22647828 14.71931927 -51.41796875 5.4921875 C-37.63784493 -7.66275112 -16.31305228 -10.17259803 0 0 Z M-20.41796875 18.4921875 C-21.5500735 20.62297888 -21.5500735 20.62297888 -21.41796875 23.4921875 C-17.95296875 26.9571875 -17.95296875 26.9571875 -14.41796875 30.4921875 C-22.99796875 30.8221875 -31.57796875 31.1521875 -40.41796875 31.4921875 C-40.74796875 33.1421875 -41.07796875 34.7921875 -41.41796875 36.4921875 C-39.64306329 38.26709296 -37.04011973 37.72718723 -34.6328125 37.80859375 C-33.46298828 37.85048828 -32.29316406 37.89238281 -31.08789062 37.93554688 C-29.2403418 37.99452148 -29.2403418 37.99452148 -27.35546875 38.0546875 C-26.11990234 38.09787109 -24.88433594 38.14105469 -23.61132812 38.18554688 C-20.5469954 38.29202948 -17.48257802 38.39404174 -14.41796875 38.4921875 C-14.92400635 38.96342041 -15.43004395 39.43465332 -15.95141602 39.92016602 C-16.60166748 40.54334717 -17.25191895 41.16652832 -17.921875 41.80859375 C-18.5722876 42.42420166 -19.2227002 43.03980957 -19.89282227 43.67407227 C-21.74109895 45.47193143 -21.74109895 45.47193143 -21.35546875 48.4296875 C-20.89140625 49.450625 -20.89140625 49.450625 -20.41796875 50.4921875 C-15.49995143 49.59617891 -13.04188513 46.66736152 -9.60546875 43.2421875 C-8.99509766 42.66855469 -8.38472656 42.09492187 -7.75585938 41.50390625 C-4.40629094 38.28961963 -4.40629094 38.28961963 -3.1328125 33.99609375 C-5.05815458 30.24489535 -7.78025515 27.59176089 -10.79296875 24.6796875 C-11.38335937 24.08220703 -11.97375 23.48472656 -12.58203125 22.86914062 C-15.86024829 19.30087978 -15.86024829 19.30087978 -20.41796875 18.4921875 Z " fill="#000000" transform="translate(72.41796875,15.5078125)"/>
</svg>
