<?xml version="1.0" encoding="UTF-8"?>
<svg version="1.1" xmlns="http://www.w3.org/2000/svg" width="100" height="100">
<path d="M0 0 C2.29932398 1.70017695 4.36811271 3.48064939 6.43359375 5.45703125 C7.38878906 6.3696875 7.38878906 6.3696875 8.36328125 7.30078125 C17.39688656 16.76086578 19.94232444 27.68069259 19.7109375 40.33984375 C19.1958182 51.51870142 13.1739575 61.13308998 5.24609375 68.70703125 C-5.14971761 77.51972413 -16.32624777 79.24012934 -29.56640625 78.45703125 C-39.84518181 76.75591552 -50.33846618 70.90194296 -56.56640625 62.45703125 C-63.53739893 50.23334668 -66.60220761 39.13885648 -63.91796875 25.0546875 C-60.5902526 14.00496335 -52.98016907 4.48194327 -42.7890625 -1.05078125 C-29.14749151 -7.45957299 -13.25851753 -7.97125483 0 0 Z M-49.64453125 13.78515625 C-55.91503535 22.16339282 -58.71134637 31.00536354 -57.56640625 41.45703125 C-56.09093327 50.58471213 -51.29847377 58.26966215 -44.39453125 64.37890625 C-35.56083768 70.70658746 -25.76543218 72.78238885 -15.1015625 71.05859375 C-6.21472359 68.89655079 1.6082561 63.51641352 6.93359375 56.08203125 C12.43883322 46.80586185 13.98389294 37.00225453 11.43359375 26.51953125 C8.48925845 17.78283539 2.71507579 10.31405147 -5.21875 5.60546875 C-20.80104631 -2.01715207 -37.90009374 0.62785408 -49.64453125 13.78515625 Z " fill="#000000" transform="translate(72.56640625,13.54296875)"/>
<path d="M0 0 C5.47761602 0.28938349 8.22678993 3.56143363 11.875 7.25 C12.48085938 7.82363281 13.08671875 8.39726563 13.7109375 8.98828125 C17.9097642 13.17756517 17.9097642 13.17756517 18.2734375 16.4921875 C16.37021563 20.2402502 13.72135924 22.93615016 10.75 25.875 C10.17636719 26.48085938 9.60273437 27.08671875 9.01171875 27.7109375 C7.40210007 29.32422273 5.90811071 30.7529216 4 32 C1.078125 31.8828125 1.078125 31.8828125 -1 31 C-1.33 30.01 -1.66 29.02 -2 28 C-0.78515625 26.17578125 -0.78515625 26.17578125 0.9375 24.3125 C1.50339844 23.68988281 2.06929687 23.06726563 2.65234375 22.42578125 C3.09707031 21.95527344 3.54179688 21.48476563 4 21 C3.34402832 20.98018066 2.68805664 20.96036133 2.01220703 20.93994141 C-0.95061069 20.84487493 -3.91270532 20.73512248 -6.875 20.625 C-7.90753906 20.5940625 -8.94007812 20.563125 -10.00390625 20.53125 C-10.99003906 20.49257813 -11.97617187 20.45390625 -12.9921875 20.4140625 C-13.90339355 20.3826416 -14.81459961 20.3512207 -15.75341797 20.31884766 C-18 20 -18 20 -20 18 C-19.44444444 13.44444444 -19.44444444 13.44444444 -18 12 C-16.36743242 11.84285346 -14.72864662 11.74914586 -13.08984375 11.68359375 C-11.60581055 11.62075195 -11.60581055 11.62075195 -10.09179688 11.55664062 C-8.53041992 11.49766602 -8.53041992 11.49766602 -6.9375 11.4375 C-5.89271484 11.39431641 -4.84792969 11.35113281 -3.77148438 11.30664062 C-1.18113116 11.20018775 1.40932186 11.0981724 4 11 C2.02 8.69 0.04 6.38 -2 4 C-1.34 2.68 -0.68 1.36 0 0 Z " fill="#000000" transform="translate(51,34)"/>
</svg>
