<?xml version="1.0" encoding="UTF-8"?>
<svg version="1.1" xmlns="http://www.w3.org/2000/svg" width="100" height="100">
<path d="M0 0 C7.62133409 4.03215142 14.72253061 9.00407917 21.84179688 13.8515625 C24.87088209 15.89852111 27.94624708 17.8756752 31.01953125 19.85546875 C32.55859375 21.01171875 32.55859375 21.01171875 33.55859375 23.01171875 C33.66314301 24.46574179 33.70724843 25.92435656 33.71972656 27.38208008 C33.72933411 28.28674515 33.73894165 29.19141022 33.74884033 30.12348938 C33.75309021 31.10367538 33.75734009 32.08386139 33.76171875 33.09375 C33.76741882 34.1000798 33.7731189 35.10640961 33.7789917 36.14323425 C33.7884496 38.2758987 33.79497881 40.40857782 33.79882812 42.54125977 C33.80852335 45.80055351 33.83953534 49.05921401 33.87109375 52.31835938 C33.87762476 54.38931917 33.88287484 56.46028348 33.88671875 58.53125 C33.89906555 59.50536331 33.91141235 60.47947662 33.9241333 61.48310852 C33.90285784 67.96352197 32.92771757 71.34645446 28.55859375 76.26171875 C25.16430551 79.23172096 22.12252059 79.14451702 17.78955078 79.17285156 C16.60467072 79.18245911 15.41979065 79.19206665 14.19900513 79.20196533 C12.9177475 79.20621521 11.63648987 79.21046509 10.31640625 79.21484375 C9.00074677 79.22054382 7.68508728 79.2262439 6.32955933 79.2321167 C3.54375828 79.24261594 0.75798601 79.24846567 -2.02783203 79.25195312 C-5.59108883 79.25743631 -9.15396322 79.28146457 -12.71710014 79.30992508 C-16.12259067 79.33306918 -19.52802865 79.33500212 -22.93359375 79.33984375 C-24.8494075 79.35836395 -24.8494075 79.35836395 -26.80392456 79.3772583 C-27.99510895 79.3742572 -29.18629333 79.3712561 -30.41357422 79.36816406 C-31.4593161 79.37180969 -32.50505798 79.37545532 -33.58248901 79.37921143 C-36.8805028 78.95527613 -38.72082436 77.87778766 -41.44140625 76.01171875 C-42.64458496 75.35562622 -42.64458496 75.35562622 -43.87207031 74.6862793 C-47.76561748 72.22614697 -50.08130724 70.47103136 -51.21289062 65.88525391 C-51.43683442 62.15987696 -51.37461736 58.55141974 -51.19140625 54.82421875 C-51.1759375 53.55384766 -51.16046875 52.28347656 -51.14453125 50.97460938 C-50.89735567 41.23692131 -50.89735567 41.23692131 -47.44140625 37.01171875 C-47.07786082 33.4650372 -47.0658387 29.98577559 -47.04296875 26.421875 C-46.26499726 22.01168595 -44.90536322 20.79764419 -41.44140625 18.01171875 C-38.9805982 16.30084125 -36.44982808 14.73845175 -33.87890625 13.19921875 C-32.45605031 12.33103269 -31.03418492 11.4612213 -29.61328125 10.58984375 C-28.91138672 10.15994141 -28.20949219 9.73003906 -27.48632812 9.28710938 C-23.51283405 6.80889387 -19.65903523 4.15538992 -15.796875 1.5078125 C-10.76277607 -1.68963342 -5.49525866 -2.2244807 0 0 Z " fill="#1461CC" transform="translate(56.44140625,10.98828125)"/>
<path d="M0 0 C0.33 0 0.66 0 1 0 C1.07425639 5.88986463 1.12865268 11.77945566 1.16479492 17.66967773 C1.17986465 19.67265572 1.2003241 21.6756008 1.22631836 23.6784668 C1.26278127 26.56046681 1.27974461 29.44202984 1.29296875 32.32421875 C1.30845261 33.21711105 1.32393646 34.11000336 1.33988953 35.029953 C1.34156989 41.26285468 0.19996471 44.5250397 -4 49.25 C-7.39428824 52.22000221 -10.43607316 52.13279827 -14.76904297 52.16113281 C-15.95392303 52.17074036 -17.1388031 52.1803479 -18.35958862 52.19024658 C-19.64084625 52.19449646 -20.92210388 52.19874634 -22.2421875 52.203125 C-23.55784698 52.20882507 -24.87350647 52.21452515 -26.22903442 52.22039795 C-29.01483547 52.23089719 -31.80060774 52.23674692 -34.58642578 52.24023438 C-38.14968258 52.24571756 -41.71255697 52.26974582 -45.27569389 52.29820633 C-48.68118442 52.32135043 -52.0866224 52.32328337 -55.4921875 52.328125 C-57.40800125 52.3466452 -57.40800125 52.3466452 -59.36251831 52.36553955 C-60.5537027 52.36253845 -61.74488708 52.35953735 -62.97216797 52.35644531 C-64.01790985 52.36009094 -65.06365173 52.36373657 -66.14108276 52.36749268 C-70.44092424 51.81477984 -73.0706959 50.12157391 -75.8125 46.8125 C-76.204375 46.214375 -76.59625 45.61625 -77 45 C-76.22809326 44.9906543 -75.45618652 44.98130859 -74.66088867 44.97167969 C-71.16910418 44.91805294 -67.67867069 44.83438983 -64.1875 44.75 C-62.97255859 44.73582031 -61.75761719 44.72164062 -60.50585938 44.70703125 C-58.76079102 44.65869141 -58.76079102 44.65869141 -56.98046875 44.609375 C-55.90692139 44.58842773 -54.83337402 44.56748047 -53.72729492 44.54589844 C-50.9144876 44.23845306 -50.9144876 44.23845306 -49.15820312 42.21875 C-47.95291949 39.90980866 -47.58607213 38.47230418 -47.48828125 35.890625 C-47.43510742 34.75947266 -47.43510742 34.75947266 -47.38085938 33.60546875 C-47.35830078 32.82816406 -47.33574219 32.05085938 -47.3125 31.25 C-47.27833984 30.45722656 -47.24417969 29.66445312 -47.20898438 28.84765625 C-47.12680896 26.89892496 -47.06171955 24.94948638 -47 23 C-46.113125 23.515625 -45.22625 24.03125 -44.3125 24.5625 C-40.62075731 26.16457702 -39.73361887 26.09332618 -36 25 C-33.66380629 23.83863093 -33.66380629 23.83863093 -31.375 22.33984375 C-30.07622925 21.52567993 -30.07622925 21.52567993 -28.7512207 20.69506836 C-27.84331787 20.1150708 -26.93541504 19.53507324 -26 18.9375 C-24.11877188 17.74955284 -22.23726169 16.56205225 -20.35546875 15.375 C-18.98527588 14.50681641 -18.98527588 14.50681641 -17.58740234 13.62109375 C-15.34242192 12.21453874 -13.08328259 10.8444332 -10.80078125 9.5 C-10.20072266 9.14429932 -9.60066406 8.78859863 -8.98242188 8.42211914 C-7.42505409 7.50386413 -5.8630883 6.59341977 -4.30078125 5.68359375 C-1.91396035 3.93704059 -1.02434649 2.73758098 0 0 Z " fill="#1EA7FA" transform="translate(89,38)"/>
<path d="M0 0 C13.57489907 7.28227048 13.57489907 7.28227048 17.27734375 12.8359375 C17.90234375 16.1484375 17.90234375 16.1484375 17.27734375 19.8359375 C11.81609543 25.37456226 4.07320126 29.16330878 -2.53515625 33.1484375 C-3.57091797 33.78072266 -4.60667969 34.41300781 -5.67382812 35.06445312 C-13.32684152 39.70399926 -13.32684152 39.70399926 -16.72265625 40.8359375 C-18.72265625 38.8359375 -18.72265625 38.8359375 -19.72265625 36.8359375 C-20.38265625 36.8359375 -21.04265625 36.8359375 -21.72265625 36.8359375 C-21.39265625 38.1559375 -21.06265625 39.4759375 -20.72265625 40.8359375 C-23.59765625 40.9609375 -23.59765625 40.9609375 -26.72265625 40.8359375 C-27.38265625 40.1759375 -28.04265625 39.5159375 -28.72265625 38.8359375 C-33.59366784 37.89504124 -38.02332063 37.8563205 -42.37890625 40.3671875 C-44.58117704 42.11184358 -46.65240542 43.93858674 -48.72265625 45.8359375 C-49.71265625 46.3309375 -49.71265625 46.3309375 -50.72265625 46.8359375 C-51.10107042 41.28586301 -51.10107042 41.28586301 -49.234375 39.06640625 C-46.6257412 35.21749178 -47.35324981 30.77010089 -47.32421875 26.24609375 C-46.54624726 21.8359047 -45.18661322 20.62186294 -41.72265625 17.8359375 C-39.2618482 16.12506 -36.73107808 14.5626705 -34.16015625 13.0234375 C-32.73730031 12.15525144 -31.31543492 11.28544005 -29.89453125 10.4140625 C-29.19263672 9.98416016 -28.49074219 9.55425781 -27.76757812 9.11132812 C-23.79408405 6.63311262 -19.94028523 3.97960867 -16.078125 1.33203125 C-10.88417337 -1.96694632 -5.59596149 -2.39253447 0 0 Z " fill="#3478E8" transform="translate(56.72265625,11.1640625)"/>
<path d="M0 0 C4.07570773 1.47933096 7.59251094 3.42578281 11.25 5.75 C12.83554688 6.73226563 12.83554688 6.73226563 14.453125 7.734375 C17 10 17 10 18.046875 12.953125 C17.9880967 16.77371444 17.47551732 18.07608708 15 21 C12.41549294 22.92966422 9.67117029 24.52282234 6.875 26.125 C5.25234884 27.07808258 3.63129487 28.03388882 2.01171875 28.9921875 C1.18333496 29.48170898 0.35495117 29.97123047 -0.49853516 30.47558594 C-2.97776242 31.98644823 -5.38849039 33.56850547 -7.79296875 35.1953125 C-8.55270996 35.70690918 -9.31245117 36.21850586 -10.09521484 36.74560547 C-11.54724155 37.73078368 -12.99195108 38.72685454 -14.42822266 39.73486328 C-19.32212781 43.02577824 -19.32212781 43.02577824 -22.7734375 42.89453125 C-26.0549042 41.57618761 -28.35666302 40.39744517 -31 38 C-32.25081433 33.23127036 -32.25081433 33.23127036 -31 30 C-28.16076075 26.96717625 -24.55988445 25.07237424 -21 23 C-19.3164623 21.99035605 -17.63428238 20.97844621 -15.953125 19.96484375 C-13.23575318 18.32776667 -10.51580434 16.6968077 -7.78222656 15.08691406 C-6.9362793 14.58772461 -6.09033203 14.08853516 -5.21875 13.57421875 C-4.0730957 12.90265747 -4.0730957 12.90265747 -2.90429688 12.2175293 C-0.86920677 11.01244115 -0.86920677 11.01244115 1 9 C1.34216235 4.34805286 1.34216235 4.34805286 0 0 Z " fill="#2644BF" transform="translate(72,22)"/>
<path d="M0 0 C7.78030377 4.15826378 7.78030377 4.15826378 9.06640625 6.73046875 C7.08640625 6.07046875 5.10640625 5.41046875 3.06640625 4.73046875 C3.56140625 6.21546875 3.56140625 6.21546875 4.06640625 7.73046875 C-0.62685191 13.12823366 -6.56415221 16.46588931 -12.62109375 20.16796875 C-13.65943359 20.81056641 -14.69777344 21.45316406 -15.76757812 22.11523438 C-17.82504894 23.38583547 -19.88603319 24.65076686 -21.95068359 25.90966797 C-23.91576275 27.10917365 -25.87463468 28.31891713 -27.82666016 29.53955078 C-28.71401855 30.08853027 -29.60137695 30.63750977 -30.515625 31.203125 C-31.29784424 31.69176025 -32.08006348 32.18039551 -32.88598633 32.68383789 C-34.93359375 33.73046875 -34.93359375 33.73046875 -37.93359375 33.73046875 C-39.68154405 28.48661786 -40.12751576 24.25724608 -39.93359375 18.73046875 C-40.59359375 18.40046875 -41.25359375 18.07046875 -41.93359375 17.73046875 C-40.9178125 17.10140625 -39.90203125 16.47234375 -38.85546875 15.82421875 C-31.2357407 11.09079354 -23.6889598 6.29931968 -16.2890625 1.2265625 C-10.96914822 -2.1524212 -5.69178175 -2.46315455 0 0 Z " fill="#57C1FC" transform="translate(56.93359375,11.26953125)"/>
<path d="M0 0 C4.62064467 2.20771996 8.89711729 4.72521673 13.1875 7.5 C13.80302734 7.89058594 14.41855469 8.28117187 15.05273438 8.68359375 C21.31806524 12.71567017 21.31806524 12.71567017 23 15 C23.43359375 17.12109375 23.43359375 17.12109375 23.4375 19.4375 C23.45683594 20.19933594 23.47617188 20.96117188 23.49609375 21.74609375 C22.77262022 25.03305615 21.76908671 26.07274984 19 28 C16.02902588 28.64677706 13.09556448 28.6998426 10.0625 28.75 C9.19165771 28.77674805 8.32081543 28.80349609 7.42358398 28.83105469 C4.61580475 28.90822039 1.80844862 28.95414778 -1 29 C-2.93750188 29.05201347 -4.87500188 29.10409662 -6.8125 29.15625 C-8.68745163 29.19027874 -10.56245455 29.22160773 -12.4375 29.25 C-13.31849365 29.2715918 -14.1994873 29.29318359 -15.10717773 29.31542969 C-19.8991735 29.33962934 -23.1583055 29.1882474 -27 26 C-28.01962653 24.68161481 -29.02266891 23.35003767 -30 22 C-29.22809326 21.9906543 -28.45618652 21.98130859 -27.66088867 21.97167969 C-24.16910418 21.91805294 -20.67867069 21.83438983 -17.1875 21.75 C-15.97255859 21.73582031 -14.75761719 21.72164062 -13.50585938 21.70703125 C-11.76079102 21.65869141 -11.76079102 21.65869141 -9.98046875 21.609375 C-8.37014771 21.5779541 -8.37014771 21.5779541 -6.72729492 21.54589844 C-3.9144876 21.23845306 -3.9144876 21.23845306 -2.15820312 19.21875 C-0.95291949 16.90980866 -0.58607213 15.47230418 -0.48828125 12.890625 C-0.45283203 12.13652344 -0.41738281 11.38242188 -0.38085938 10.60546875 C-0.35830078 9.82816406 -0.33574219 9.05085938 -0.3125 8.25 C-0.27833984 7.45722656 -0.24417969 6.66445312 -0.20898438 5.84765625 C-0.12680896 3.89892496 -0.06171955 1.94948638 0 0 Z " fill="#39CEFD" transform="translate(42,61)"/>
<path d="M0 0 C0.33 0 0.66 0 1 0 C1.07425639 5.88986463 1.12865268 11.77945566 1.16479492 17.66967773 C1.17986465 19.67265572 1.2003241 21.6756008 1.22631836 23.6784668 C1.26278127 26.56046681 1.27974461 29.44202984 1.29296875 32.32421875 C1.30845261 33.21711105 1.32393646 34.11000336 1.33988953 35.029953 C1.34148867 40.96158984 0.3767157 44.24300979 -3.5625 48.8125 C-5 50 -5 50 -7 50 C-7.33 36.8 -7.66 23.6 -8 10 C-8.66 9.67 -9.32 9.34 -10 9 C-9.44570312 8.68546875 -8.89140625 8.3709375 -8.3203125 8.046875 C-7.23363281 7.40492187 -7.23363281 7.40492187 -6.125 6.75 C-5.40570313 6.33234375 -4.68640625 5.9146875 -3.9453125 5.484375 C-1.79125838 3.84071924 -1.00859415 2.48432665 0 0 Z " fill="#71B0FB" transform="translate(89,38)"/>
<path d="M0 0 C3.95403662 0.26360244 5.65370756 0.86143155 8.75 3.25 C11.41836411 7.25254616 11.5840238 10.54313299 10.75 15.25 C8.56840855 18.00569447 6.87822506 19.68588747 3.75 21.25 C-0.39135035 21.64069343 -2.56186812 21.68382227 -6.125 19.4375 C-9.37972054 16.08705239 -9.63866466 12.8483037 -9.61328125 8.25390625 C-9.00346919 4.89010423 -6.81556176 3.31496434 -4.25 1.25 C-3.25 0.25 -3.25 0.25 0 0 Z " fill="#EEF4FB" transform="translate(23.25,54.75)"/>
<path d="M0 0 C0.66 4.95 1.32 9.9 2 15 C3.65 14.67 5.3 14.34 7 14 C6.34 15.32 5.68 16.64 5 18 C9.29 18 13.58 18 18 18 C18.33 19.32 18.66 20.64 19 22 C16.125 22.125 16.125 22.125 13 22 C12.34 21.34 11.68 20.68 11 20 C6.12898841 19.05910374 1.69933562 19.020383 -2.65625 21.53125 C-4.85852079 23.27590608 -6.92974917 25.10264924 -9 27 C-9.66 27.33 -10.32 27.66 -11 28 C-11.3784023 22.45009958 -11.3784023 22.45009958 -9.515625 20.234375 C-6.88762366 16.36010498 -7.57629957 11.86845296 -7.50390625 7.3125 C-7 4 -7 4 -5.15234375 1.5625 C-3 0 -3 0 0 0 Z " fill="#1E85E4" transform="translate(17,30)"/>
<path d="M0 0 C0.33 0 0.66 0 1 0 C1.04934399 5.94481181 1.08569282 11.88950509 1.10986328 17.83447266 C1.11993671 19.85793127 1.13359595 21.88137528 1.15087891 23.90478516 C1.17506847 26.80895589 1.18646949 29.71293461 1.1953125 32.6171875 C1.20563507 33.52556366 1.21595764 34.43393982 1.22659302 35.36984253 C1.22674408 36.21056305 1.22689514 37.05128357 1.22705078 37.91748047 C1.231492 38.65916473 1.23593323 39.400849 1.24050903 40.16500854 C1 42 1 42 -1 44 C-1.03867188 42.65421875 -1.03867188 42.65421875 -1.078125 41.28125 C-1.43985118 33.32327405 -2.46408321 26.04537667 -4.62792969 18.36914062 C-5.61516265 14.82959345 -6.44912527 11.67641113 -6 8 C-4.94140625 6.26953125 -4.94140625 6.26953125 -3.5625 4.8125 C-1.03259873 2.29170505 -1.03259873 2.29170505 0 0 Z " fill="#8EB0FA" transform="translate(89,38)"/>
<path d="M0 0 C2.4375 0.8125 2.4375 0.8125 4.4375 2.8125 C4.98532609 8.83858696 4.98532609 8.83858696 3.3125 11.8125 C0.45348528 13.33730785 -1.52979714 12.6695682 -4.5625 11.8125 C-6.08741998 8.76266004 -5.79812548 6.1701631 -5.5625 2.8125 C-3.9058551 0.02236122 -3.24544844 -0.23747184 0 0 Z " fill="#1465D1" transform="translate(24.5625,59.1875)"/>
<path d="M0 0 C0.66 0.33 1.32 0.66 2 1 C2 1.66 2 2.32 2 3 C2.7425 3.2475 3.485 3.495 4.25 3.75 C7.21386189 5.09720995 8.77768299 6.66371802 11 9 C10.33613281 9.38671875 9.67226563 9.7734375 8.98828125 10.171875 C4.41482889 12.86921041 0.02747372 15.50952278 -4 19 C-4.3767061 13.47497725 -4.3767061 13.47497725 -2.5625 11.1875 C-0.14175914 7.7984628 -0.25249951 4.07481971 0 0 Z " fill="#1E96F6" transform="translate(10,39)"/>
<path d="M0 0 C3.20994713 3.20994713 2.82486892 7.35349552 3.33984375 11.73828125 C4.01741403 15.08603975 5.07668665 17.20674111 7 20 C5.37660195 21.70884005 3.70680947 23.37446717 2 25 C1.34 25 0.68 25 0 25 C0 16.75 0 8.5 0 0 Z " fill="#47B3FD" transform="translate(82,63)"/>
<path d="M0 0 C2 2 2 2 2.125 4.625 C2.08375 5.40875 2.0425 6.1925 2 7 C2.99 6.67 3.98 6.34 5 6 C5.05790353 9.29159316 5.09356261 12.58305603 5.125 15.875 C5.14175781 16.81214844 5.15851563 17.74929687 5.17578125 18.71484375 C5.18222656 19.61074219 5.18867187 20.50664063 5.1953125 21.4296875 C5.20578613 22.25710449 5.21625977 23.08452148 5.22705078 23.93701172 C5 26 5 26 3 28 C2.95101562 27.02160156 2.90203125 26.04320313 2.8515625 25.03515625 C2.44006241 17.81971493 1.72955419 11.03352039 0 4 C0 2.68 0 1.36 0 0 Z " fill="#7FB7FC" transform="translate(85,54)"/>
<path d="M0 0 C0.99 0.495 0.99 0.495 2 1 C2 1.66 2 2.32 2 3 C2.7425 3.2475 3.485 3.495 4.25 3.75 C7.20124062 5.09147301 8.84814974 6.60905526 11 9 C7.37 9 3.74 9 0 9 C0 6.03 0 3.06 0 0 Z " fill="#57D6FD" transform="translate(10,39)"/>
<path d="M0 0 C2.20191049 3.64517956 2.59843494 7.18755402 3.125 11.375 C3.29257813 12.66148438 3.46015625 13.94796875 3.6328125 15.2734375 C3.95573788 18.55078659 4.07128319 21.7107898 4 25 C1.29567328 22.29567328 1.43216653 20.25780287 0.9375 16.5 C0.45495439 12.10241884 0.45495439 12.10241884 -1 8 C-1.23076923 2.46153846 -1.23076923 2.46153846 0 0 Z " fill="#60B2FC" transform="translate(83,55)"/>
<path d="M0 0 C3 3 3 3 3.1875 6.1875 C3.0946875 7.5796875 3.0946875 7.5796875 3 9 C2.01 9 1.02 9 0 9 C0 6.03 0 3.06 0 0 Z " fill="#63DBFE" transform="translate(10,39)"/>
<path d="M0 0 C3.37503669 1.1858237 5.64722731 2.27573689 8 5 C6.02 4.34 4.04 3.68 2 3 C2.33 3.99 2.66 4.98 3 6 C2.01 6.99 1.02 7.98 0 9 C0 6.03 0 3.06 0 0 Z " fill="#8C95FA" transform="translate(58,13)"/>
<path d="M0 0 C0.763125 0.0825 1.52625 0.165 2.3125 0.25 C0.6625 1.9 -0.9875 3.55 -2.6875 5.25 C-3.6775 4.92 -4.6675 4.59 -5.6875 4.25 C-3.34903846 0.31153846 -3.34903846 0.31153846 0 0 Z " fill="#2BA1FB" transform="translate(11.6875,47.75)"/>
<path d="M0 0 C1.98 0 3.96 0 6 0 C6.33 1.32 6.66 2.64 7 4 C5.02 4 3.04 4 1 4 C0.67 2.68 0.34 1.36 0 0 Z " fill="#237BDC" transform="translate(29,48)"/>
</svg>
