<?xml version="1.0" encoding="UTF-8"?>
<svg version="1.1" xmlns="http://www.w3.org/2000/svg" width="100" height="100">
<path d="M0 0 C3.74685428 1.06122084 5.56460061 2.54539056 8.45703125 5.140625 C12.04567601 8.30347861 15.67207148 11.32817302 19.52734375 14.1640625 C20.65789185 14.9988916 20.65789185 14.9988916 21.8112793 15.85058594 C23.28955853 16.93454082 24.7751046 18.00867662 26.26879883 19.07128906 C26.95868896 19.58143555 27.6485791 20.09158203 28.359375 20.6171875 C29.27384399 21.27581787 29.27384399 21.27581787 30.20678711 21.94775391 C35.61201479 27.36728293 37.71143997 32.23235033 37.78796387 39.88594055 C37.7715686 40.86330673 37.75517334 41.84067291 37.73828125 42.84765625 C37.73832153 43.87243576 37.73836182 44.89721527 37.73840332 45.95304871 C37.73306853 48.10539937 37.71557398 50.25775089 37.68652344 52.40991211 C37.64443435 55.71072446 37.64547936 59.00950969 37.65234375 62.31054688 C37.64185851 64.40626422 37.62892401 66.50197106 37.61328125 68.59765625 C37.61297913 70.07888725 37.61297913 70.07888725 37.6126709 71.59004211 C37.59675903 72.50496933 37.58084717 73.41989655 37.56445312 74.36254883 C37.55603394 75.16670731 37.54761475 75.97086578 37.53894043 76.7993927 C37.04690967 79.40823315 36.24253519 80.30391687 34.14453125 81.890625 C31.46484375 82.27880859 31.46484375 82.27880859 28.26953125 82.2890625 C27.1196875 82.29292969 25.96984375 82.29679687 24.78515625 82.30078125 C23.58375 82.28917969 22.38234375 82.27757813 21.14453125 82.265625 C19.943125 82.27722656 18.74171875 82.28882812 17.50390625 82.30078125 C15.77914062 82.29498047 15.77914062 82.29498047 14.01953125 82.2890625 C12.43785156 82.28398682 12.43785156 82.28398682 10.82421875 82.27880859 C8.14453125 81.890625 8.14453125 81.890625 6.2956543 80.7121582 C4.69109726 78.1731126 4.80410401 76.3375411 4.8515625 73.34765625 C4.86606445 71.73793945 4.86606445 71.73793945 4.88085938 70.09570312 C4.90599609 68.97615234 4.93113281 67.85660156 4.95703125 66.703125 C4.97733398 65.00639648 4.97733398 65.00639648 4.99804688 63.27539062 C5.0334282 60.48026618 5.08723546 57.68538611 5.14453125 54.890625 C1.18453125 54.890625 -2.77546875 54.890625 -6.85546875 54.890625 C-6.80326172 57.43716797 -6.80326172 57.43716797 -6.75 60.03515625 C-6.72186524 62.25780263 -6.69456475 64.48045968 -6.66796875 66.703125 C-6.64283203 67.82267578 -6.61769531 68.94222656 -6.59179688 70.09570312 C-6.58212891 71.16884766 -6.57246094 72.24199219 -6.5625 73.34765625 C-6.54678955 74.33741455 -6.5310791 75.32717285 -6.51489258 76.34692383 C-6.85546875 78.890625 -6.85546875 78.890625 -8.0065918 80.7121582 C-10.63087298 82.38486456 -12.63249468 82.27912096 -15.73046875 82.2890625 C-16.8803125 82.29292969 -18.03015625 82.29679687 -19.21484375 82.30078125 C-20.41625 82.28917969 -21.61765625 82.27757813 -22.85546875 82.265625 C-24.056875 82.27722656 -25.25828125 82.28882812 -26.49609375 82.30078125 C-28.22085937 82.29498047 -28.22085937 82.29498047 -29.98046875 82.2890625 C-31.03492188 82.28567871 -32.089375 82.28229492 -33.17578125 82.27880859 C-36.29303825 81.82723802 -36.9658941 81.33643247 -38.85546875 78.890625 C-39.24987793 76.7993927 -39.24987793 76.7993927 -39.27539062 74.36254883 C-39.29130249 73.44762161 -39.30721436 72.5326944 -39.3236084 71.59004211 C-39.32391052 70.10881111 -39.32391052 70.10881111 -39.32421875 68.59765625 C-39.33183228 67.57766037 -39.3394458 66.55766449 -39.34729004 65.50675964 C-39.35810272 63.34559578 -39.36093942 61.1843796 -39.35644531 59.02319336 C-39.35547744 55.73265934 -39.39699418 52.4444914 -39.44140625 49.15429688 C-39.44661676 47.05208818 -39.44930139 44.9498714 -39.44921875 42.84765625 C-39.46561401 41.87029007 -39.48200928 40.89292389 -39.49890137 39.88594055 C-39.43323931 33.31870484 -38.10286878 28.96404882 -33.85546875 23.890625 C-31.82447557 21.92606636 -29.70338507 20.23710822 -27.41796875 18.578125 C-26.18326741 17.64626557 -24.94890285 16.71395978 -23.71484375 15.78125 C-23.08255859 15.31009766 -22.45027344 14.83894531 -21.79882812 14.35351562 C-18.54318079 11.90278211 -15.36039933 9.36028473 -12.16796875 6.828125 C-3.3762517 -0.12932291 -3.3762517 -0.12932291 0 0 Z M-8.23046875 13.203125 C-9.28712637 14.12202281 -10.34580691 15.03859837 -11.40625 15.953125 C-11.9626416 16.43394531 -12.5190332 16.91476563 -13.09228516 17.41015625 C-14.90841442 18.93508118 -16.76440659 20.38810138 -18.6484375 21.828125 C-19.27637207 22.30854248 -19.90430664 22.78895996 -20.55126953 23.28393555 C-21.77031545 24.21073569 -22.99378513 25.13175368 -24.22216797 26.04614258 C-27.70350125 28.71189778 -30.03064125 30.90123437 -31.85546875 34.890625 C-32.25351783 37.97599631 -32.20508275 41.02244384 -32.1484375 44.12890625 C-32.14419266 45.00967331 -32.13994781 45.89044037 -32.13557434 46.79789734 C-32.11883519 49.5999561 -32.08119205 52.40128509 -32.04296875 55.203125 C-32.02791574 57.10741146 -32.01422841 59.01170924 -32.00195312 60.91601562 C-31.97150405 65.57472337 -31.91277473 70.23186118 -31.85546875 74.890625 C-25.91546875 74.890625 -19.97546875 74.890625 -13.85546875 74.890625 C-13.81808594 73.34890625 -13.78070313 71.8071875 -13.7421875 70.21875 C-13.67652795 68.192684 -13.61008061 66.16664342 -13.54296875 64.140625 C-13.52041016 63.12484375 -13.49785156 62.1090625 -13.47460938 61.0625 C-13.42143555 59.59296875 -13.42143555 59.59296875 -13.3671875 58.09375 C-13.34100342 57.19301758 -13.31481934 56.29228516 -13.2878418 55.36425781 C-12.76980674 52.40054737 -11.98954471 51.00266283 -9.85546875 48.890625 C-7.91015625 48.37304688 -7.91015625 48.37304688 -5.73046875 48.359375 C-4.9415625 48.35421875 -4.15265625 48.3490625 -3.33984375 48.34375 C-2.52 48.35921875 -1.70015625 48.3746875 -0.85546875 48.390625 C-0.035625 48.37515625 0.78421875 48.3596875 1.62890625 48.34375 C2.4178125 48.34890625 3.20671875 48.3540625 4.01953125 48.359375 C5.09847656 48.36614258 5.09847656 48.36614258 6.19921875 48.37304688 C8.14453125 48.890625 8.14453125 48.890625 9.87036133 50.59863281 C11.36175027 53.28136118 11.56739728 55.03721639 11.65625 58.09375 C11.69169922 59.0734375 11.72714844 60.053125 11.76367188 61.0625 C11.79750977 62.58617188 11.79750977 62.58617188 11.83203125 64.140625 C11.86619141 65.171875 11.90035156 66.203125 11.93554688 67.265625 C12.0179034 69.80691199 12.08289718 72.34875101 12.14453125 74.890625 C18.08453125 74.890625 24.02453125 74.890625 30.14453125 74.890625 C30.21348304 69.28509957 30.27319202 63.6810514 30.30932617 58.07543945 C30.32439253 56.16946419 30.34484949 54.26352348 30.37084961 52.35766602 C30.40732767 49.61465924 30.42427917 46.87211172 30.4375 44.12890625 C30.45298386 43.27976151 30.46846771 42.43061676 30.48442078 41.55574036 C30.48576137 36.82002957 30.22420636 33.72626065 27.14453125 29.890625 C25.52702288 28.22903063 25.52702288 28.22903063 23.703125 26.83984375 C23.04151367 26.30963623 22.37990234 25.77942871 21.69824219 25.2331543 C20.99989258 24.68699463 20.30154297 24.14083496 19.58203125 23.578125 C18.13800705 22.43230904 16.69399662 21.28647572 15.25 20.140625 C14.54794434 19.58761719 13.84588867 19.03460938 13.12255859 18.46484375 C11.39461503 17.0896549 9.69468148 15.6906133 8.0078125 14.265625 C7.14542969 13.54375 6.28304687 12.821875 5.39453125 12.078125 C4.6571875 11.45292969 3.91984375 10.82773437 3.16015625 10.18359375 C-1.76038477 7.02720019 -4.48632539 9.90520147 -8.23046875 13.203125 Z " fill="#000000" transform="translate(50.85546875,8.109375)"/>
</svg>
