<?xml version="1.0" encoding="UTF-8"?>
<svg version="1.1" xmlns="http://www.w3.org/2000/svg" width="100" height="100">
<path d="M0 0 C10.06866931 7.25087772 17.72756886 16.79280068 20.3125 29.25 C21.70668558 45.91292143 19.18676434 58.15716957 8.640625 71.33984375 C2.22382219 78.48333577 -8.09918475 84.61508614 -17.80297852 85.42700195 C-34.86566428 85.88895149 -46.79126814 83.44661518 -59.8125 71.75 C-70.07212814 61.14084545 -72.17133125 48.37416494 -71.96484375 34.2578125 C-71.50503107 21.94581333 -64.87448062 11.59167312 -56.171875 3.17578125 C-39.79726859 -9.51711334 -17.57628553 -10.86641977 0 0 Z M-26.6875 24.25 C-28.00012571 25.33552366 -28.00012571 25.33552366 -27.78515625 27.97265625 C-27.77355469 29.07480469 -27.76195312 30.17695312 -27.75 31.3125 C-27.729375 33.271875 -27.70875 35.23125 -27.6875 37.25 C-31.6475 37.25 -35.6075 37.25 -39.6875 37.25 C-39.6875 38.57 -39.6875 39.89 -39.6875 41.25 C-35.7275 41.25 -31.7675 41.25 -27.6875 41.25 C-27.6875 45.21 -27.6875 49.17 -27.6875 53.25 C-26.3675 53.25 -25.0475 53.25 -23.6875 53.25 C-23.6875 49.29 -23.6875 45.33 -23.6875 41.25 C-19.7275 41.25 -15.7675 41.25 -11.6875 41.25 C-11.6875 39.93 -11.6875 38.61 -11.6875 37.25 C-15.6475 37.25 -19.6075 37.25 -23.6875 37.25 C-23.6875 33.29 -23.6875 29.33 -23.6875 25.25 C-24.6775 24.92 -25.6675 24.59 -26.6875 24.25 Z " fill="#000000" transform="translate(75.6875,10.75)"/>
</svg>
