<?xml version="1.0" encoding="UTF-8"?>
<svg version="1.1" xmlns="http://www.w3.org/2000/svg" width="100" height="100">
<path d="M0 0 C10.06866931 7.25087772 17.72756886 16.79280068 20.3125 29.25 C21.70668558 45.91292143 19.18676434 58.15716957 8.640625 71.33984375 C2.22382219 78.48333577 -8.09918475 84.61508614 -17.80297852 85.42700195 C-34.86566428 85.88895149 -46.79126814 83.44661518 -59.8125 71.75 C-70.07212814 61.14084545 -72.17133125 48.37416494 -71.96484375 34.2578125 C-71.50503107 21.94581333 -64.87448062 11.59167312 -56.171875 3.17578125 C-39.79726859 -9.51711334 -17.57628553 -10.86641977 0 0 Z M-59.3046875 14.18359375 C-66.3717392 24.74424446 -67.93601941 35.84283836 -66.6875 48.25 C-64.05330406 58.63917796 -57.65044739 68.25211082 -48.6875 74.25 C-37.34051592 80.13833676 -25.71857745 82.53984696 -13.11328125 79.34375 C-0.29860322 74.224442 7.90519989 66.27791871 13.33203125 53.703125 C16.96257095 44.6195436 16.82304519 32.72551536 13.1875 23.625 C7.40354382 11.86212283 -0.61316566 4.32647893 -12.6875 -0.75 C-30.07906363 -5.7269926 -47.96402394 0.3331112 -59.3046875 14.18359375 Z " fill="#000000" transform="translate(75.6875,10.75)"/>
<path d="M0 0 C1.32 0 2.64 0 4 0 C4 4.62 4 9.24 4 14 C8.62 14 13.24 14 18 14 C18 15.32 18 16.64 18 18 C13.38 18 8.76 18 4 18 C4 22.62 4 27.24 4 32 C2.68 32 1.36 32 0 32 C0 27.38 0 22.76 0 18 C-4.62 18 -9.24 18 -14 18 C-14 16.68 -14 15.36 -14 14 C-9.38 14 -4.76 14 0 14 C0 9.38 0 4.76 0 0 Z " fill="#000000" transform="translate(48,34)"/>
</svg>
