<?xml version="1.0" encoding="UTF-8"?>
<svg version="1.1" xmlns="http://www.w3.org/2000/svg" width="100" height="100">
<path d="M0 0 C3.91508875 3.26257396 6.03956148 6.4051068 6.76757812 11.49023438 C6.77208984 12.80314453 6.77660156 14.11605469 6.78125 15.46875 C6.7850769 16.17849976 6.78890381 16.88824951 6.79284668 17.61950684 C6.79555462 19.11207508 6.78827191 20.60469168 6.77148438 22.09716797 C6.75005423 24.36925013 6.77131947 26.63817129 6.796875 28.91015625 C6.79423152 30.36719441 6.78910611 31.82423062 6.78125 33.28125 C6.77673828 34.59416016 6.77222656 35.90707031 6.76757812 37.25976562 C6.16709551 41.45408003 4.89124414 43.60063055 2.25 46.875 C-2.09440676 50.00701418 -5.50873476 50.2467532 -10.6328125 49.453125 C-14.40269642 48.4237102 -16.72882194 46.41824353 -18.85791016 43.20068359 C-20.09285339 39.98117916 -20.0748434 36.87793181 -20.0859375 33.4765625 C-20.0959227 32.40769302 -20.0959227 32.40769302 -20.10610962 31.31723022 C-20.11621288 29.81274996 -20.12092736 28.30822509 -20.12060547 26.80371094 C-20.12497289 24.51421393 -20.16129599 22.22665548 -20.19921875 19.9375 C-20.20508884 18.47136071 -20.20905695 17.00521233 -20.2109375 15.5390625 C-20.22530853 14.86074371 -20.23967957 14.18242493 -20.25448608 13.48355103 C-20.20715012 8.50382348 -18.83211378 5.72532618 -15.75 1.875 C-10.98288955 -2.09759204 -5.61066498 -2.29527204 0 0 Z M-9.35229492 8.99194336 C-11.34910575 11.68214457 -11.12226875 13.67926115 -11.11328125 17.00390625 C-11.11263672 18.20337891 -11.11199219 19.40285156 -11.11132812 20.63867188 C-11.09521484 21.89228516 -11.07910156 23.14589844 -11.0625 24.4375 C-11.06572266 25.69498047 -11.06894531 26.95246094 -11.07226562 28.24804688 C-11.52531413 34.65033147 -11.52531413 34.65033147 -8.75 39.875 C-5.44316534 39.58516731 -5.44316534 39.58516731 -2.75 37.875 C-2.4680795 33.42321895 -2.51816555 28.95964192 -2.5 24.5 C-2.4690625 22.6128125 -2.4690625 22.6128125 -2.4375 20.6875 C-2.43234375 19.48351562 -2.4271875 18.27953125 -2.421875 17.0390625 C-2.4125293 15.92998535 -2.40318359 14.8209082 -2.39355469 13.67822266 C-2.51910623 10.86573843 -2.51910623 10.86573843 -4.14550781 8.98974609 C-6.33033806 7.47180104 -7.16953019 7.47036045 -9.35229492 8.99194336 Z " fill="#000000" transform="translate(56.75,9.125)"/>
<path d="M0 0 C3.3 0 6.6 0 10 0 C10.3403125 2.0109375 10.3403125 2.0109375 10.6875 4.0625 C11.97281018 9.7001364 14.07952645 13.80151435 18.75390625 17.3203125 C23.97591663 20.33747405 29.07636656 20.9135015 35 20 C40.3590613 18.41940426 44.00816355 15.70389653 47.03515625 11.015625 C48.73879478 7.45660686 49.34352447 3.8791736 50 0 C53.3 0 56.6 0 60 0 C59.52544329 9.8075053 56.25614871 17.76732258 48.96875 24.52734375 C44.81418156 27.63502689 40.23270007 30 35 30 C35 34.29 35 38.58 35 43 C31.7 43 28.4 43 25 43 C25 38.71 25 34.42 25 30 C23.02 29.67 21.04 29.34 19 29 C11.45447668 25.71381882 6.00832689 19.68193263 2.125 12.5625 C0.78075526 8.30572499 0.34209597 4.44724757 0 0 Z " fill="#000000" transform="translate(20,45)"/>
</svg>
