<?xml version="1.0" encoding="UTF-8"?>
<svg version="1.1" xmlns="http://www.w3.org/2000/svg" width="100" height="100">
<path d="M0 0 C3.91508875 3.26257396 6.03956148 6.4051068 6.76757812 11.49023438 C6.77208984 12.80314453 6.77660156 14.11605469 6.78125 15.46875 C6.7850769 16.17849976 6.78890381 16.88824951 6.79284668 17.61950684 C6.79555462 19.11207508 6.78827191 20.60469168 6.77148438 22.09716797 C6.75005423 24.36925013 6.77131947 26.63817129 6.796875 28.91015625 C6.79423152 30.36719441 6.78910611 31.82423062 6.78125 33.28125 C6.77673828 34.59416016 6.77222656 35.90707031 6.76757812 37.25976562 C6.16709551 41.45408003 4.89124414 43.60063055 2.25 46.875 C-2.09440676 50.00701418 -5.50873476 50.2467532 -10.6328125 49.453125 C-14.40269642 48.4237102 -16.72882194 46.41824353 -18.85791016 43.20068359 C-20.09285339 39.98117916 -20.0748434 36.87793181 -20.0859375 33.4765625 C-20.0959227 32.40769302 -20.0959227 32.40769302 -20.10610962 31.31723022 C-20.11621288 29.81274996 -20.12092736 28.30822509 -20.12060547 26.80371094 C-20.12497289 24.51421393 -20.16129599 22.22665548 -20.19921875 19.9375 C-20.20508884 18.47136071 -20.20905695 17.00521233 -20.2109375 15.5390625 C-20.22530853 14.86074371 -20.23967957 14.18242493 -20.25448608 13.48355103 C-20.20715012 8.50382348 -18.83211378 5.72532618 -15.75 1.875 C-10.98288955 -2.09759204 -5.61066498 -2.29527204 0 0 Z " fill="#000000" transform="translate(56.75,9.125)"/>
<path d="M0 0 C2.44140625 0.921875 2.44140625 0.921875 3.6640625 3.03125 C3.94121094 3.90265625 4.21835937 4.7740625 4.50390625 5.671875 C6.57768725 11.42600252 8.68136382 15.10932026 14.06640625 18.234375 C19.5239235 20.71967561 24.93406207 20.9563273 30.6796875 19.26171875 C35.79922154 17.03457682 38.87936885 13.84810907 41.44140625 8.921875 C41.9651516 7.4719002 42.46573057 6.01332267 42.94140625 4.546875 C44.44140625 0.921875 44.44140625 0.921875 46.94140625 -0.203125 C49.44140625 -0.078125 49.44140625 -0.078125 52.44140625 1.921875 C53.53532501 8.48538757 50.92190525 13.4411905 47.44140625 18.921875 C43.182069 24.48120848 38.12922636 27.83517144 31.44140625 29.921875 C30.45140625 29.921875 29.46140625 29.921875 28.44140625 29.921875 C28.47621094 30.60894531 28.51101562 31.29601562 28.546875 32.00390625 C28.57394531 32.90496094 28.60101563 33.80601563 28.62890625 34.734375 C28.68111328 36.07435547 28.68111328 36.07435547 28.734375 37.44140625 C28.44140625 39.921875 28.44140625 39.921875 27.125 41.7578125 C25.44140625 42.921875 25.44140625 42.921875 22.31640625 42.734375 C21.36765625 42.46625 20.41890625 42.198125 19.44140625 41.921875 C18.17902894 39.39712038 18.34284221 37.60987034 18.37890625 34.796875 C18.38792969 33.88679688 18.39695312 32.97671875 18.40625 32.0390625 C18.41785156 31.34039062 18.42945312 30.64171875 18.44140625 29.921875 C17.61640625 29.86 16.79140625 29.798125 15.94140625 29.734375 C7.8381732 27.85326733 2.225827 22.54158942 -2.55859375 15.921875 C-5.27784175 11.41872317 -6.1774278 7.18196442 -5.55859375 1.921875 C-2.55859375 -0.078125 -2.55859375 -0.078125 0 0 Z " fill="#000000" transform="translate(26.55859375,45.078125)"/>
</svg>
