<?xml version="1.0" encoding="UTF-8"?>
<svg version="1.1" xmlns="http://www.w3.org/2000/svg" width="100" height="100">
<path d="M0 0 C14.91501765 5.73654525 14.91501765 5.73654525 21.4375 8.5390625 C22.18562958 8.8580954 22.93375916 9.1771283 23.70455933 9.50582886 C25.30685599 10.18934701 26.90872664 10.8738646 28.51019287 11.55932617 C32.86158945 13.42178748 37.2161503 15.27682827 41.5703125 17.1328125 C42.48378448 17.5224115 43.39725647 17.9120105 44.33840942 18.31341553 C56.51066862 23.50184183 68.70557238 28.63678277 80.89941406 33.77423096 C83.72221698 34.96356896 86.54471289 36.15363316 89.3671875 37.34375 C90.21425262 37.70024628 91.06131775 38.05674255 91.93405151 38.42404175 C92.70717682 38.75010406 93.48030212 39.07616638 94.27685547 39.41210938 C95.28835159 39.83816467 95.28835159 39.83816467 96.32028198 40.27282715 C97.56373104 40.81113321 98.78807955 41.39403977 100 42 C100 42.66 100 43.32 100 44 C78.97598665 53.18279267 57.86697662 62.15186554 36.70996094 71.0234375 C32.80370601 72.66187702 28.89940662 74.30491453 24.9959259 75.94995117 C22.08063427 77.17844105 19.16474742 78.40551363 16.24874878 79.63232422 C14.88208143 80.20761827 13.5156439 80.78345863 12.14944458 81.35986328 C10.28131849 82.14781857 8.41217283 82.93335536 6.54296875 83.71875 C4.9655188 84.38293945 4.9655188 84.38293945 3.35620117 85.06054688 C1 86 1 86 0 86 C0 74.78 0 63.56 0 52 C5.47605231 51.01626265 10.95251463 50.03603078 16.43066406 49.06420898 C18.28908867 48.73349695 20.14717184 48.40085959 22.00488281 48.06616211 C31.97950044 46.27040883 41.85676829 44.50036808 52 44 C52 43.34 52 42.68 52 42 C51.37448242 41.96914307 50.74896484 41.93828613 50.10449219 41.90649414 C39.68709776 41.22438127 29.50860288 39.28575768 19.25 37.4375 C17.3776931 37.10431757 15.50529782 36.77163137 13.6328125 36.43945312 C9.08731223 35.63292852 4.54380373 34.81626493 0 34 C0 22.78 0 11.56 0 0 Z " fill="#000000" transform="translate(0,7)"/>
</svg>
