<?xml version="1.0" encoding="UTF-8"?>
<svg version="1.1" xmlns="http://www.w3.org/2000/svg" width="100" height="100">
<path d="M0 0 C10.10959765 3.36986588 10.10959765 3.36986588 14.73828125 5.57421875 C15.78830322 6.06921875 16.8383252 6.56421875 17.92016602 7.07421875 C19.03963623 7.60660156 20.15910645 8.13898437 21.3125 8.6875 C23.78527087 9.85029007 26.25879625 11.01119423 28.734375 12.16796875 C29.38620255 12.47262054 30.03803009 12.77727234 30.70960999 13.09115601 C42.76972492 18.70638336 54.96930459 24.01926652 67.13630676 29.39753723 C72.77520644 31.89305911 78.39444822 34.43037939 84 37 C84 37.66 84 38.32 84 39 C64.3869748 48.01981639 44.73615647 56.94513462 24.99511719 65.68164062 C24.27926453 65.99851837 23.56341187 66.31539612 22.8258667 66.64187622 C21.4439865 67.25332108 20.0618736 67.86424037 18.67950439 68.47457886 C13.76678357 70.64732267 8.8851019 72.88247072 4.02148438 75.16333008 C2 76 2 76 0 76 C0 50.92 0 25.84 0 0 Z M9 14 C8.97316013 16.97922593 8.95323963 19.95821295 8.9375 22.9375 C8.92912109 23.78763672 8.92074219 24.63777344 8.91210938 25.51367188 C8.90888672 26.32255859 8.90566406 27.13144531 8.90234375 27.96484375 C8.89710693 28.7137085 8.89187012 29.46257324 8.88647461 30.23413086 C8.80658248 32.02667739 8.80658248 32.02667739 10 33 C13.98901217 33.72397133 18.00920474 34.23831711 22.02612305 34.78442383 C24.03084525 35.05817741 26.03394398 35.34205959 28.03710938 35.62695312 C34.41021655 36.50434004 40.56537778 37.2541061 47 37 C47 37.66 47 38.32 47 39 C45.98808594 38.96003906 44.97617187 38.92007813 43.93359375 38.87890625 C37.91797374 38.88023215 32.00621665 39.8085538 26.0612793 40.65405273 C24.04375949 40.9401576 22.02498697 41.21573062 20.00585938 41.49023438 C14.09533746 41.77569387 14.09533746 41.77569387 9 44 C8.91368126 45.34267413 8.89293527 46.68974322 8.90234375 48.03515625 C8.90556641 48.84404297 8.90878906 49.65292969 8.91210938 50.48632812 C8.92048828 51.33646484 8.92886719 52.18660156 8.9375 53.0625 C8.94201172 53.91650391 8.94652344 54.77050781 8.95117188 55.65039062 C8.96299627 57.76695663 8.98093231 59.88348685 9 62 C26.40781832 54.49685193 43.7168095 46.78469139 61 39 C61 38.34 61 37.68 61 37 C55.52410772 34.52586438 50.04718056 32.05403856 44.56933594 29.58422852 C42.71098585 28.74597552 40.85290633 27.90712242 38.99511719 27.06762695 C29.05151685 22.57481076 19.11764106 18.09058157 9 14 Z " fill="#000000" transform="translate(8,12)"/>
</svg>
