<?xml version="1.0" encoding="UTF-8"?>
<svg version="1.1" xmlns="http://www.w3.org/2000/svg" width="100" height="100">
<path d="M0 0 C11.42903522 7.07597008 18.80878691 17.01787356 22 30 C23.06820435 41.96140448 22.06623945 52.86777177 14.75 62.8125 C7.32410316 71.55257475 -1.31453837 78.45339478 -13 80 C-27.04265984 80.95745408 -37.97577346 78.32121102 -49.0078125 69.37109375 C-53.48910674 65.19049241 -56.42634398 60.53383181 -59 55 C-59.32097656 54.33613281 -59.64195313 53.67226562 -59.97265625 52.98828125 C-64.05378303 43.0227391 -63.14038967 30.56156167 -59.32421875 20.6796875 C-54.34364442 10.60100316 -45.55187769 2.04073719 -35 -2 C-23.55285164 -5.79289485 -10.865701 -5.36949364 0 0 Z M-39 18 C-40.13008208 20.11706487 -40.13008208 20.11706487 -40 23 C-38.0209342 25.77572032 -35.55736727 28.0031424 -33.0625 30.3125 C-32.39025391 30.95767578 -31.71800781 31.60285156 -31.02539062 32.26757812 C-29.36289417 33.85933005 -27.68807156 35.43546905 -26 37 C-27.27679445 39.83247268 -28.55236782 41.76150821 -30.85546875 43.83984375 C-31.39494141 44.34580078 -31.93441406 44.85175781 -32.49023438 45.37304688 C-33.62616172 46.42008693 -34.76950318 47.45913757 -35.91992188 48.49023438 C-37.77230763 50.18216059 -37.77230763 50.18216059 -40 53 C-40.02625762 55.81523038 -40.02625762 55.81523038 -39 58 C-33.43572085 57.75898603 -30.78146531 54.23981113 -27.1875 50.4375 C-26.2912793 49.51420898 -26.2912793 49.51420898 -25.37695312 48.57226562 C-23.9087379 47.05706751 -22.45310447 45.52969562 -21 44 C-16.06585066 45.85770131 -12.94056907 50.09209463 -9.50976562 53.91992188 C-7.81783941 55.77230763 -7.81783941 55.77230763 -5 58 C-2.18476962 58.02625762 -2.18476962 58.02625762 0 57 C-0.24101397 51.43572085 -3.76018887 48.78146531 -7.5625 45.1875 C-8.48579102 44.2912793 -8.48579102 44.2912793 -9.42773438 43.37695312 C-10.94293249 41.9087379 -12.47030438 40.45310447 -14 39 C-12.14229869 34.06585066 -7.90790537 30.94056907 -4.08007812 27.50976562 C-2.22769237 25.81783941 -2.22769237 25.81783941 0 23 C0.02625762 20.18476962 0.02625762 20.18476962 -1 18 C-6.56427915 18.24101397 -9.21853469 21.76018887 -12.8125 25.5625 C-13.40998047 26.17802734 -14.00746094 26.79355469 -14.62304688 27.42773438 C-16.0912621 28.94293249 -17.54689553 30.47030438 -19 32 C-23.9342417 30.12593705 -27.08219217 25.94946045 -30.578125 22.16796875 C-31.97998439 20.70592853 -33.4858731 19.34543341 -35 18 C-36.32 18 -37.64 18 -39 18 Z " fill="#000000" transform="translate(70,12)"/>
</svg>
