<?xml version="1.0" encoding="UTF-8"?>
<svg version="1.1" xmlns="http://www.w3.org/2000/svg" width="100" height="100">
<path d="M0 0 C8.73885226 6.53626102 14.76302116 15.91130269 16.38671875 26.78515625 C17.2137756 39.81130171 15.29386316 50.21345989 7.38671875 60.78515625 C-0.05486328 69.06808673 -9.63580837 74.27865004 -20.8125 74.98828125 C-33.66294166 75.16096356 -44.08481331 72.54891116 -53.84375 63.78125 C-63.12833937 54.04375383 -65.96127549 43.49530387 -65.82421875 30.3515625 C-65.18172891 19.48872496 -60.2733447 9.95521675 -52.42578125 2.47265625 C-37.18439892 -10.2671794 -16.45359492 -10.51273647 0 0 Z M-51.36328125 12.59765625 C-57.04659447 20.64901665 -59.59135235 28.96311835 -58.61328125 38.78515625 C-56.20662402 48.70058404 -51.27505924 56.60880245 -42.875 62.46484375 C-34.59923918 67.29594419 -26.21362628 69.43062042 -16.82421875 67.08984375 C-6.37591009 63.66464063 1.21693062 57.66866194 6.38671875 47.89453125 C10.25254853 39.3451 10.32289997 31.11788511 7.42578125 22.3046875 C3.27388118 12.23711026 -3.58207971 5.72191427 -13.5 1.546875 C-27.90531052 -3.64542731 -41.12747284 2.12921583 -51.36328125 12.59765625 Z " fill="#000000" transform="translate(74.61328125,16.21484375)"/>
<path d="M0 0 C3.45201639 1.47721422 5.64961936 3.43794001 8.25 6.125 C8.95640625 6.84945312 9.6628125 7.57390625 10.390625 8.3203125 C11.18726563 9.15175781 11.18726563 9.15175781 12 10 C15.45201639 8.52278578 17.64961936 6.56205999 20.25 3.875 C21.30960938 2.78832031 21.30960938 2.78832031 22.390625 1.6796875 C22.92171875 1.12539063 23.4528125 0.57109375 24 0 C27.78496138 1.51398455 28.0072198 2.0144396 30 6 C26.7 9.3 23.4 12.6 20 16 C21.83385923 19.66771845 23.25062829 21.46834996 26.125 24.25 C27.21167969 25.30960938 27.21167969 25.30960938 28.3203125 26.390625 C29.15175781 27.18726563 29.15175781 27.18726563 30 28 C28.48601545 31.78496138 27.9855604 32.0072198 24 34 C20.7 30.7 17.4 27.4 14 24 C10.33228155 25.83385923 8.53165004 27.25062829 5.75 30.125 C5.04359375 30.84945312 4.3371875 31.57390625 3.609375 32.3203125 C2.81273437 33.15175781 2.81273437 33.15175781 2 34 C-1.78496138 32.48601545 -2.0072198 31.9855604 -4 28 C-0.7 24.7 2.6 21.4 6 18 C4.16614077 14.33228155 2.74937171 12.53165004 -0.125 9.75 C-0.84945312 9.04359375 -1.57390625 8.3371875 -2.3203125 7.609375 C-2.87460937 7.07828125 -3.42890625 6.5471875 -4 6 C-2.84826645 3.53199953 -1.95216435 1.95216435 0 0 Z " fill="#000000" transform="translate(37,33)"/>
</svg>
