<?xml version="1.0" encoding="UTF-8"?>
<svg version="1.1" xmlns="http://www.w3.org/2000/svg" width="100" height="100">
<path d="M0 0 C4.03829747 2.51271843 5.55562208 4.53995436 7 9 C7.50723483 11.77917167 7.82551491 14.56671355 8.125 17.375 C8.21136719 18.10460937 8.29773438 18.83421875 8.38671875 19.5859375 C8.8930235 24.0864242 9.08363026 28.47201859 9 33 C9.928125 32.95875 10.85625 32.9175 11.8125 32.875 C15 33 15 33 18 35 C17.625 37.4375 17.625 37.4375 17 40 C14.15923698 41.42038151 11.75460603 41.1351281 8.57836914 41.14526367 C7.59029518 41.15030159 7.59029518 41.15030159 6.58226013 41.15544128 C4.39987311 41.16495764 2.21756274 41.16689471 0.03515625 41.16796875 C-1.47937553 41.17118078 -2.99390699 41.17454481 -4.50843811 41.17805481 C-7.68523885 41.18404773 -10.86201237 41.18589453 -14.03881836 41.18530273 C-18.11226176 41.18520108 -22.18553097 41.19885546 -26.25893307 41.21607494 C-29.3875865 41.22718577 -32.5161977 41.22922223 -35.64486885 41.22869301 C-37.14679121 41.22987443 -38.64871462 41.23430526 -40.1506176 41.24202538 C-42.25019457 41.25180724 -44.34939171 41.24895463 -46.44897461 41.24291992 C-47.64429306 41.24434494 -48.83961151 41.24576996 -50.07115173 41.24723816 C-53 41 -53 41 -56 39 C-55.625 36.5625 -55.625 36.5625 -55 34 C-52.29120665 32.64560332 -49.99066732 32.93498549 -47 33 C-46.95101562 32.11699219 -46.90203125 31.23398437 -46.8515625 30.32421875 C-45.52497451 9.03019427 -45.52497451 9.03019427 -41.5 4.875 C-38.15635889 2.36726917 -36.54687503 1.86213811 -32.4375 1.875 C-31.53773437 1.87757812 -30.63796875 1.88015625 -29.7109375 1.8828125 C-27.25043555 1.98917426 -24.98230005 2.32194873 -22.5625 2.75 C-17.6579539 3.40972656 -14.07525415 1.68390111 -9.578125 -0.125 C-5.99202575 -1.34210035 -3.5858747 -1.1474799 0 0 Z " fill="#000000" transform="translate(69,13)"/>
<path d="M0 0 C1.051875 0.53625 2.10375 1.0725 3.1875 1.625 C5.94523204 3.36059671 5.94523204 3.36059671 8.875 2.1875 C10.421875 1.5996875 10.421875 1.5996875 12 1 C16.06627763 0.55091311 19.28318237 0.7276093 23.125 2.1875 C27.05907003 3.2993024 28.42252809 1.82380921 32 0 C37.64826512 -0.81416434 42.207561 -0.26757204 47 3 C48.97198309 4.90938045 50.39302693 6.73133214 52 9 C52 9.99 52 10.98 52 12 C53.11375 11.95875 54.2275 11.9175 55.375 11.875 C59 12 59 12 61 14 C60.44444444 18.55555556 60.44444444 18.55555556 59 20 C56.66702567 20.04092937 54.33294775 20.04241723 52 20 C51.979375 20.70125 51.95875 21.4025 51.9375 22.125 C50.56130245 26.34533914 47.59407618 28.52024438 44 31 C39.20502582 32.59832473 34.51097855 33.00612612 29.73828125 31.09375 C25.22659279 28.49181507 22.63133948 26.08594073 21 21 C20.5010177 17.67178804 20.19251835 14.35911334 20 11 C17.67145537 9.80161791 17.67145537 9.80161791 15 9 C11.715843 10.68170243 11.715843 10.68170243 11.41015625 13.86328125 C11.17919106 16.15476735 10.95001166 18.44643418 10.72265625 20.73828125 C9.65137824 25.57350901 7.3599319 28.08283662 3.3125 30.8125 C-2.122433 32.76087221 -6.79536019 32.76314455 -12.25 30.875 C-15.65814953 28.55126168 -17.61295532 26.36994542 -20 23 C-20 22.01 -20 21.02 -20 20 C-21.670625 20.061875 -21.670625 20.061875 -23.375 20.125 C-27 20 -27 20 -29 18 C-28.44444444 13.44444444 -28.44444444 13.44444444 -27 12 C-24.66702567 11.95907063 -22.33294775 11.95758277 -20 12 C-19.979375 11.29875 -19.95875 10.5975 -19.9375 9.875 C-18.56130245 5.65466086 -15.59407618 3.47975562 -12 1 C-7.95673707 -0.34775431 -4.23170038 -0.4507997 0 0 Z " fill="#000000" transform="translate(34,59)"/>
</svg>
