<?xml version="1.0" encoding="UTF-8"?>
<svg version="1.1" xmlns="http://www.w3.org/2000/svg" width="100" height="100">
<path d="M0 0 C1.051875 0.53625 2.10375 1.0725 3.1875 1.625 C5.94523204 3.36059671 5.94523204 3.36059671 8.875 2.1875 C10.421875 1.5996875 10.421875 1.5996875 12 1 C16.06627763 0.55091311 19.28318237 0.7276093 23.125 2.1875 C27.05907003 3.2993024 28.42252809 1.82380921 32 0 C37.64826512 -0.81416434 42.207561 -0.26757204 47 3 C48.97198309 4.90938045 50.39302693 6.73133214 52 9 C52 9.99 52 10.98 52 12 C53.11375 11.95875 54.2275 11.9175 55.375 11.875 C59 12 59 12 61 14 C60.44444444 18.55555556 60.44444444 18.55555556 59 20 C56.66702567 20.04092937 54.33294775 20.04241723 52 20 C51.979375 20.70125 51.95875 21.4025 51.9375 22.125 C50.56130245 26.34533914 47.59407618 28.52024438 44 31 C39.20502582 32.59832473 34.51097855 33.00612612 29.73828125 31.09375 C25.22659279 28.49181507 22.63133948 26.08594073 21 21 C20.5010177 17.67178804 20.19251835 14.35911334 20 11 C17.67145537 9.80161791 17.67145537 9.80161791 15 9 C14.01 9.66 13.02 10.32 12 11 C11.38045553 13.9460834 11.38045553 13.9460834 11.125 17.3125 C10.28405022 23.61614835 10.28405022 23.61614835 7.6875 27.125 C6.800625 27.74375 5.91375 28.3625 5 29 C4.2575 29.598125 3.515 30.19625 2.75 30.8125 C-2.31531167 32.99979368 -7.09597285 32.65908632 -12.25 30.875 C-15.65814953 28.55126168 -17.61295532 26.36994542 -20 23 C-20 22.01 -20 21.02 -20 20 C-21.670625 20.061875 -21.670625 20.061875 -23.375 20.125 C-27 20 -27 20 -29 18 C-28.44444444 13.44444444 -28.44444444 13.44444444 -27 12 C-24.66702567 11.95907063 -22.33294775 11.95758277 -20 12 C-19.979375 11.29875 -19.95875 10.5975 -19.9375 9.875 C-18.56130245 5.65466086 -15.59407618 3.47975562 -12 1 C-7.95673707 -0.34775431 -4.23170038 -0.4507997 0 0 Z M-12 10 C-13.92863839 12.54229606 -14.00902291 13.78345018 -13.875 17 C-12.85086454 20.51132158 -11.94548102 21.85059493 -9 24 C-5.37436334 25.15711808 -3.73737598 25.3351709 -0.25 23.75 C2.68826605 21.46468196 3.89010455 19.84253177 4.375 16.125 C3.89832332 12.1526943 2.9716091 10.66682868 0 8 C-5.03373787 6.53563989 -7.91916574 6.61873733 -12 10 Z M30 10 C27.65831236 13.51253146 27.50376323 14.86469356 28 19 C30.08213913 22.74785043 31.2947039 23.79482295 35.4375 25 C39.43724411 25 40.98279958 24.58617178 44 22 C45.58872546 19.25583784 46.02932606 17.60118415 45.875 14.4375 C44.76666688 11.35000059 43.61704241 9.98046452 41 8 C36.26066628 6.48744669 33.91134416 6.95784343 30 10 Z " fill="#000000" transform="translate(34,59)"/>
<path d="M0 0 C4.23104267 3.36313648 4.83787829 7.55388188 5.62890625 12.6640625 C6.34403193 19.09266602 6.69203312 25.54079999 7 32 C7.928125 31.95875 8.85625 31.9175 9.8125 31.875 C13 32 13 32 16 34 C15.625 36.4375 15.625 36.4375 15 39 C12.15923698 40.42038151 9.75460603 40.1351281 6.57836914 40.14526367 C5.59029518 40.15030159 5.59029518 40.15030159 4.58226013 40.15544128 C2.39987311 40.16495764 0.21756274 40.16689471 -1.96484375 40.16796875 C-3.47937553 40.17118078 -4.99390699 40.17454481 -6.50843811 40.17805481 C-9.68523885 40.18404773 -12.86201237 40.18589453 -16.03881836 40.18530273 C-20.11226176 40.18520108 -24.18553097 40.19885546 -28.25893307 40.21607494 C-31.3875865 40.22718577 -34.5161977 40.22922223 -37.64486885 40.22869301 C-39.14679121 40.22987443 -40.64871462 40.23430526 -42.1506176 40.24202538 C-44.25019457 40.25180724 -46.34939171 40.24895463 -48.44897461 40.24291992 C-49.64429306 40.24434494 -50.83961151 40.24576996 -52.07115173 40.24723816 C-55 40 -55 40 -58 38 C-57.625 35.5625 -57.625 35.5625 -57 33 C-54.29120665 31.64560332 -51.99066732 31.93498549 -49 32 C-48.95101562 31.11699219 -48.90203125 30.23398437 -48.8515625 29.32421875 C-47.52497451 8.03019427 -47.52497451 8.03019427 -43.5 3.875 C-40.15635889 1.36726917 -38.54687503 0.86213811 -34.4375 0.875 C-33.53773437 0.87757812 -32.63796875 0.88015625 -31.7109375 0.8828125 C-29.25043555 0.98917426 -26.98230005 1.32194873 -24.5625 1.75 C-20.63050289 2.28397492 -18.14477441 1.45319895 -14.5 -0.0625 C-9.12870102 -2.23211305 -5.30510876 -2.47571742 0 0 Z M-13.8125 7.5 C-21.2176179 10.42888991 -29.26364386 8.7963896 -37 8 C-41.53650261 14.76391098 -41.53650261 14.76391098 -42 32 C-28.14 32 -14.28 32 0 32 C-0.268125 28.638125 -0.53625 25.27625 -0.8125 21.8125 C-0.92815308 20.23625854 -0.92815308 20.23625854 -1.04614258 18.62817383 C-1.61163555 11.82493056 -1.61163555 11.82493056 -5 6 C-8.35996662 5.23200763 -10.73101466 6.24323735 -13.8125 7.5 Z " fill="#000000" transform="translate(71,14)"/>
</svg>
