<?xml version="1.0" encoding="UTF-8"?>
<svg version="1.1" xmlns="http://www.w3.org/2000/svg" width="100" height="100">
<path d="M0 0 C0.65418915 -0.00671722 1.3083783 -0.01343445 1.98239136 -0.02035522 C4.13954315 -0.03931309 6.29638343 -0.04325826 8.45361328 -0.04541016 C9.95810065 -0.05183978 11.46258677 -0.05856826 12.96707153 -0.06558228 C16.11935321 -0.07754958 19.27152534 -0.08126368 22.42382812 -0.08007812 C26.45453932 -0.07987499 30.48454496 -0.10717257 34.51508904 -0.14162254 C37.62243854 -0.16390846 40.72961872 -0.16791516 43.83703995 -0.16685867 C45.32254594 -0.16921227 46.80805676 -0.17802225 48.29348373 -0.19352341 C50.37583946 -0.21321881 52.45668006 -0.20733354 54.5390625 -0.1953125 C55.72168671 -0.19816254 56.90431091 -0.20101257 58.12277222 -0.20394897 C62.09213385 0.3951546 64.26604591 1.83060515 67.39892578 4.29052734 C71.01221556 9.22944891 69.72608715 16.40746332 69.71142578 22.22802734 C69.72753906 23.50355469 69.74365234 24.77908203 69.76025391 26.09326172 C69.76089844 27.32238281 69.76154297 28.55150391 69.76220703 29.81787109 C69.76518799 30.9392749 69.76816895 32.06067871 69.77124023 33.21606445 C69.20790863 37.86789064 66.98064577 41.30576069 63.39892578 44.29052734 C58.35135146 45.97305212 54.6160604 45.85712449 49.77392578 43.60302734 C48.66017578 43.16990234 47.54642578 42.73677734 46.39892578 42.29052734 C43.8965256 43.59170287 43.8965256 43.59170287 41.39892578 45.29052734 C36.00338804 46.18426672 33.01308429 45.11029088 28.39892578 42.29052734 C26.23225911 42.95719401 26.23225911 42.95719401 24.39892578 44.29052734 C19.35135146 45.97305212 15.6160604 45.85712449 10.77392578 43.60302734 C9.66017578 43.16990234 8.54642578 42.73677734 7.39892578 42.29052734 C4.8965256 43.59170287 4.8965256 43.59170287 2.39892578 45.29052734 C-2.38950464 45.82257517 -4.58624913 45.78836606 -8.91357422 43.66552734 C-12.63385502 40.37783733 -14.35316433 37.17074785 -15.00512695 32.22607422 C-15.03707854 28.74678393 -15.05895433 25.26996828 -15.03857422 21.79052734 C-15.05855469 20.58009766 -15.07853516 19.36966797 -15.09912109 18.12255859 C-15.09294852 6.90081661 -15.09294852 6.90081661 -10.60107422 2.29052734 C-7.11522133 0.02009213 -4.10402303 0.02649157 0 0 Z M-7.42944336 7.43725586 C-10.07781034 11.62641063 -9.06695984 17.43601777 -9.03857422 22.22802734 C-9.05855469 23.42105469 -9.07853516 24.61408203 -9.09912109 25.84326172 C-9.09847656 26.98988281 -9.09783203 28.13650391 -9.09716797 29.31787109 C-9.099021 30.3670874 -9.10087402 31.41630371 -9.1027832 32.49731445 C-8.47714669 35.98048103 -7.37353935 37.15397463 -4.60107422 39.29052734 C-1.60107422 40.04052734 -1.60107422 40.04052734 1.39892578 39.29052734 C4.13197222 36.60961238 5.30023213 34.97252167 5.85302734 31.15258789 C5.83208008 30.0057251 5.81113281 28.8588623 5.78955078 27.67724609 C5.77666016 26.43007813 5.76376953 25.18291016 5.75048828 23.89794922 C5.71697266 22.604375 5.68345703 21.31080078 5.64892578 19.97802734 C5.63087891 18.66511719 5.61283203 17.35220703 5.59423828 15.99951172 C5.54715364 12.76244246 5.4813962 9.52685682 5.39892578 6.29052734 C3.62884864 6.20938629 1.8577048 6.1512723 0.08642578 6.10302734 C-0.89970703 6.06822266 -1.88583984 6.03341797 -2.90185547 5.99755859 C-5.57532546 6.08890773 -5.57532546 6.08890773 -7.42944336 7.43725586 Z M10.39892578 6.29052734 C10.31801408 10.68672959 10.25846005 15.08144332 10.21142578 19.47802734 C10.18628906 20.72390625 10.16115234 21.96978516 10.13525391 23.25341797 C10.12558594 24.45546875 10.11591797 25.65751953 10.10595703 26.89599609 C10.09024658 28.00096436 10.07453613 29.10593262 10.05834961 30.24438477 C10.47413025 33.96316261 11.73488222 36.62648379 14.39892578 39.29052734 C17.87044174 39.67625134 19.71158024 39.79577415 22.57373047 37.69189453 C25.00464668 34.49359439 24.85950664 32.54363637 24.78955078 28.55615234 C24.77666016 27.26064453 24.76376953 25.96513672 24.75048828 24.63037109 C24.71706944 23.2670791 24.68320969 21.90379785 24.64892578 20.54052734 C24.62885285 19.1616467 24.61060346 17.78273823 24.59423828 16.40380859 C24.54708594 13.03241596 24.47534318 9.66138362 24.39892578 6.29052734 C19.77892578 6.29052734 15.15892578 6.29052734 10.39892578 6.29052734 Z M30.39892578 6.29052734 C30.30694146 10.34805818 30.22735983 14.40292399 30.17919922 18.4609375 C30.15911936 19.84029415 30.13184913 21.21956604 30.09716797 22.59863281 C30.04849761 24.58409713 30.0280616 26.57018989 30.00830078 28.55615234 C29.98735352 29.75014648 29.96640625 30.94414062 29.94482422 32.17431641 C30.48937567 35.91122755 31.40724188 37.05790726 34.39892578 39.29052734 C37.39892578 40.04052734 37.39892578 40.04052734 40.39892578 39.29052734 C43.13197222 36.60961238 44.30023213 34.97252167 44.85302734 31.15258789 C44.83208008 30.0057251 44.81113281 28.8588623 44.78955078 27.67724609 C44.77666016 26.43007813 44.76376953 25.18291016 44.75048828 23.89794922 C44.71697266 22.604375 44.68345703 21.31080078 44.64892578 19.97802734 C44.63087891 18.66511719 44.61283203 17.35220703 44.59423828 15.99951172 C44.54715987 12.76287119 44.47541878 9.52660631 44.39892578 6.29052734 C39.77892578 6.29052734 35.15892578 6.29052734 30.39892578 6.29052734 Z M49.39892578 6.29052734 C49.34075372 10.51963603 49.30527115 14.74864143 49.27392578 18.97802734 C49.25716797 20.17621094 49.24041016 21.37439453 49.22314453 22.60888672 C49.21669922 23.76582031 49.21025391 24.92275391 49.20361328 26.11474609 C49.19313965 27.17781982 49.18266602 28.24089355 49.171875 29.33618164 C49.49416004 33.52969914 50.41394249 36.30554405 53.39892578 39.29052734 C56.92002707 39.74980142 58.68696001 39.82813579 61.56323242 37.65625 C63.922726 34.61548757 63.90146926 32.88388646 63.89501953 29.06396484 C63.89566406 27.86771484 63.89630859 26.67146484 63.89697266 25.43896484 C63.87699219 24.19373047 63.85701172 22.94849609 63.83642578 21.66552734 C63.84351562 20.41255859 63.85060547 19.15958984 63.85791016 17.86865234 C63.86264388 13.06140982 63.86264388 13.06140982 63.39892578 8.29052734 C59.97798337 6.00989907 58.71705356 6.07127728 54.71142578 6.16552734 C53.71755859 6.18357422 52.72369141 6.20162109 51.69970703 6.22021484 C50.94044922 6.24341797 50.18119141 6.26662109 49.39892578 6.29052734 Z " fill="#000000" transform="translate(18.60107421875,-0.29052734375)"/>
<path d="M0 0 C1.67542976 0.28604898 3.34385343 0.61781233 5 1 C5.04628524 9.44039195 5.08184969 17.88073111 5.10362434 26.32121849 C5.11407365 30.24023284 5.12825362 34.15916053 5.15087891 38.078125 C5.17256661 41.85823039 5.18455998 45.63825228 5.18975449 49.41841507 C5.19345759 50.86255839 5.2006886 52.306697 5.21146011 53.7508049 C5.22592017 55.76920894 5.22681645 57.78769652 5.22705078 59.80615234 C5.231492 60.95642914 5.23593323 62.10670593 5.24050903 63.2918396 C5 66 5 66 3 68 C0.14671326 68.24723816 0.14671326 68.24723816 -3.54516602 68.24291992 C-4.55268921 68.24576744 -4.55268921 68.24576744 -5.58056641 68.24867249 C-7.805131 68.25238324 -10.02937058 68.24167302 -12.25390625 68.23046875 C-13.79564882 68.22927712 -15.33739212 68.22882375 -16.87913513 68.2290802 C-20.11144551 68.22751488 -23.3436452 68.21922083 -26.57592773 68.20581055 C-30.7279969 68.18880639 -34.8799445 68.18499658 -39.03204441 68.18575573 C-42.21552195 68.18548439 -45.39897268 68.18000924 -48.58244133 68.17275429 C-50.11391942 68.16956288 -51.64540055 68.16759912 -53.17688179 68.16686058 C-55.31271717 68.16470278 -57.44842116 68.15597128 -59.58422852 68.14526367 C-61.41051537 68.13954597 -61.41051537 68.13954597 -63.2736969 68.13371277 C-66 68 -66 68 -67 67 C-67.08868299 64.04294679 -67.11520296 61.10934944 -67.09765625 58.15234375 C-67.0962413 57.2659169 -67.09482635 56.37949005 -67.09336853 55.46620178 C-67.08775215 52.62326746 -67.07519691 49.78041069 -67.0625 46.9375 C-67.05748711 45.01497509 -67.05292384 43.09244896 -67.04882812 41.16992188 C-67.03777741 36.44658451 -67.02050183 31.72330542 -67 27 C-71.62 27 -76.24 27 -81 27 C-80.98952637 28.17095215 -80.97905273 29.3419043 -80.96826172 30.54833984 C-80.93212503 34.88310705 -80.90912267 39.21786089 -80.89013672 43.55273438 C-80.88006466 45.43068682 -80.86640638 47.30862353 -80.84912109 49.18652344 C-80.82492547 51.8822009 -80.81352917 54.57767146 -80.8046875 57.2734375 C-80.79436493 58.11619232 -80.78404236 58.95894714 -80.77340698 59.82723999 C-80.77300856 61.88621247 -80.87742412 63.94467935 -81 66 C-83 68 -83 68 -85.3125 68.265625 C-86.199375 68.26046875 -87.08625 68.2553125 -88 68.25 C-89.3303125 68.25773437 -89.3303125 68.25773437 -90.6875 68.265625 C-93 68 -93 68 -95 66 C-94.625 63.875 -94.625 63.875 -94 62 C-91.69 62 -89.38 62 -87 62 C-87.01047363 60.82904785 -87.02094727 59.6580957 -87.03173828 58.45166016 C-87.06787497 54.11689295 -87.09087733 49.78213911 -87.10986328 45.44726562 C-87.11993534 43.56931318 -87.13359362 41.69137647 -87.15087891 39.81347656 C-87.17507453 37.1177991 -87.18647083 34.42232854 -87.1953125 31.7265625 C-87.20563507 30.88380768 -87.21595764 30.04105286 -87.22659302 29.17276001 C-87.22699144 27.11378753 -87.12257588 25.05532065 -87 23 C-85 21 -85 21 -82.87695312 20.75708008 C-81.59208008 20.76324341 -81.59208008 20.76324341 -80.28125 20.76953125 C-79.34925781 20.77146484 -78.41726562 20.77339844 -77.45703125 20.77539062 C-76.48121094 20.78763672 -75.50539063 20.79988281 -74.5 20.8125 C-73.52417969 20.81314453 -72.54835938 20.81378906 -71.54296875 20.81445312 C-64.28069196 20.85965402 -64.28069196 20.85965402 -62 22 C-62 35.2 -62 48.4 -62 62 C-41.87 62 -21.74 62 -1 62 C-1.0396122 41.96983527 -1.0396122 41.96983527 -1.09008789 21.93969727 C-1.09300677 19.44026736 -1.09555539 16.94083698 -1.09765625 14.44140625 C-1.10277222 13.12942261 -1.10788818 11.81743896 -1.11315918 10.46569824 C-1.11334045 8.60817932 -1.11334045 8.60817932 -1.11352539 6.71313477 C-1.115746 5.63169693 -1.11796661 4.55025909 -1.12025452 3.43605042 C-1 1 -1 1 0 0 Z " fill="#000000" transform="translate(95,32)"/>
<path d="M0 0 C1.34149109 -0.00472824 1.34149109 -0.00472824 2.71008301 -0.009552 C3.6778064 -0.00752777 4.64552979 -0.00550354 5.64257812 -0.00341797 C6.6338269 -0.00437469 7.62507568 -0.00533142 8.6463623 -0.00631714 C10.74454817 -0.00699839 12.84273614 -0.0051479 14.94091797 -0.00097656 C18.16052973 0.00437244 21.38000198 -0.00092341 24.59960938 -0.00732422 C26.63476593 -0.00666343 28.66992241 -0.00538225 30.70507812 -0.00341797 C32.15666321 -0.00645432 32.15666321 -0.00645432 33.63757324 -0.009552 C34.53190063 -0.00639984 35.42622803 -0.00324768 36.34765625 0 C37.13660278 0.00079559 37.92554932 0.00159119 38.73840332 0.00241089 C40.67382812 0.12939453 40.67382812 0.12939453 42.67382812 1.12939453 C42.69848101 5.81078707 42.71666552 10.49214212 42.72875977 15.17358398 C42.7337997 16.76734068 42.74063162 18.36109272 42.74926758 19.95483398 C42.76134811 22.24089706 42.76705968 24.5268992 42.77148438 26.81298828 C42.77664566 27.52966171 42.78180695 28.24633514 42.78712463 28.98472595 C42.78732075 30.70003126 42.7357482 32.41520719 42.67382812 34.12939453 C41.08700823 35.71621442 39.46134467 35.25667989 37.26171875 35.25878906 C36.32404663 35.26194122 35.38637451 35.26509338 34.42028809 35.26834106 C33.4005188 35.26631683 32.38074951 35.2642926 31.33007812 35.26220703 C29.77093689 35.26364212 29.77093689 35.26364212 28.18029785 35.2651062 C25.97778259 35.26578816 23.77526533 35.2639328 21.57275391 35.25976562 C18.18843093 35.25441761 14.80424069 35.25971012 11.41992188 35.26611328 C9.285807 35.2654525 7.1516922 35.26417135 5.01757812 35.26220703 C3.99780884 35.26423126 2.97803955 35.26625549 1.92736816 35.26834106 C0.52085999 35.26361282 0.52085999 35.26361282 -0.9140625 35.25878906 C-1.74377563 35.25799347 -2.57348877 35.25719788 -3.42834473 35.25637817 C-5.32617188 35.12939453 -5.32617188 35.12939453 -6.32617188 34.12939453 C-6.41460981 31.68109027 -6.44145939 29.26118854 -6.42382812 26.81298828 C-6.42241318 26.08193375 -6.42099823 25.35087921 -6.41954041 24.59767151 C-6.41392596 22.25403821 -6.40137109 19.91049914 -6.38867188 17.56689453 C-6.38365873 15.98160945 -6.3790955 14.39632287 -6.375 12.81103516 C-6.36395184 8.91711843 -6.34667759 5.02327248 -6.32617188 1.12939453 C-3.98572809 -0.04082736 -2.60711473 0.00262908 0 0 Z M-1.32617188 6.12939453 C-1.32617188 13.71939453 -1.32617188 21.30939453 -1.32617188 29.12939453 C11.21382812 29.12939453 23.75382812 29.12939453 36.67382812 29.12939453 C36.67382812 21.53939453 36.67382812 13.94939453 36.67382812 6.12939453 C24.13382813 6.12939453 11.59382813 6.12939453 -1.32617188 6.12939453 Z " fill="#000000" transform="translate(45.326171875,52.87060546875)"/>
<path d="M0 0 C1.32 0 2.64 0 4 0 C5.26237731 2.52475462 5.09856404 4.31200466 5.0625 7.125 C5.05347656 8.03507812 5.04445313 8.94515625 5.03515625 9.8828125 C5.02355469 10.58148438 5.01195313 11.28015625 5 12 C3.125 13.0625 3.125 13.0625 1 14 C0.34 13.67 -0.32 13.34 -1 13 C-1.02686553 11.02090602 -1.04633375 9.04171029 -1.0625 7.0625 C-1.07410156 5.96035156 -1.08570312 4.85820312 -1.09765625 3.72265625 C-1 1 -1 1 0 0 Z " fill="#000000" transform="translate(95,8)"/>
</svg>
