<?xml version="1.0" encoding="UTF-8"?>
<svg version="1.1" xmlns="http://www.w3.org/2000/svg" width="100" height="100">
<path d="M0 0 C11.22 0 22.44 0 34 0 C34 2.97 34 5.94 34 9 C32.68 9 31.36 9 30 9 C29.04011819 24.9560682 31.98357656 33.68185774 42.21923828 45.84033203 C45.10810361 49.34388327 47.71483582 53.02823838 50.3125 56.75 C51.022854 57.71546753 51.022854 57.71546753 51.74755859 58.70043945 C54.50801892 62.61152252 55.60508825 65.21493431 55 70 C54.15374279 72.53877164 53.56075201 73.63652181 51.31347656 75.09320068 C48.34412001 76.25708128 45.9241122 76.25424118 42.734375 76.25878906 C41.46625977 76.26509338 40.19814453 76.27139771 38.89160156 76.27789307 C37.51106629 76.27431316 36.13053229 76.27021117 34.75 76.265625 C33.33040297 76.26697281 31.91080639 76.26891431 30.49121094 76.27142334 C27.51883542 76.27436916 24.54658026 76.27009448 21.57421875 76.26074219 C17.76770445 76.24934787 13.96147221 76.25591026 10.15496826 76.26788712 C7.22442507 76.27512041 4.29394854 76.27281105 1.36340332 76.26763153 C-0.03999871 76.2662991 -1.44340684 76.26792852 -2.84680176 76.27259064 C-4.80932497 76.27767971 -6.77186945 76.26854548 -8.734375 76.25878906 C-10.40838379 76.25640228 -10.40838379 76.25640228 -12.11621094 76.25396729 C-14.97484365 76.00221545 -16.6112759 75.54836557 -19 74 C-21.32960901 70.73854738 -21.40266188 67.92479622 -21 64 C-19.53014247 61.39608406 -18.07114936 59.14024323 -16.3125 56.75 C-15.58667725 55.71008911 -15.58667725 55.71008911 -14.84619141 54.64916992 C-12.17935643 50.86063824 -9.39386412 47.23561633 -6.41015625 43.69140625 C2.90800657 32.31952747 4.87988148 23.62622657 4 9 C2.68 9 1.36 9 0 9 C0 6.03 0 3.06 0 0 Z M13 9 C13 15.6 13 22.2 13 29 C15.64 29 18.28 29 21 29 C21 22.4 21 15.8 21 9 C18.36 9 15.72 9 13 9 Z M19 43 C17.70366379 44.06645115 17.70366379 44.06645115 17.9375 46.5625 C17.958125 47.366875 17.97875 48.17125 18 49 C20.39719432 49.67958603 20.39719432 49.67958603 23 50 C23.66 49.34 24.32 48.68 25 48 C24.6814823 45.89179203 24.6814823 45.89179203 24 44 C22.34385343 43.61781233 20.67542976 43.28604898 19 43 Z M2.75 56.625 C0.64002415 58.9471241 0.64002415 58.9471241 1.25 62.25 C1.4975 63.1575 1.745 64.065 2 65 C4.77825456 66.28776153 4.77825456 66.28776153 8 67 C10.5 66.16666667 10.5 66.16666667 12 64 C12.66666667 61 12.66666667 61 12 58 C10.2890789 56.02901574 10.2890789 56.02901574 8 55 C4.94276455 54.70725472 4.94276455 54.70725472 2.75 56.625 Z " fill="#000000" transform="translate(33,12)"/>
</svg>
