<?xml version="1.0" encoding="UTF-8"?>
<svg version="1.1" xmlns="http://www.w3.org/2000/svg" width="100" height="100">
<path d="M0 0 C11.22 0 22.44 0 34 0 C34 2.97 34 5.94 34 9 C32.68 9 31.36 9 30 9 C29.04011819 24.9560682 31.98357656 33.68185774 42.21923828 45.84033203 C45.10810361 49.34388327 47.71483582 53.02823838 50.3125 56.75 C51.022854 57.71546753 51.022854 57.71546753 51.74755859 58.70043945 C54.50801892 62.61152252 55.60508825 65.21493431 55 70 C54.15374279 72.53877164 53.56075201 73.63652181 51.31347656 75.09320068 C48.34412001 76.25708128 45.9241122 76.25424118 42.734375 76.25878906 C41.46625977 76.26509338 40.19814453 76.27139771 38.89160156 76.27789307 C37.51106629 76.27431316 36.13053229 76.27021117 34.75 76.265625 C33.33040297 76.26697281 31.91080639 76.26891431 30.49121094 76.27142334 C27.51883542 76.27436916 24.54658026 76.27009448 21.57421875 76.26074219 C17.76770445 76.24934787 13.96147221 76.25591026 10.15496826 76.26788712 C7.22442507 76.27512041 4.29394854 76.27281105 1.36340332 76.26763153 C-0.03999871 76.2662991 -1.44340684 76.26792852 -2.84680176 76.27259064 C-4.80932497 76.27767971 -6.77186945 76.26854548 -8.734375 76.25878906 C-10.40838379 76.25640228 -10.40838379 76.25640228 -12.11621094 76.25396729 C-14.97484365 76.00221545 -16.6112759 75.54836557 -19 74 C-21.32960901 70.73854738 -21.40266188 67.92479622 -21 64 C-19.53014247 61.39608406 -18.07114936 59.14024323 -16.3125 56.75 C-15.58667725 55.71008911 -15.58667725 55.71008911 -14.84619141 54.64916992 C-12.17935643 50.86063824 -9.39386412 47.23561633 -6.41015625 43.69140625 C2.90800657 32.31952747 4.87988148 23.62622657 4 9 C2.68 9 1.36 9 0 9 C0 6.03 0 3.06 0 0 Z M13 9 C13 14.28 13 19.56 13 25 C15.64 25 18.28 25 21 25 C21 19.72 21 14.44 21 9 C18.36 9 15.72 9 13 9 Z M5.5 42.125 C4.40253478 43.7722627 3.30487604 45.4193965 2.20703125 47.06640625 C1.40579834 48.30801514 1.40579834 48.30801514 0.58837891 49.57470703 C-1.75886694 53.1587126 -4.28496744 56.604593 -6.8125 60.0625 C-9.60000987 63.30597884 -9.60000987 63.30597884 -11 67 C7.48 67 25.96 67 45 67 C40.40103335 59.77305241 35.80587253 52.82816186 30.6875 46 C29.46171113 44.35456021 28.23642812 42.70874343 27.01171875 41.0625 C26.48022217 40.35222656 25.94872559 39.64195313 25.40112305 38.91015625 C24.22352223 37.30472868 23.1044165 35.65662475 22 34 C13.47883324 31.71133667 9.75870461 35.23768719 5.5 42.125 Z " fill="#000000" transform="translate(33,12)"/>
<path d="M0 0 C1.875 1 1.875 1 3 3 C3.36095911 5.80173027 3.22716238 8.13775402 3 11 C1 13 1 13 -2.9375 13.3125 C-5.48435809 13.2339218 -6.75704973 13.13665953 -9 11.875 C-10.504106 9.05480125 -10.44912849 7.14389944 -10 4 C-7.21052575 -0.0769239 -4.82207542 -0.71818145 0 0 Z " fill="#000000" transform="translate(47,62)"/>
<path d="M0 0 C3.0625 0.1875 3.0625 0.1875 5.0625 2.1875 C4.49431818 7.75568182 4.49431818 7.75568182 3.0625 9.1875 C0.625 9.375 0.625 9.375 -1.9375 9.1875 C-3.9375 7.1875 -3.9375 7.1875 -4.125 4.125 C-3.8775 0.2475 -3.8775 0.2475 0 0 Z " fill="#000000" transform="translate(53.9375,53.8125)"/>
</svg>
